Involve-SemiBoldOblique.ufo
<glyph name="quotedbl" format="2">
	<unicode hex="0022"/>
	<advance width="328"/>
	<outline>
		<contour>
			<point x="162.333" y="513" type="line"/>
			<point x="229.667" y="513" type="line"/>
			<point x="271.667" y="739" type="line"/>
			<point x="204.333" y="739" type="line"/>
		</contour>
		<contour>
			<point x="288.667" y="513" type="line"/>
			<point x="356" y="513" type="line"/>
			<point x="398" y="739" type="line"/>
			<point x="330.667" y="739" type="line"/>
		</contour>
	</outline>
</glyph>
<glyph name="numbersign" format="2">
	<unicode hex="0023"/>
	<advance width="558"/>
	<outline>
		<contour>
			<point x="85.667" y="0" type="line"/>
			<point x="168" y="0" type="line"/>
			<point x="247" y="234.333" type="line"/>
			<point x="359.667" y="234.333" type="line"/>
			<point x="280.667" y="0" type="line"/>
			<point x="362.667" y="0" type="line"/>
			<point x="441.667" y="234.333" type="line"/>
			<point x="554.667" y="234.333" type="line"/>
			<point x="571" y="321.333" type="line"/>
			<point x="470.667" y="321.333" type="line"/>
			<point x="508.333" y="432.333" type="line"/>
			<point x="613.667" y="432.333" type="line"/>
			<point x="630" y="518.667" type="line"/>
			<point x="537.667" y="518.667" type="line"/>
			<point x="611.333" y="739" type="line"/>
			<point x="529" y="739" type="line"/>
			<point x="455.667" y="518.667" type="line"/>
			<point x="343.333" y="518.667" type="line"/>
			<point x="417" y="739" type="line"/>
			<point x="335.667" y="739" type="line"/>
			<point x="261.667" y="518.667" type="line"/>
			<point x="143.333" y="518.667" type="line"/>
			<point x="127" y="432.333" type="line"/>
			<point x="232.333" y="432.333" type="line"/>
			<point x="194.333" y="321.333" type="line"/>
			<point x="84" y="321.333" type="line"/>
			<point x="67.667" y="234.333" type="line"/>
			<point x="165.333" y="234.333" type="line"/>
		</contour>
		<contour>
			<point x="276" y="321.333" type="line"/>
			<point x="314.667" y="432.333" type="line"/>
			<point x="426.333" y="432.333" type="line"/>
			<point x="388.333" y="321.333" type="line"/>
		</contour>
	</outline>
</glyph>
<glyph name="dollar" format="2">
	<unicode hex="0024"/>
	<advance width="558"/>
	<outline>
		<contour>
			<point x="216.333" y="-76" type="line"/>
			<point x="323" y="-76" type="line"/>
			<point x="344.667" y="40.333" type="line"/>
			<point x="443.667" y="61"/>
			<point x="517" y="138.667"/>
			<point x="536.333" y="242.667" type="curve" smooth="yes"/>
			<point x="539.333" y="258.667"/>
			<point x="540.333" y="274.333"/>
			<point x="540.333" y="288.667" type="curve" smooth="yes"/>
			<point x="540.333" y="328"/>
			<point x="529" y="361.333"/>
			<point x="508.333" y="384.333" type="curve" smooth="yes"/>
			<point x="489" y="406.667"/>
			<point x="465.333" y="420.333"/>
			<point x="405.667" y="442" type="curve" smooth="yes"/>
			<point x="348.667" y="463"/>
			<point x="329.333" y="476"/>
			<point x="320" y="499" type="curve"/>
			<point x="311.333" y="508.333"/>
			<point x="307" y="522"/>
			<point x="307.667" y="537.333" type="curve"/>
			<point x="312.333" y="565"/>
			<point x="330.333" y="584.333"/>
			<point x="354" y="587.667" type="curve"/>
			<point x="379" y="613"/>
			<point x="410" y="618.667"/>
			<point x="433.333" y="598.667" type="curve"/>
			<point x="456" y="596.333"/>
			<point x="467.667" y="579"/>
			<point x="468" y="549.667" type="curve"/>
			<point x="575.333" y="549.667" type="line"/>
			<point x="577.333" y="561"/>
			<point x="578.333" y="572"/>
			<point x="578.333" y="582.333" type="curve" smooth="yes"/>
			<point x="578.333" y="656.333"/>
			<point x="537.333" y="713"/>
			<point x="471.333" y="724.667" type="curve"/>
			<point x="493" y="840.667" type="line"/>
			<point x="386.333" y="840.667" type="line"/>
			<point x="364.667" y="724.667" type="line"/>
			<point x="277.333" y="706.667"/>
			<point x="212.333" y="638.333"/>
			<point x="194.667" y="544.667" type="curve" smooth="yes"/>
			<point x="192" y="531"/>
			<point x="191" y="517.667"/>
			<point x="191" y="505" type="curve" smooth="yes"/>
			<point x="191" y="451.667"/>
			<point x="216" y="411"/>
			<point x="264.667" y="386" type="curve"/>
			<point x="325.333" y="353"/>
			<point x="334" y="347.333"/>
			<point x="368.333" y="331.667" type="curve"/>
			<point x="396.667" y="317.333"/>
			<point x="409.667" y="303"/>
			<point x="415.333" y="283.667" type="curve"/>
			<point x="421" y="273.667"/>
			<point x="423.667" y="261.667"/>
			<point x="423" y="247.667" type="curve"/>
			<point x="417" y="212.667"/>
			<point x="388.333" y="186.333"/>
			<point x="355.667" y="183.333" type="curve"/>
			<point x="322.333" y="157.333"/>
			<point x="283.667" y="156"/>
			<point x="258.667" y="185.333" type="curve"/>
			<point x="235.333" y="188.667"/>
			<point x="222" y="206"/>
			<point x="222.667" y="232.667" type="curve"/>
			<point x="208.355" y="235.667"/>
			<point x="149.648" y="238.667"/>
			<point x="134" y="242" type="curve"/>
			<point x="109.333" y="233.333" type="line"/>
			<point x="107" y="219.333"/>
			<point x="105.667" y="206.333"/>
			<point x="105.667" y="194" type="curve" smooth="yes"/>
			<point x="105.667" y="118"/>
			<point x="152.333" y="62.333"/>
			<point x="238" y="40.333" type="curve"/>
		</contour>
	</outline>
</glyph>
<glyph name="percent" format="2">
	<unicode hex="0025"/>
	<advance width="832"/>
	<outline>
		<contour>
			<point x="210.667" y="0" type="line"/>
			<point x="302.667" y="0" type="line"/>
			<point x="755" y="739" type="line"/>
			<point x="661.667" y="739" type="line"/>
		</contour>
		<contour>
			<point x="478" y="132.667" type="curve" smooth="yes"/>
			<point x="478" y="49.667"/>
			<point x="539.667" y="-13"/>
			<point x="627.333" y="-13" type="curve" smooth="yes"/>
			<point x="726.333" y="-13"/>
			<point x="820.667" y="67.333"/>
			<point x="839.333" y="166.333" type="curve" smooth="yes"/>
			<point x="841.333" y="177.333"/>
			<point x="842.333" y="188"/>
			<point x="842.333" y="198" type="curve" smooth="yes"/>
			<point x="842.333" y="280.333"/>
			<point x="780.667" y="344.667"/>
			<point x="694.667" y="344.667" type="curve" smooth="yes"/>
			<point x="593.333" y="344.667"/>
			<point x="499.667" y="266.333"/>
			<point x="481" y="165.333" type="curve" smooth="yes"/>
			<point x="479" y="154.333"/>
			<point x="478" y="143.333"/>
		</contour>
		<contour>
			<point x="644" y="80.333" type="curve" smooth="yes"/>
			<point x="603.333" y="80.333"/>
			<point x="574" y="110.667"/>
			<point x="574" y="150.333" type="curve" smooth="yes"/>
			<point x="574" y="155.333"/>
			<point x="574.333" y="160.667"/>
			<point x="575.333" y="166.333" type="curve" smooth="yes"/>
			<point x="584.333" y="213.333"/>
			<point x="628.667" y="252"/>
			<point x="675" y="252" type="curve" smooth="yes"/>
			<point x="717.667" y="252"/>
			<point x="746.667" y="222"/>
			<point x="746.667" y="182.333" type="curve" smooth="yes"/>
			<point x="746.667" y="177.333"/>
			<point x="746.333" y="171.667"/>
			<point x="745.333" y="166" type="curve" smooth="yes"/>
			<point x="736.333" y="118.667"/>
			<point x="691.333" y="80.333"/>
		</contour>
		<contour>
			<point x="122.667" y="539" type="curve" smooth="yes"/>
			<point x="122.667" y="455.667"/>
			<point x="183.667" y="393"/>
			<point x="271.333" y="393" type="curve" smooth="yes"/>
			<point x="370.333" y="393"/>
			<point x="465.333" y="473.333"/>
			<point x="484" y="572.333" type="curve" smooth="yes"/>
			<point x="486" y="583.333"/>
			<point x="487" y="594.333"/>
			<point x="487" y="604.333" type="curve" smooth="yes"/>
			<point x="487" y="686.667"/>
			<point x="425" y="751"/>
			<point x="339.333" y="751" type="curve" smooth="yes"/>
			<point x="238" y="751"/>
			<point x="144.333" y="672.333"/>
			<point x="125.667" y="571.667" type="curve" smooth="yes"/>
			<point x="123.667" y="560.667"/>
			<point x="122.667" y="549.667"/>
		</contour>
		<contour>
			<point x="258.333" y="516.333" type="curve"/>
			<point x="235" y="518.667"/>
			<point x="218.667" y="538"/>
			<point x="219" y="563" type="curve"/>
			<point x="222.667" y="585.667"/>
			<point x="242.333" y="605.667"/>
			<point x="262.333" y="609" type="curve"/>
			<point x="286" y="636.333"/>
			<point x="323.333" y="646"/>
			<point x="350" y="628.667" type="curve"/>
			<point x="374.667" y="626.333"/>
			<point x="391" y="606.333"/>
			<point x="390.667" y="581.333" type="curve"/>
			<point x="387" y="558.667"/>
			<point x="367.667" y="539"/>
			<point x="347.333" y="535.667" type="curve"/>
			<point x="324.333" y="508.333"/>
			<point x="285.667" y="499.333"/>
		</contour>
	</outline>
</glyph>
<glyph name="ampersand" format="2">
	<unicode hex="0026"/>
	<advance width="706"/>
	<outline>
		<contour>
			<point x="78" y="175" type="curve" smooth="yes"/>
			<point x="78" y="65.333"/>
			<point x="158.667" y="-13"/>
			<point x="278" y="-13" type="curve" smooth="yes"/>
			<point x="363.333" y="-13"/>
			<point x="421.667" y="21.333"/>
			<point x="501" y="116.333" type="curve"/>
			<point x="604.667" y="-13" type="line"/>
			<point x="698.667" y="61.333" type="line"/>
			<point x="577" y="216" type="line"/>
			<point x="750.333" y="449" type="line"/>
			<point x="623.667" y="449" type="line"/>
			<point x="512.333" y="300.333" type="line"/>
			<point x="438.667" y="396.333" type="line"/>
			<point x="542.333" y="449.667"/>
			<point x="600.333" y="504.333"/>
			<point x="600.333" y="608.333" type="curve" smooth="yes"/>
			<point x="600.333" y="692.333"/>
			<point x="537.667" y="752"/>
			<point x="443" y="752" type="curve" smooth="yes"/>
			<point x="329.333" y="752"/>
			<point x="225" y="656"/>
			<point x="225" y="541.333" type="curve" smooth="yes"/>
			<point x="225" y="506.667"/>
			<point x="237.667" y="477"/>
			<point x="270.333" y="433" type="curve"/>
			<point x="163" y="379"/>
			<point x="78" y="303.667"/>
		</contour>
		<contour>
			<point x="191.667" y="189.667" type="curve" smooth="yes"/>
			<point x="191.667" y="270.667"/>
			<point x="261.333" y="312.333"/>
			<point x="327.333" y="341.333" type="curve"/>
			<point x="437.333" y="200.667" type="line"/>
			<point x="382" y="124"/>
			<point x="344.667" y="97.333"/>
			<point x="291" y="97.333" type="curve" smooth="yes"/>
			<point x="231.333" y="97.333"/>
			<point x="191.667" y="135.333"/>
		</contour>
		<contour>
			<point x="380" y="475.333" type="curve"/>
			<point x="349" y="511"/>
			<point x="336.333" y="535.333"/>
			<point x="336.333" y="560" type="curve" smooth="yes"/>
			<point x="336.333" y="608.333"/>
			<point x="379" y="646.333"/>
			<point x="426.333" y="646.333" type="curve" smooth="yes"/>
			<point x="465" y="646.333"/>
			<point x="490.333" y="623"/>
			<point x="490.333" y="588.333" type="curve" smooth="yes"/>
			<point x="490.333" y="526.667"/>
			<point x="429.667" y="496.333"/>
		</contour>
	</outline>
</glyph>
<glyph name="parenleft" format="2">
	<unicode hex="0028"/>
	<advance width="361"/>
	<outline>
		<contour>
			<point x="316" y="-14.667" type="line"/>
			<point x="244.333" y="37"/>
			<point x="207" y="130"/>
			<point x="207" y="232" type="curve" smooth="yes"/>
			<point x="207" y="388.667"/>
			<point x="302.667" y="540.667"/>
			<point x="434" y="622" type="curve"/>
			<point x="456" y="739" type="line"/>
			<point x="245" y="659.667"/>
			<point x="90.667" y="436.667"/>
			<point x="90.667" y="211.333" type="curve" smooth="yes"/>
			<point x="90.667" y="71.667"/>
			<point x="156" y="-81.667"/>
			<point x="294.667" y="-133" type="curve"/>
		</contour>
	</outline>
</glyph>
<glyph name="parenright" format="2">
	<unicode hex="0029"/>
	<advance width="361"/>
	<outline>
		<contour>
			<point x="17.667" y="-133" type="line"/>
			<point x="228.333" y="-54"/>
			<point x="383" y="169.333"/>
			<point x="383" y="395" type="curve" smooth="yes"/>
			<point x="383" y="535"/>
			<point x="318" y="687.667"/>
			<point x="179" y="739" type="curve"/>
			<point x="157" y="620.667" type="line"/>
			<point x="228.333" y="569.333"/>
			<point x="265.667" y="475.333"/>
			<point x="265.667" y="374" type="curve" smooth="yes"/>
			<point x="265.667" y="216.333"/>
			<point x="171.333" y="66.333"/>
			<point x="39" y="-15.667" type="curve"/>
		</contour>
	</outline>
</glyph>
<glyph name="asterisk" format="2">
	<unicode hex="002A"/>
	<advance width="414"/>
	<outline>
		<contour>
			<point x="192.667" y="480" type="line"/>
			<point x="246.333" y="450" type="line"/>
			<point x="309" y="539" type="line"/>
			<point x="341.667" y="450" type="line"/>
			<point x="401.667" y="484.333" type="line"/>
			<point x="363.333" y="567.667" type="line"/>
			<point x="461.333" y="563.667" type="line"/>
			<point x="473.333" y="629" type="line"/>
			<point x="373.333" y="624" type="line"/>
			<point x="444" y="710" type="line"/>
			<point x="395.333" y="743.333" type="line"/>
			<point x="331.333" y="655.333" type="line"/>
			<point x="300.333" y="742.667" type="line"/>
			<point x="236.333" y="712" type="line"/>
			<point x="274" y="624" type="line"/>
			<point x="174" y="628.333" type="line"/>
			<point x="162" y="563.667" type="line"/>
			<point x="263" y="569" type="line"/>
		</contour>
	</outline>
</glyph>
<glyph name="plus" format="2">
	<unicode hex="002B"/>
	<advance width="602"/>
	<outline>
		<contour>
			<point x="266" y="94.333" type="line"/>
			<point x="371.667" y="94.333" type="line"/>
			<point x="409" y="297" type="line"/>
			<point x="608" y="297" type="line"/>
			<point x="627.333" y="400.333" type="line"/>
			<point x="428.333" y="400.333" type="line"/>
			<point x="465.667" y="602.333" type="line"/>
			<point x="360" y="602.333" type="line"/>
			<point x="322.667" y="400.333" type="line"/>
			<point x="123.333" y="400.333" type="line"/>
			<point x="104" y="297" type="line"/>
			<point x="303.333" y="297" type="line"/>
		</contour>
	</outline>
</glyph>
<glyph name="comma" format="2">
	<unicode hex="002C"/>
	<advance width="276"/>
	<outline>
		<contour>
			<point x="79.333" y="0" type="line"/>
			<point x="130.667" y="0" type="line"/>
			<point x="128.333" y="-48"/>
			<point x="100.667" y="-69.667"/>
			<point x="59.333" y="-76.333" type="curve"/>
			<point x="48.667" y="-135.667" type="line"/>
			<point x="129.667" y="-135.667"/>
			<point x="182.667" y="-87"/>
			<point x="198.667" y="-1" type="curve" smooth="yes"/>
			<point x="222.667" y="127.333" type="line"/>
			<point x="103.333" y="127.333" type="line"/>
		</contour>
	</outline>
</glyph>
<glyph name="slash" format="2">
	<unicode hex="002F"/>
	<advance width="452"/>
	<outline>
		<contour>
			<point x="-2.667" y="-128" type="line"/>
			<point x="82.333" y="-128" type="line"/>
			<point x="555.333" y="739" type="line"/>
			<point x="469.333" y="739" type="line"/>
		</contour>
	</outline>
</glyph>
<glyph name="zero" format="2">
	<unicode hex="0030"/>
	<advance width="558"/>
	<outline>
		<contour>
			<point x="71" y="178.667" type="curve" smooth="yes"/>
			<point x="71" y="52"/>
			<point x="157.667" y="-13"/>
			<point x="283" y="-13" type="curve" smooth="yes"/>
			<point x="444.667" y="-13"/>
			<point x="543.667" y="90.667"/>
			<point x="573.667" y="254.333" type="curve" smooth="yes"/>
			<point x="618.667" y="496.333" type="line" smooth="yes"/>
			<point x="623.667" y="521.333"/>
			<point x="625.333" y="543.333"/>
			<point x="625.333" y="563.333" type="curve" smooth="yes"/>
			<point x="625.333" y="681"/>
			<point x="543.333" y="752"/>
			<point x="418" y="752" type="curve" smooth="yes"/>
			<point x="258.667" y="752"/>
			<point x="151.667" y="649.333"/>
			<point x="122.333" y="491.667" type="curve" smooth="yes"/>
			<point x="78.667" y="254.333" type="line" smooth="yes"/>
			<point x="73.333" y="226"/>
			<point x="71" y="201.333"/>
		</contour>
		<contour>
			<point x="186.333" y="201.667" type="curve" smooth="yes"/>
			<point x="186.333" y="219"/>
			<point x="188.667" y="238.667"/>
			<point x="193" y="261" type="curve" smooth="yes"/>
			<point x="234.333" y="486" type="line" smooth="yes"/>
			<point x="251.667" y="581"/>
			<point x="305.333" y="648.333"/>
			<point x="400.333" y="648.333" type="curve" smooth="yes"/>
			<point x="468.667" y="648.333"/>
			<point x="509.333" y="610"/>
			<point x="509.333" y="541.667" type="curve" smooth="yes"/>
			<point x="509.333" y="525.667"/>
			<point x="507.667" y="507.667"/>
			<point x="503.333" y="486" type="curve" smooth="yes"/>
			<point x="461.333" y="259" type="line" smooth="yes"/>
			<point x="442.667" y="156"/>
			<point x="396.333" y="90.667"/>
			<point x="298" y="90.667" type="curve" smooth="yes"/>
			<point x="225.333" y="90.667"/>
			<point x="186.333" y="130"/>
		</contour>
	</outline>
</glyph>
<glyph name="one" format="2">
	<unicode hex="0031"/>
	<advance width="558"/>
	<outline>
		<contour>
			<point x="252.333" y="0" type="line"/>
			<point x="365.333" y="0" type="line"/>
			<point x="502.333" y="739" type="line"/>
			<point x="285.333" y="739" type="line"/>
			<point x="266" y="633.333" type="line"/>
			<point x="370" y="633.333" type="line"/>
		</contour>
	</outline>
</glyph>
<glyph name="two" format="2">
	<unicode hex="0032"/>
	<advance width="558"/>
	<outline>
		<contour>
			<point x="38.333" y="0" type="line"/>
			<point x="513.333" y="0" type="line"/>
			<point x="532.667" y="105.667" type="line"/>
			<point x="215.667" y="105.667" type="line"/>
			<point x="426.667" y="272.667" type="line" smooth="yes"/>
			<point x="525.333" y="350"/>
			<point x="616.667" y="429.667"/>
			<point x="616.667" y="564" type="curve" smooth="yes"/>
			<point x="616.667" y="675"/>
			<point x="537.667" y="752"/>
			<point x="417.333" y="752" type="curve" smooth="yes"/>
			<point x="256" y="752"/>
			<point x="155.667" y="636.667"/>
			<point x="128" y="489.333" type="curve"/>
			<point x="239.667" y="489.333" type="line"/>
			<point x="256.333" y="581.667"/>
			<point x="315" y="648.333"/>
			<point x="399" y="648.333" type="curve" smooth="yes"/>
			<point x="461.667" y="648.333"/>
			<point x="502.333" y="606.333"/>
			<point x="502.333" y="546.667" type="curve" smooth="yes"/>
			<point x="502.333" y="476.333"/>
			<point x="446.333" y="415.333"/>
			<point x="395" y="374.333" type="curve" smooth="yes"/>
			<point x="57" y="100.333" type="line"/>
		</contour>
	</outline>
</glyph>
<glyph name="three" format="2">
	<unicode hex="0033"/>
	<advance width="558"/>
	<outline>
		<contour>
			<point x="68" y="226.333" type="line"/>
			<point x="65.667" y="211.333"/>
			<point x="64.333" y="197.667"/>
			<point x="64.333" y="184.667" type="curve" smooth="yes"/>
			<point x="64.333" y="66.333"/>
			<point x="148.333" y="-13"/>
			<point x="273.667" y="-13" type="curve" smooth="yes"/>
			<point x="432" y="-13"/>
			<point x="566" y="124.333"/>
			<point x="566" y="281.333" type="curve" smooth="yes"/>
			<point x="566" y="347"/>
			<point x="537" y="395"/>
			<point x="478.333" y="425" type="curve"/>
			<point x="541" y="464.333"/>
			<point x="573.333" y="524.333"/>
			<point x="573.333" y="597" type="curve" smooth="yes"/>
			<point x="573.333" y="688.333"/>
			<point x="509.333" y="752"/>
			<point x="410.667" y="752" type="curve" smooth="yes"/>
			<point x="295.667" y="752"/>
			<point x="209.667" y="673.333"/>
			<point x="182.333" y="560.333" type="curve"/>
			<point x="296.667" y="560.333" type="line"/>
			<point x="312" y="618.667"/>
			<point x="344" y="648.333"/>
			<point x="392.667" y="648.333" type="curve" smooth="yes"/>
			<point x="433.667" y="648.333"/>
			<point x="459" y="621.667"/>
			<point x="459" y="582.333" type="curve" smooth="yes"/>
			<point x="459" y="506"/>
			<point x="395.333" y="473.333"/>
			<point x="328.333" y="473.333" type="curve" smooth="yes"/>
			<point x="311" y="473.333" type="line"/>
			<point x="291" y="366.667" type="line"/>
			<point x="309.667" y="366.667" type="line" smooth="yes"/>
			<point x="391.667" y="366.667"/>
			<point x="449.333" y="334.333"/>
			<point x="449.333" y="255.333" type="curve" smooth="yes"/>
			<point x="449.333" y="169.667"/>
			<point x="378.333" y="90.667"/>
			<point x="290.667" y="90.667" type="curve" smooth="yes"/>
			<point x="222.667" y="90.667"/>
			<point x="180" y="136.333"/>
			<point x="180" y="197.667" type="curve" smooth="yes"/>
			<point x="180" y="205.333"/>
			<point x="181" y="216"/>
			<point x="182.333" y="226.333" type="curve"/>
		</contour>
	</outline>
</glyph>
<glyph name="four" format="2">
	<unicode hex="0034"/>
	<advance width="558"/>
	<outline>
		<contour>
			<point x="33" y="119" type="line"/>
			<point x="370.333" y="119" type="line"/>
			<point x="348" y="0" type="line"/>
			<point x="461" y="0" type="line"/>
			<point x="483.333" y="119" type="line"/>
			<point x="558" y="119" type="line"/>
			<point x="576.667" y="220.667" type="line"/>
			<point x="502" y="220.667" type="line"/>
			<point x="598" y="739" type="line"/>
			<point x="494.333" y="739" type="line"/>
			<point x="50.333" y="213.333" type="line"/>
		</contour>
		<contour>
			<point x="170" y="220.667" type="line"/>
			<point x="450.667" y="555.667" type="line"/>
			<point x="389" y="220.667" type="line"/>
		</contour>
	</outline>
</glyph>
<glyph name="five" format="2">
	<unicode hex="0035"/>
	<advance width="558"/>
	<outline>
		<contour>
			<point x="64.333" y="224.667" type="line"/>
			<point x="63.333" y="213"/>
			<point x="62.667" y="201.667"/>
			<point x="62.667" y="191.667" type="curve" smooth="yes"/>
			<point x="62.667" y="73.333"/>
			<point x="150.333" y="-13"/>
			<point x="276.667" y="-13" type="curve" smooth="yes"/>
			<point x="444" y="-13"/>
			<point x="579.333" y="138"/>
			<point x="579.333" y="300.667" type="curve" smooth="yes"/>
			<point x="579.333" y="417.667"/>
			<point x="501.667" y="500.333"/>
			<point x="383.333" y="500.333" type="curve" smooth="yes"/>
			<point x="346" y="500.333"/>
			<point x="317.667" y="493.667"/>
			<point x="273.667" y="474.667" type="curve"/>
			<point x="331" y="633.333" type="line"/>
			<point x="578.333" y="633.333" type="line"/>
			<point x="597.667" y="739" type="line"/>
			<point x="264" y="739" type="line"/>
			<point x="125.667" y="360.333" type="line"/>
			<point x="217.667" y="331.667" type="line"/>
			<point x="263.333" y="377.667"/>
			<point x="302.667" y="396.667"/>
			<point x="350" y="396.667" type="curve" smooth="yes"/>
			<point x="419.333" y="396.667"/>
			<point x="463.667" y="347.333"/>
			<point x="463.667" y="278" type="curve" smooth="yes"/>
			<point x="463.667" y="184.667"/>
			<point x="390.333" y="90.667"/>
			<point x="291.667" y="90.667" type="curve" smooth="yes"/>
			<point x="222.667" y="90.667"/>
			<point x="176" y="132.333"/>
			<point x="176" y="207.333" type="curve" smooth="yes"/>
			<point x="176" y="213"/>
			<point x="176" y="218.333"/>
			<point x="177" y="224.667" type="curve"/>
		</contour>
	</outline>
</glyph>
<glyph name="six" format="2">
	<unicode hex="0036"/>
	<advance width="558"/>
	<outline>
		<contour>
			<point x="64.333" y="191.333" type="curve" smooth="yes"/>
			<point x="64.333" y="71.333"/>
			<point x="150" y="-13"/>
			<point x="280" y="-13" type="curve" smooth="yes"/>
			<point x="451.667" y="-13"/>
			<point x="585.333" y="138.333"/>
			<point x="585.333" y="304.667" type="curve" smooth="yes"/>
			<point x="585.333" y="415"/>
			<point x="516" y="491.667"/>
			<point x="410" y="491.667" type="curve" smooth="yes"/>
			<point x="383.667" y="491.667"/>
			<point x="366.667" y="488.667"/>
			<point x="338.667" y="478" type="curve"/>
			<point x="563.333" y="739" type="line"/>
			<point x="429" y="739" type="line"/>
			<point x="186.667" y="455" type="line" smooth="yes"/>
			<point x="119.333" y="377"/>
			<point x="64.333" y="298"/>
		</contour>
		<contour>
			<point x="179.667" y="209" type="curve" smooth="yes"/>
			<point x="179.667" y="301.667"/>
			<point x="252.667" y="392"/>
			<point x="349.667" y="392" type="curve" smooth="yes"/>
			<point x="423.667" y="392"/>
			<point x="468.333" y="345.333"/>
			<point x="468.333" y="275" type="curve" smooth="yes"/>
			<point x="468.333" y="181.667"/>
			<point x="397" y="90.667"/>
			<point x="299" y="90.667" type="curve" smooth="yes"/>
			<point x="225.667" y="90.667"/>
			<point x="179.667" y="138.667"/>
		</contour>
	</outline>
</glyph>
<glyph name="seven" format="2">
	<unicode hex="0037"/>
	<advance width="558"/>
	<outline>
		<contour>
			<point x="90" y="0" type="line"/>
			<point x="216" y="0" type="line"/>
			<point x="614.333" y="633.333" type="line"/>
			<point x="633.667" y="739" type="line"/>
			<point x="201.667" y="739" type="line"/>
			<point x="182.333" y="633.333" type="line"/>
			<point x="495.667" y="633.333" type="line"/>
		</contour>
	</outline>
</glyph>
<glyph name="eight" format="2">
	<unicode hex="0038"/>
	<advance width="558"/>
	<outline>
		<contour>
			<point x="74" y="180" type="curve" smooth="yes"/>
			<point x="74" y="68"/>
			<point x="156" y="-13"/>
			<point x="278.667" y="-13" type="curve" smooth="yes"/>
			<point x="432.667" y="-13"/>
			<point x="567.667" y="118.333"/>
			<point x="567.667" y="272.333" type="curve" smooth="yes"/>
			<point x="567.667" y="339.667"/>
			<point x="542" y="378.333"/>
			<point x="486" y="411.667" type="curve"/>
			<point x="552" y="451"/>
			<point x="587" y="518.667"/>
			<point x="587" y="594.333" type="curve" smooth="yes"/>
			<point x="587" y="687.333"/>
			<point x="521" y="752"/>
			<point x="419.667" y="752" type="curve" smooth="yes"/>
			<point x="294" y="752"/>
			<point x="178.667" y="642.333"/>
			<point x="178.667" y="516" type="curve" smooth="yes"/>
			<point x="178.667" y="474.667"/>
			<point x="192" y="446"/>
			<point x="225.333" y="411.667" type="curve"/>
			<point x="132.667" y="368"/>
			<point x="74" y="283"/>
		</contour>
		<contour>
			<point x="188.667" y="195.667" type="curve" smooth="yes"/>
			<point x="188.667" y="277.333"/>
			<point x="260.333" y="352.333"/>
			<point x="343" y="352.333" type="curve" smooth="yes"/>
			<point x="408.667" y="352.333"/>
			<point x="451.667" y="309.667"/>
			<point x="451.667" y="248.667" type="curve" smooth="yes"/>
			<point x="451.667" y="165.667"/>
			<point x="382.333" y="90.667"/>
			<point x="297.667" y="90.667" type="curve" smooth="yes"/>
			<point x="231.667" y="90.667"/>
			<point x="188.667" y="134.667"/>
		</contour>
		<contour>
			<point x="366.667" y="460.667" type="curve" smooth="yes"/>
			<point x="321" y="460.667"/>
			<point x="290" y="492"/>
			<point x="290" y="536" type="curve" smooth="yes"/>
			<point x="290" y="594"/>
			<point x="339.667" y="648.333"/>
			<point x="399.333" y="648.333" type="curve" smooth="yes"/>
			<point x="446.333" y="648.333"/>
			<point x="476" y="618.667"/>
			<point x="476" y="575" type="curve" smooth="yes"/>
			<point x="476" y="517"/>
			<point x="426" y="460.667"/>
		</contour>
	</outline>
</glyph>
<glyph name="nine" format="2">
	<unicode hex="0039"/>
	<advance width="558"/>
	<outline>
		<contour>
			<point x="131" y="0" type="line"/>
			<point x="265.333" y="0" type="line"/>
			<point x="507.667" y="284" type="line" smooth="yes"/>
			<point x="574.333" y="362"/>
			<point x="630" y="441"/>
			<point x="630" y="547" type="curve" smooth="yes"/>
			<point x="630" y="667"/>
			<point x="544.333" y="752"/>
			<point x="414.333" y="752" type="curve" smooth="yes"/>
			<point x="244" y="752"/>
			<point x="110.333" y="600.667"/>
			<point x="110.333" y="435" type="curve" smooth="yes"/>
			<point x="110.333" y="324.667"/>
			<point x="179.667" y="246"/>
			<point x="285" y="246" type="curve" smooth="yes"/>
			<point x="310.667" y="246"/>
			<point x="327" y="249.667"/>
			<point x="356.333" y="261" type="curve"/>
		</contour>
		<contour>
			<point x="343.333" y="347" type="curve" smooth="yes"/>
			<point x="272.333" y="347"/>
			<point x="227.333" y="394.333"/>
			<point x="227.333" y="464.333" type="curve" smooth="yes"/>
			<point x="227.333" y="555.667"/>
			<point x="296.667" y="648.333"/>
			<point x="393.667" y="648.333" type="curve" smooth="yes"/>
			<point x="468.333" y="648.333"/>
			<point x="514.667" y="601"/>
			<point x="514.667" y="530.667" type="curve" smooth="yes"/>
			<point x="514.667" y="436.667"/>
			<point x="442.333" y="347"/>
		</contour>
	</outline>
</glyph>
<glyph name="colon" format="2">
	<unicode hex="003A"/>
	<advance width="280"/>
	<outline>
		<contour>
			<point x="83" y="0" type="line"/>
			<point x="196.333" y="0" type="line"/>
			<point x="220" y="127.333" type="line"/>
			<point x="106.667" y="127.333" type="line"/>
		</contour>
		<contour>
			<point x="152" y="373" type="line"/>
			<point x="265.333" y="373" type="line"/>
			<point x="289.667" y="503.667" type="line"/>
			<point x="176.333" y="503.667" type="line"/>
		</contour>
	</outline>
</glyph>
<glyph name="semicolon" format="2">
	<unicode hex="003B"/>
	<advance width="280"/>
	<outline>
		<component base="comma" xOffset="20"/>
		<contour>
			<point x="160" y="373" type="line"/>
			<point x="273.333" y="373" type="line"/>
			<point x="297.667" y="503.667" type="line"/>
			<point x="184.333" y="503.667" type="line"/>
		</contour>
	</outline>
</glyph>
<glyph name="less" format="2">
	<unicode hex="003C"/>
	<advance width="602"/>
	<outline>
		<contour>
			<point x="94.333" y="261.333" type="line"/>
			<point x="561" y="34.333" type="line"/>
			<point x="580.333" y="137.667" type="line"/>
			<point x="250.333" y="305.333" type="line"/>
			<point x="642" y="472.333" type="line"/>
			<point x="661.667" y="576.333" type="line"/>
			<point x="110.333" y="348.333" type="line"/>
		</contour>
	</outline>
</glyph>
<glyph name="equal" format="2">
	<unicode hex="003D"/>
	<advance width="602"/>
	<outline>
		<contour>
			<point x="121.333" y="390.667" type="line"/>
			<point x="625.333" y="390.667" type="line"/>
			<point x="644.667" y="494" type="line"/>
			<point x="140.667" y="494" type="line"/>
		</contour>
		<contour>
			<point x="85" y="194.667" type="line"/>
			<point x="589" y="194.667" type="line"/>
			<point x="608.333" y="298" type="line"/>
			<point x="104.333" y="298" type="line"/>
		</contour>
	</outline>
</glyph>
<glyph name="greater" format="2">
	<unicode hex="003E"/>
	<advance width="602"/>
	<outline>
		<contour>
			<point x="53.667" y="34.333" type="line"/>
			<point x="605" y="261.667" type="line"/>
			<point x="621" y="348.667" type="line"/>
			<point x="154.333" y="576.333" type="line"/>
			<point x="134.667" y="472.333" type="line"/>
			<point x="466" y="304.667" type="line"/>
			<point x="73" y="137.667" type="line"/>
		</contour>
	</outline>
</glyph>
<glyph name="question" format="2">
	<unicode hex="003F"/>
	<advance width="543"/>
	<outline>
		<contour>
			<point x="357.667" y="189" type="line"/>
			<point x="372.667" y="268"/>
			<point x="393.667" y="297"/>
			<point x="465" y="351" type="curve" smooth="yes"/>
			<point x="546.667" y="412"/>
			<point x="599.333" y="467.667"/>
			<point x="599.333" y="572.667" type="curve" smooth="yes"/>
			<point x="599.333" y="678.333"/>
			<point x="525" y="752"/>
			<point x="411.333" y="752" type="curve" smooth="yes"/>
			<point x="266" y="752"/>
			<point x="170" y="648.667"/>
			<point x="137.667" y="516" type="curve"/>
			<point x="249.667" y="516" type="line"/>
			<point x="273.333" y="594.333"/>
			<point x="314.667" y="641.667"/>
			<point x="389.333" y="641.667" type="curve" smooth="yes"/>
			<point x="447" y="641.667"/>
			<point x="484.333" y="605.667"/>
			<point x="484.333" y="553" type="curve" smooth="yes"/>
			<point x="484.333" y="500"/>
			<point x="449.333" y="460"/>
			<point x="405.667" y="427" type="curve" smooth="yes"/>
			<point x="299.333" y="349.333"/>
			<point x="266.333" y="299"/>
			<point x="245.667" y="189" type="curve"/>
		</contour>
		<contour>
			<point x="209.667" y="0" type="line"/>
			<point x="323" y="0" type="line"/>
			<point x="346.667" y="127.333" type="line"/>
			<point x="233.333" y="127.333" type="line"/>
		</contour>
	</outline>
</glyph>
<glyph name="at" format="2">
	<unicode hex="0040"/>
	<advance width="832"/>
	<outline>
		<contour>
			<point x="639.667" y="117.333" type="line"/>
			<point x="580.667" y="73.333"/>
			<point x="519.667" y="52.333"/>
			<point x="450" y="52.333" type="curve" smooth="yes"/>
			<point x="289.667" y="52.333"/>
			<point x="175.667" y="150.667"/>
			<point x="175.667" y="312" type="curve" smooth="yes"/>
			<point x="175.667" y="515.667"/>
			<point x="358.333" y="696.333"/>
			<point x="562" y="696.333" type="curve" smooth="yes"/>
			<point x="709.333" y="696.333"/>
			<point x="802" y="608"/>
			<point x="802" y="476.667" type="curve" smooth="yes"/>
			<point x="802" y="392.333"/>
			<point x="734.667" y="221.667"/>
			<point x="637" y="221.667" type="curve" smooth="yes"/>
			<point x="620.667" y="221.667"/>
			<point x="612.333" y="228"/>
			<point x="612.333" y="241.333" type="curve" smooth="yes"/>
			<point x="612.333" y="252.333"/>
			<point x="614.333" y="263"/>
			<point x="620.333" y="276.667" type="curve"/>
			<point x="733.333" y="573.333" type="line"/>
			<point x="649" y="573.333" type="line"/>
			<point x="629" y="520.667" type="line"/>
			<point x="608" y="567"/>
			<point x="577.333" y="582.333"/>
			<point x="523.667" y="582.333" type="curve" smooth="yes"/>
			<point x="379.333" y="582.333"/>
			<point x="256" y="418.667"/>
			<point x="256" y="282" type="curve" smooth="yes"/>
			<point x="256" y="201"/>
			<point x="303.333" y="150.667"/>
			<point x="384" y="150.667" type="curve" smooth="yes"/>
			<point x="435.667" y="150.667"/>
			<point x="472.667" y="167"/>
			<point x="508.667" y="204" type="curve"/>
			<point x="515.333" y="166.333"/>
			<point x="543" y="149"/>
			<point x="594" y="149" type="curve" smooth="yes"/>
			<point x="767.667" y="149"/>
			<point x="868.333" y="338"/>
			<point x="868.333" y="491" type="curve" smooth="yes"/>
			<point x="868.333" y="661.333"/>
			<point x="739" y="761.333"/>
			<point x="571.667" y="761.333" type="curve" smooth="yes"/>
			<point x="327" y="761.333"/>
			<point x="110" y="543.333"/>
			<point x="110" y="299" type="curve" smooth="yes"/>
			<point x="110" y="109.333"/>
			<point x="243" y="-13"/>
			<point x="436.333" y="-13" type="curve" smooth="yes"/>
			<point x="529.333" y="-13"/>
			<point x="606.333" y="13.333"/>
			<point x="674" y="66.333" type="curve"/>
		</contour>
		<contour>
			<point x="427.333" y="240.667" type="curve" smooth="yes"/>
			<point x="386.333" y="240.667"/>
			<point x="363" y="266.333"/>
			<point x="363" y="309" type="curve" smooth="yes"/>
			<point x="363" y="385"/>
			<point x="438" y="489.667"/>
			<point x="519" y="489.667" type="curve" smooth="yes"/>
			<point x="560" y="489.667"/>
			<point x="582.333" y="467"/>
			<point x="582.333" y="427.333" type="curve" smooth="yes"/>
			<point x="582.333" y="352.333"/>
			<point x="507.667" y="240.667"/>
		</contour>
	</outline>
</glyph>
<glyph name="A" format="2">
	<unicode hex="0041"/>
	<advance width="740"/>
	<outline>
		<contour>
			<point x="8.333" y="0" type="line"/>
			<point x="135" y="0" type="line"/>
			<point x="264.333" y="210.333" type="line"/>
			<point x="554.333" y="210.333" type="line"/>
			<point x="604" y="0" type="line"/>
			<point x="731.667" y="0" type="line"/>
			<point x="556" y="739" type="line"/>
			<point x="456.333" y="739" type="line"/>
		</contour>
		<contour>
			<point x="328" y="320" type="line"/>
			<point x="477" y="582.333" type="line"/>
			<point x="529" y="320" type="line"/>
		</contour>
	</outline>
</glyph>
<glyph name="B" format="2">
	<unicode hex="0042"/>
	<advance width="583"/>
	<outline>
		<contour>
			<point x="72.667" y="0" type="line"/>
			<point x="265" y="0" type="line" smooth="yes"/>
			<point x="470" y="0"/>
			<point x="593.333" y="99.333"/>
			<point x="593.333" y="263.667" type="curve" smooth="yes"/>
			<point x="593.333" y="331"/>
			<point x="566" y="369.667"/>
			<point x="497.667" y="400" type="curve"/>
			<point x="570.667" y="435.667"/>
			<point x="610" y="500.333"/>
			<point x="610" y="584.667" type="curve" smooth="yes"/>
			<point x="610" y="692"/>
			<point x="536.667" y="739"/>
			<point x="368.667" y="739" type="curve" smooth="yes"/>
			<point x="209.667" y="739" type="line"/>
		</contour>
		<contour>
			<point x="208.667" y="109.667" type="line"/>
			<point x="250" y="331.333" type="line"/>
			<point x="322.667" y="331.333" type="line" smooth="yes"/>
			<point x="429.333" y="331.333"/>
			<point x="475" y="304.667"/>
			<point x="475" y="243.667" type="curve" smooth="yes"/>
			<point x="475" y="154.667"/>
			<point x="412.333" y="109.667"/>
			<point x="287.667" y="109.667" type="curve" smooth="yes"/>
		</contour>
		<contour>
			<point x="270.667" y="443" type="line"/>
			<point x="305" y="627.333" type="line"/>
			<point x="372" y="627.333" type="line" smooth="yes"/>
			<point x="454.667" y="627.333"/>
			<point x="490.333" y="606"/>
			<point x="490.333" y="556.667" type="curve" smooth="yes"/>
			<point x="490.333" y="480.333"/>
			<point x="437.667" y="443"/>
			<point x="330" y="443" type="curve" smooth="yes"/>
		</contour>
	</outline>
</glyph>
<glyph name="C" format="2">
	<unicode hex="0043"/>
	<advance width="806"/>
	<outline>
		<contour>
			<point x="670" y="202" type="line"/>
			<point x="607" y="123.667"/>
			<point x="540.667" y="97.667"/>
			<point x="443" y="97.667" type="curve" smooth="yes"/>
			<point x="314.333" y="97.667"/>
			<point x="219.333" y="192.667"/>
			<point x="219.333" y="320.667" type="curve" smooth="yes"/>
			<point x="219.333" y="508.333"/>
			<point x="347" y="641.333"/>
			<point x="525.667" y="641.333" type="curve" smooth="yes"/>
			<point x="625.667" y="641.333"/>
			<point x="699.333" y="604"/>
			<point x="735.667" y="533.667" type="curve"/>
			<point x="865.333" y="533.667" type="line"/>
			<point x="829.667" y="667.333"/>
			<point x="704" y="752"/>
			<point x="542.667" y="752" type="curve" smooth="yes"/>
			<point x="289" y="752"/>
			<point x="100.333" y="559.333"/>
			<point x="100.333" y="298.667" type="curve" smooth="yes"/>
			<point x="100.333" y="116"/>
			<point x="235.333" y="-13"/>
			<point x="425.333" y="-13" type="curve" smooth="yes"/>
			<point x="594.333" y="-13"/>
			<point x="706.333" y="50.333"/>
			<point x="804.667" y="202" type="curve"/>
		</contour>
	</outline>
</glyph>
<glyph name="D" format="2">
	<unicode hex="0044"/>
	<advance width="714"/>
	<outline>
		<contour>
			<point x="72.667" y="0" type="line"/>
			<point x="253.667" y="0" type="line" smooth="yes"/>
			<point x="362" y="0"/>
			<point x="433" y="12.667"/>
			<point x="499" y="42.333" type="curve" smooth="yes"/>
			<point x="626.333" y="100.333"/>
			<point x="716" y="218.667"/>
			<point x="743.333" y="367.667" type="curve" smooth="yes"/>
			<point x="748.333" y="397.333"/>
			<point x="751.333" y="425"/>
			<point x="751.333" y="451.667" type="curve" smooth="yes"/>
			<point x="751.333" y="549.333"/>
			<point x="715.333" y="629.333"/>
			<point x="645.667" y="679.333" type="curve" smooth="yes"/>
			<point x="589.333" y="720.667"/>
			<point x="507" y="739"/>
			<point x="380.333" y="739" type="curve" smooth="yes"/>
			<point x="209.667" y="739" type="line"/>
		</contour>
		<contour>
			<point x="208.667" y="109.667" type="line"/>
			<point x="305.667" y="629.333" type="line"/>
			<point x="358" y="629.333" type="line" smooth="yes"/>
			<point x="450.667" y="629.333"/>
			<point x="502" y="620.333"/>
			<point x="543.333" y="596.667" type="curve" smooth="yes"/>
			<point x="600.667" y="564"/>
			<point x="632" y="502"/>
			<point x="632" y="425.667" type="curve" smooth="yes"/>
			<point x="632" y="407.667"/>
			<point x="630" y="388.667"/>
			<point x="626.667" y="368.667" type="curve" smooth="yes"/>
			<point x="610.333" y="278"/>
			<point x="555.667" y="197.667"/>
			<point x="482.333" y="155.333" type="curve" smooth="yes"/>
			<point x="429.333" y="123.667"/>
			<point x="362.667" y="109.667"/>
			<point x="263" y="109.667" type="curve" smooth="yes"/>
		</contour>
	</outline>
</glyph>
<glyph name="F" format="2">
	<unicode hex="0046"/>
	<advance width="492"/>
	<outline>
		<contour>
			<point x="72.667" y="0" type="line"/>
			<point x="188.667" y="0" type="line"/>
			<point x="247" y="314.667" type="line"/>
			<point x="495.667" y="314.667" type="line"/>
			<point x="515.667" y="424.333" type="line"/>
			<point x="267" y="424.333" type="line"/>
			<point x="305.667" y="629.333" type="line"/>
			<point x="565.333" y="629.333" type="line"/>
			<point x="585.333" y="739" type="line"/>
			<point x="209.667" y="739" type="line"/>
		</contour>
	</outline>
</glyph>
<glyph name="G" format="2">
	<unicode hex="0047"/>
	<advance width="862"/>
	<outline>
		<contour>
			<point x="384.667" y="257.333" type="line"/>
			<point x="726.333" y="257.333" type="line"/>
			<point x="671" y="159.667"/>
			<point x="564" y="97.667"/>
			<point x="452.333" y="97.667" type="curve" smooth="yes"/>
			<point x="313.333" y="97.667"/>
			<point x="219.333" y="189.667"/>
			<point x="219.333" y="317.667" type="curve" smooth="yes"/>
			<point x="219.333" y="493"/>
			<point x="374" y="641.333"/>
			<point x="547.667" y="641.333" type="curve" smooth="yes"/>
			<point x="643" y="641.333"/>
			<point x="715" y="601.333"/>
			<point x="749" y="528.667" type="curve"/>
			<point x="884" y="528.667" type="line"/>
			<point x="860" y="660"/>
			<point x="728.667" y="752"/>
			<point x="567.667" y="752" type="curve" smooth="yes"/>
			<point x="327" y="752"/>
			<point x="100.667" y="543.667"/>
			<point x="100.667" y="300" type="curve" smooth="yes"/>
			<point x="100.667" y="119"/>
			<point x="237.667" y="-13"/>
			<point x="438.667" y="-13" type="curve" smooth="yes"/>
			<point x="657" y="-13"/>
			<point x="853" y="151.333"/>
			<point x="894" y="365" type="curve"/>
			<point x="404.667" y="365" type="line"/>
		</contour>
	</outline>
</glyph>
<glyph name="H" format="2">
	<unicode hex="0048"/>
	<advance width="681"/>
	<outline>
		<contour>
			<point x="72.667" y="0" type="line"/>
			<point x="188.667" y="0" type="line"/>
			<point x="248" y="322.333" type="line"/>
			<point x="551.667" y="322.333" type="line"/>
			<point x="492.333" y="0" type="line"/>
			<point x="608.333" y="0" type="line"/>
			<point x="745.333" y="739" type="line"/>
			<point x="629.333" y="739" type="line"/>
			<point x="572.667" y="432" type="line"/>
			<point x="269" y="432" type="line"/>
			<point x="325.667" y="739" type="line"/>
			<point x="209.667" y="739" type="line"/>
		</contour>
	</outline>
</glyph>
<glyph name="I" format="2">
	<unicode hex="0049"/>
	<advance width="261"/>
	<outline>
		<contour>
			<point x="72.667" y="0" type="line"/>
			<point x="188.667" y="0" type="line"/>
			<point x="325.667" y="739" type="line"/>
			<point x="209.667" y="739" type="line"/>
		</contour>
	</outline>
</glyph>
<glyph name="J" format="2">
	<unicode hex="004A"/>
	<advance width="490"/>
	<outline>
		<contour>
			<point x="47.667" y="175" type="line"/>
			<point x="45.667" y="161.667"/>
			<point x="45.667" y="150"/>
			<point x="45.667" y="139" type="curve" smooth="yes"/>
			<point x="45.667" y="42.667"/>
			<point x="120" y="-13.333"/>
			<point x="216" y="-13.333" type="curve" smooth="yes"/>
			<point x="341.333" y="-13.333"/>
			<point x="430.667" y="72.667"/>
			<point x="457.667" y="218.333" type="curve" smooth="yes"/>
			<point x="554.333" y="739" type="line"/>
			<point x="438.333" y="739" type="line"/>
			<point x="342.333" y="221" type="line" smooth="yes"/>
			<point x="327" y="138.667"/>
			<point x="290.667" y="97.333"/>
			<point x="234.667" y="97.333" type="curve" smooth="yes"/>
			<point x="192.667" y="97.333"/>
			<point x="162.333" y="119.333"/>
			<point x="162.333" y="160.333" type="curve" smooth="yes"/>
			<point x="162.333" y="165"/>
			<point x="162.333" y="170"/>
			<point x="163.333" y="175" type="curve"/>
		</contour>
	</outline>
</glyph>
<glyph name="K" format="2">
	<unicode hex="004B"/>
	<advance width="606"/>
	<outline>
		<contour>
			<point x="72.667" y="0" type="line"/>
			<point x="188.667" y="0" type="line"/>
			<point x="228.333" y="216.667" type="line"/>
			<point x="298.333" y="288" type="line"/>
			<point x="455.333" y="0" type="line"/>
			<point x="596.333" y="0" type="line"/>
			<point x="383.667" y="377" type="line"/>
			<point x="733.333" y="739" type="line"/>
			<point x="592.333" y="739" type="line"/>
			<point x="260" y="384.667" type="line"/>
			<point x="325.667" y="739" type="line"/>
			<point x="209.667" y="739" type="line"/>
		</contour>
	</outline>
</glyph>
<glyph name="L" format="2">
	<unicode hex="004C"/>
	<advance width="457"/>
	<outline>
		<contour>
			<point x="72.667" y="0" type="line"/>
			<point x="441.333" y="0" type="line"/>
			<point x="461.333" y="109.667" type="line"/>
			<point x="208.667" y="109.667" type="line"/>
			<point x="325.667" y="739" type="line"/>
			<point x="209.667" y="739" type="line"/>
		</contour>
	</outline>
</glyph>
<glyph name="M" format="2">
	<unicode hex="004D"/>
	<advance width="916"/>
	<outline>
		<contour>
			<point x="72.667" y="0" type="line"/>
			<point x="188.667" y="0" type="line"/>
			<point x="298" y="588.667" type="line"/>
			<point x="409.667" y="0" type="line"/>
			<point x="505.667" y="0" type="line"/>
			<point x="836.333" y="588.667" type="line"/>
			<point x="727" y="0" type="line"/>
			<point x="843" y="0" type="line"/>
			<point x="980" y="739" type="line"/>
			<point x="816.333" y="739" type="line"/>
			<point x="487.333" y="156" type="line"/>
			<point x="373.333" y="739" type="line"/>
			<point x="209.667" y="739" type="line"/>
		</contour>
	</outline>
</glyph>
<glyph name="N" format="2">
	<unicode hex="004E"/>
	<advance width="741"/>
	<outline>
		<contour>
			<point x="72.667" y="0" type="line"/>
			<point x="188.667" y="0" type="line"/>
			<point x="295.333" y="574.667" type="line"/>
			<point x="541.333" y="0" type="line"/>
			<point x="668" y="0" type="line"/>
			<point x="805" y="739" type="line"/>
			<point x="689" y="739" type="line"/>
			<point x="584.333" y="176" type="line"/>
			<point x="347" y="739" type="line"/>
			<point x="209.667" y="739" type="line"/>
		</contour>
	</outline>
</glyph>
<glyph name="O" format="2">
	<unicode hex="004F"/>
	<advance width="851"/>
	<outline>
		<contour>
			<point x="100.667" y="299.333" type="curve" smooth="yes"/>
			<point x="100.667" y="120.667"/>
			<point x="234.667" y="-13"/>
			<point x="426.333" y="-13" type="curve" smooth="yes"/>
			<point x="685" y="-13"/>
			<point x="887.333" y="180.333"/>
			<point x="887.333" y="439.667" type="curve" smooth="yes"/>
			<point x="887.333" y="617"/>
			<point x="756.333" y="752"/>
			<point x="570.333" y="752" type="curve" smooth="yes"/>
			<point x="305" y="752"/>
			<point x="100.667" y="566"/>
		</contour>
		<contour>
			<point x="219.333" y="319" type="curve" smooth="yes"/>
			<point x="219.333" y="501.667"/>
			<point x="359" y="641.333"/>
			<point x="541.333" y="641.333" type="curve" smooth="yes"/>
			<point x="677.667" y="641.333"/>
			<point x="768.667" y="549"/>
			<point x="768.667" y="421.333" type="curve" smooth="yes"/>
			<point x="768.667" y="238"/>
			<point x="630" y="97.667"/>
			<point x="445.667" y="97.667" type="curve" smooth="yes"/>
			<point x="311.667" y="97.667"/>
			<point x="219.333" y="192.333"/>
		</contour>
	</outline>
</glyph>
<glyph name="P" format="2">
	<unicode hex="0050"/>
	<advance width="579"/>
	<outline>
		<contour>
			<point x="72.667" y="0" type="line"/>
			<point x="188.667" y="0" type="line"/>
			<point x="241.667" y="287" type="line"/>
			<point x="318.333" y="287" type="line" smooth="yes"/>
			<point x="419" y="287"/>
			<point x="470.667" y="296.667"/>
			<point x="517" y="322.333" type="curve" smooth="yes"/>
			<point x="582.333" y="358"/>
			<point x="630" y="429"/>
			<point x="645.333" y="512.333" type="curve" smooth="yes"/>
			<point x="648.667" y="530.667"/>
			<point x="650.667" y="548.333"/>
			<point x="650.667" y="564.667" type="curve" smooth="yes"/>
			<point x="650.667" y="624.333"/>
			<point x="629.333" y="671.333"/>
			<point x="588.333" y="700.667" type="curve" smooth="yes"/>
			<point x="548.667" y="728.667"/>
			<point x="498.667" y="739"/>
			<point x="399.667" y="739" type="curve" smooth="yes"/>
			<point x="209.667" y="739" type="line"/>
		</contour>
		<contour>
			<point x="262" y="396.667" type="line"/>
			<point x="305.667" y="629.333" type="line"/>
			<point x="371.333" y="629.333" type="line" smooth="yes"/>
			<point x="425.667" y="629.333"/>
			<point x="454" y="626.333"/>
			<point x="477.667" y="619.333" type="curve" smooth="yes"/>
			<point x="512.333" y="608.667"/>
			<point x="530.667" y="579.667"/>
			<point x="530.667" y="539.333" type="curve" smooth="yes"/>
			<point x="530.667" y="530.333"/>
			<point x="529.667" y="520.667"/>
			<point x="528" y="510.667" type="curve" smooth="yes"/>
			<point x="519" y="463.333"/>
			<point x="488.667" y="426"/>
			<point x="447" y="411.667" type="curve"/>
			<point x="420.333" y="401"/>
			<point x="383.667" y="396.667"/>
			<point x="334.333" y="396.667" type="curve" smooth="yes"/>
		</contour>
	</outline>
</glyph>
<glyph name="Q" format="2">
	<unicode hex="0051"/>
	<advance width="866"/>
	<outline>
		<contour>
			<point x="848.333" y="92" type="line"/>
			<point x="837.333" y="90.333"/>
			<point x="831.667" y="89.667"/>
			<point x="824.667" y="89.667" type="curve" smooth="yes"/>
			<point x="798.333" y="89.667"/>
			<point x="777.667" y="97.333"/>
			<point x="748.333" y="117" type="curve"/>
			<point x="847" y="197.667"/>
			<point x="902.333" y="316"/>
			<point x="902.333" y="443" type="curve" smooth="yes"/>
			<point x="902.333" y="624.333"/>
			<point x="771.667" y="752"/>
			<point x="573" y="752" type="curve" smooth="yes"/>
			<point x="330" y="752"/>
			<point x="100.667" y="548"/>
			<point x="100.667" y="300.667" type="curve" smooth="yes"/>
			<point x="100.667" y="120.667"/>
			<point x="238.333" y="-13"/>
			<point x="437" y="-13" type="curve" smooth="yes"/>
			<point x="513.667" y="-13"/>
			<point x="593.667" y="9"/>
			<point x="657.333" y="47" type="curve"/>
			<point x="706" y="4.667"/>
			<point x="753.667" y="-15"/>
			<point x="809" y="-15" type="curve" smooth="yes"/>
			<point x="814.333" y="-15"/>
			<point x="821.667" y="-14.667"/>
			<point x="829" y="-13.667" type="curve"/>
		</contour>
		<contour>
			<point x="239.667" y="223.333" type="curve"/>
			<point x="275.333" y="232.667"/>
			<point x="296" y="235.667"/>
			<point x="328.333" y="235.667" type="curve" smooth="yes"/>
			<point x="424.333" y="235.667"/>
			<point x="497" y="204"/>
			<point x="575.333" y="125.333" type="curve"/>
			<point x="534.333" y="105"/>
			<point x="502.667" y="97.667"/>
			<point x="456.333" y="97.667" type="curve" smooth="yes"/>
			<point x="355.333" y="97.667"/>
			<point x="279.667" y="141.667"/>
		</contour>
		<contour>
			<point x="218.667" y="315.667" type="curve"/>
			<point x="224.667" y="493.667"/>
			<point x="370.667" y="641.333"/>
			<point x="551.667" y="641.333" type="curve" smooth="yes"/>
			<point x="690.667" y="641.333"/>
			<point x="782.667" y="549.667"/>
			<point x="782.667" y="420.667" type="curve" smooth="yes"/>
			<point x="782.667" y="328"/>
			<point x="741.667" y="243.333"/>
			<point x="670.333" y="183.333" type="curve"/>
			<point x="586" y="277.667"/>
			<point x="483" y="333"/>
			<point x="350.333" y="333" type="curve" smooth="yes"/>
			<point x="301.333" y="333"/>
			<point x="263.667" y="328"/>
		</contour>
	</outline>
</glyph>
<glyph name="R" format="2">
	<unicode hex="0052"/>
	<advance width="605"/>
	<outline>
		<contour>
			<point x="72.667" y="0" type="line"/>
			<point x="188.667" y="0" type="line"/>
			<point x="305.667" y="629.333" type="line"/>
			<point x="381" y="629.333" type="line" smooth="yes"/>
			<point x="454.667" y="629.333"/>
			<point x="547" y="625"/>
			<point x="547" y="529.333" type="curve" smooth="yes"/>
			<point x="547" y="396.333"/>
			<point x="442" y="369"/>
			<point x="332.667" y="369" type="curve" smooth="yes"/>
			<point x="234.333" y="369" type="line"/>
			<point x="426" y="0" type="line"/>
			<point x="569.333" y="0" type="line"/>
			<point x="418" y="274" type="line"/>
			<point x="566.667" y="302"/>
			<point x="666.333" y="401"/>
			<point x="666.333" y="555" type="curve" smooth="yes"/>
			<point x="666.333" y="709.667"/>
			<point x="542.333" y="739"/>
			<point x="412.667" y="739" type="curve" smooth="yes"/>
			<point x="209.667" y="739" type="line"/>
		</contour>
	</outline>
</glyph>
<glyph name="S" format="2">
	<unicode hex="0053"/>
	<advance width="515"/>
	<outline>
		<contour>
			<point x="58.667" y="209.667" type="line"/>
			<point x="56.667" y="196"/>
			<point x="56.667" y="183.333"/>
			<point x="56.667" y="171.333" type="curve" smooth="yes"/>
			<point x="56.667" y="56.667"/>
			<point x="141.667" y="-13"/>
			<point x="257" y="-13" type="curve" smooth="yes"/>
			<point x="416" y="-13"/>
			<point x="535.333" y="96.333"/>
			<point x="535.333" y="253.667" type="curve" smooth="yes"/>
			<point x="535.333" y="361.333"/>
			<point x="461.667" y="406.667"/>
			<point x="373.667" y="437.667" type="curve" smooth="yes"/>
			<point x="302.333" y="463"/>
			<point x="263.333" y="483.667"/>
			<point x="263.333" y="532" type="curve" smooth="yes"/>
			<point x="263.333" y="593.333"/>
			<point x="312.667" y="641.333"/>
			<point x="375.333" y="641.333" type="curve" smooth="yes"/>
			<point x="426" y="641.333"/>
			<point x="455" y="613"/>
			<point x="455" y="563.333" type="curve" smooth="yes"/>
			<point x="455" y="558.333"/>
			<point x="454.333" y="552"/>
			<point x="453" y="545.333" type="curve"/>
			<point x="573.333" y="545.333" type="line"/>
			<point x="575.667" y="559.333"/>
			<point x="576.667" y="573"/>
			<point x="576.667" y="585.667" type="curve" smooth="yes"/>
			<point x="576.667" y="688.333"/>
			<point x="501.667" y="752"/>
			<point x="396.667" y="752" type="curve" smooth="yes"/>
			<point x="251.333" y="752"/>
			<point x="143.667" y="650.667"/>
			<point x="143.667" y="506.667" type="curve" smooth="yes"/>
			<point x="143.667" y="425.667"/>
			<point x="204.667" y="370.333"/>
			<point x="285.333" y="342.667" type="curve" smooth="yes"/>
			<point x="386" y="308.333"/>
			<point x="415.667" y="283"/>
			<point x="415.667" y="224.333" type="curve" smooth="yes"/>
			<point x="415.667" y="152.667"/>
			<point x="356.667" y="97.667"/>
			<point x="277.667" y="97.667" type="curve" smooth="yes"/>
			<point x="214.667" y="97.667"/>
			<point x="178.667" y="130.667"/>
			<point x="178.667" y="190.667" type="curve" smooth="yes"/>
			<point x="178.667" y="196.667"/>
			<point x="179.333" y="204.333"/>
			<point x="180.333" y="209.667" type="curve"/>
		</contour>
	</outline>
</glyph>
<glyph name="T" format="2">
	<unicode hex="0054"/>
	<advance width="425"/>
	<outline>
		<contour>
			<point x="154.667" y="0" type="line"/>
			<point x="270.667" y="0" type="line"/>
			<point x="387.667" y="629.333" type="line"/>
			<point x="535.333" y="629.333" type="line"/>
			<point x="555.333" y="739" type="line"/>
			<point x="144" y="739" type="line"/>
			<point x="124" y="629.333" type="line"/>
			<point x="271.667" y="629.333" type="line"/>
		</contour>
	</outline>
</glyph>
<glyph name="V" format="2">
	<unicode hex="0056"/>
	<advance width="697"/>
	<outline>
		<contour>
			<point x="299.333" y="0" type="line"/>
			<point x="398" y="0" type="line"/>
			<point x="827.667" y="739" type="line"/>
			<point x="705" y="739" type="line"/>
			<point x="376" y="148.667" type="line"/>
			<point x="266" y="739" type="line"/>
			<point x="143" y="739" type="line"/>
		</contour>
	</outline>
</glyph>
<glyph name="W" format="2">
	<unicode hex="0057"/>
	<advance width="930"/>
	<outline>
		<contour>
			<point x="226.333" y="0" type="line"/>
			<point x="330.333" y="0" type="line"/>
			<point x="563.667" y="528" type="line"/>
			<point x="599.667" y="0" type="line"/>
			<point x="704" y="0" type="line"/>
			<point x="1055.67" y="739" type="line"/>
			<point x="937" y="739" type="line"/>
			<point x="685.333" y="180.667" type="line"/>
			<point x="647.333" y="739" type="line"/>
			<point x="557.333" y="739" type="line"/>
			<point x="310.667" y="180.667" type="line"/>
			<point x="267" y="739" type="line"/>
			<point x="148.333" y="739" type="line"/>
		</contour>
	</outline>
</glyph>
<glyph name="X" format="2">
	<unicode hex="0058"/>
	<advance width="660"/>
	<outline>
		<contour>
			<point x="7.333" y="0" type="line"/>
			<point x="145" y="0" type="line"/>
			<point x="380.667" y="275.333" type="line"/>
			<point x="517.333" y="0" type="line"/>
			<point x="652.333" y="0" type="line"/>
			<point x="466.333" y="371.333" type="line"/>
			<point x="784.333" y="739" type="line"/>
			<point x="649.667" y="739" type="line"/>
			<point x="416.333" y="468.333" type="line"/>
			<point x="286.667" y="739" type="line"/>
			<point x="149" y="739" type="line"/>
			<point x="329" y="371.333" type="line"/>
		</contour>
	</outline>
</glyph>
<glyph name="Y" format="2">
	<unicode hex="0059"/>
	<advance width="622"/>
	<outline>
		<contour>
			<point x="252.667" y="0" type="line"/>
			<point x="368.667" y="0" type="line"/>
			<point x="418" y="264.333" type="line"/>
			<point x="753.667" y="739" type="line"/>
			<point x="628" y="739" type="line"/>
			<point x="380" y="374.333" type="line"/>
			<point x="268.333" y="739" type="line"/>
			<point x="142.333" y="739" type="line"/>
			<point x="302" y="264.333" type="line"/>
		</contour>
	</outline>
</glyph>
<glyph name="Z" format="2">
	<unicode hex="005A"/>
	<advance width="508"/>
	<outline>
		<contour>
			<point x="25.667" y="0" type="line"/>
			<point x="486" y="0" type="line"/>
			<point x="506" y="109.667" type="line"/>
			<point x="183.667" y="109.667" type="line"/>
			<point x="587.333" y="634.667" type="line"/>
			<point x="606.667" y="739" type="line"/>
			<point x="176.333" y="739" type="line"/>
			<point x="156.333" y="629.333" type="line"/>
			<point x="450.333" y="629.333" type="line"/>
			<point x="43.667" y="99.667" type="line"/>
		</contour>
	</outline>
</glyph>
<glyph name="bracketleft" format="2">
	<unicode hex="005B"/>
	<advance width="326"/>
	<outline>
		<contour>
			<point x="286.667" y="-10" type="line"/>
			<point x="229.667" y="15.667"/>
			<point x="214" y="47"/>
			<point x="214" y="105.667" type="curve" smooth="yes"/>
			<point x="214" y="124.333"/>
			<point x="215.667" y="145.333"/>
			<point x="220.333" y="168.333" type="curve" smooth="yes"/>
			<point x="269" y="428.667" type="line" smooth="yes"/>
			<point x="286.333" y="522"/>
			<point x="314" y="581"/>
			<point x="402.667" y="616" type="curve"/>
			<point x="425.333" y="739" type="line"/>
			<point x="277.667" y="700"/>
			<point x="188.333" y="603.667"/>
			<point x="160" y="451.333" type="curve" smooth="yes"/>
			<point x="109.333" y="179.333" type="line" smooth="yes"/>
			<point x="102.667" y="143.333"/>
			<point x="99" y="111.333"/>
			<point x="99" y="83" type="curve" smooth="yes"/>
			<point x="99" y="-26"/>
			<point x="154.333" y="-105.667"/>
			<point x="264" y="-133" type="curve"/>
		</contour>
	</outline>
</glyph>
<glyph name="bracketright" format="2">
	<unicode hex="005D"/>
	<advance width="326"/>
	<outline>
		<contour>
			<point x="13" y="-133" type="line"/>
			<point x="161.333" y="-94"/>
			<point x="249.667" y="1.667"/>
			<point x="278.333" y="155" type="curve" smooth="yes"/>
			<point x="328.667" y="426.667" type="line" smooth="yes"/>
			<point x="335.333" y="462.667"/>
			<point x="338.333" y="494.667"/>
			<point x="338.333" y="523" type="curve" smooth="yes"/>
			<point x="338.333" y="633.333"/>
			<point x="286" y="711.333"/>
			<point x="174.333" y="739" type="curve"/>
			<point x="151.667" y="616" type="line"/>
			<point x="208" y="590.333"/>
			<point x="223.667" y="558.333"/>
			<point x="223.667" y="500.333" type="curve" smooth="yes"/>
			<point x="223.667" y="482"/>
			<point x="222" y="461"/>
			<point x="217.333" y="438" type="curve" smooth="yes"/>
			<point x="169.333" y="177.333" type="line" smooth="yes"/>
			<point x="152" y="84"/>
			<point x="124.333" y="25.333"/>
			<point x="35.667" y="-10" type="curve"/>
		</contour>
	</outline>
</glyph>
<glyph name="asciicircum" format="2">
	<unicode hex="005E"/>
	<advance width="602"/>
	<outline>
		<contour>
			<point x="101.667" y="302" type="line"/>
			<point x="192" y="268.667" type="line"/>
			<point x="414.667" y="612.667" type="line"/>
			<point x="509.333" y="268.667" type="line"/>
			<point x="611.667" y="302" type="line"/>
			<point x="493" y="739" type="line"/>
			<point x="383.333" y="739" type="line"/>
		</contour>
	</outline>
</glyph>
<glyph name="underscore" format="2">
	<unicode hex="005F"/>
	<advance width="500"/>
	<outline>
		<contour>
			<point x="-25" y="-133.667" type="line"/>
			<point x="475" y="-133.667" type="line"/>
			<point x="490" y="-54.333" type="line"/>
			<point x="-10" y="-54.333" type="line"/>
		</contour>
	</outline>
</glyph>
<glyph name="grave" format="2">
	<unicode hex="0060"/>
	<advance width="397"/>
	<outline>
		<contour>
			<point x="203" y="730.667" type="line"/>
			<point x="397.333" y="612" type="line"/>
			<point x="457" y="683.333" type="line"/>
			<point x="266" y="808.667" type="line"/>
		</contour>
	</outline>
</glyph>
<glyph name="a" format="2">
	<unicode hex="0061"/>
	<advance width="672"/>
	<outline>
		<contour>
			<point x="509.333" y="0" type="line"/>
			<point x="615.333" y="0" type="line"/>
			<point x="717.667" y="551.667" type="line"/>
			<point x="611.667" y="551.667" type="line"/>
			<point x="596.333" y="470" type="line"/>
			<point x="559.333" y="536.333"/>
			<point x="506.333" y="564.667"/>
			<point x="421.333" y="564.667" type="curve" smooth="yes"/>
			<point x="257.333" y="564.667"/>
			<point x="114" y="441.333"/>
			<point x="83.333" y="274" type="curve" smooth="yes"/>
			<point x="79.333" y="253.667"/>
			<point x="77.667" y="234"/>
			<point x="77.667" y="214.667" type="curve" smooth="yes"/>
			<point x="77.667" y="79.667"/>
			<point x="171" y="-13"/>
			<point x="314.667" y="-13" type="curve" smooth="yes"/>
			<point x="397.667" y="-13"/>
			<point x="457.333" y="13.333"/>
			<point x="524" y="80" type="curve"/>
		</contour>
		<contour>
			<point x="194" y="235.667" type="curve" smooth="yes"/>
			<point x="194" y="247.333"/>
			<point x="195" y="260.333"/>
			<point x="197.333" y="273" type="curve" smooth="yes"/>
			<point x="217.333" y="379.667"/>
			<point x="308.333" y="460.667"/>
			<point x="409.333" y="460.667" type="curve" smooth="yes"/>
			<point x="501.667" y="460.667"/>
			<point x="561.667" y="401.333"/>
			<point x="561.667" y="314" type="curve" smooth="yes"/>
			<point x="561.667" y="301.333"/>
			<point x="560" y="288.667"/>
			<point x="557.667" y="275" type="curve" smooth="yes"/>
			<point x="538" y="167.667"/>
			<point x="449.333" y="91"/>
			<point x="345.667" y="91" type="curve" smooth="yes"/>
			<point x="253.333" y="91"/>
			<point x="194" y="150"/>
		</contour>
	</outline>
</glyph>
<glyph name="b" format="2">
	<unicode hex="0062"/>
	<advance width="671"/>
	<outline>
		<contour>
			<point x="57" y="0" type="line"/>
			<point x="163" y="0" type="line"/>
			<point x="177.333" y="78.667" type="line"/>
			<point x="219" y="15.333"/>
			<point x="275.667" y="-13"/>
			<point x="360.333" y="-13" type="curve" smooth="yes"/>
			<point x="547.333" y="-13"/>
			<point x="696" y="157.333"/>
			<point x="696" y="338.333" type="curve" smooth="yes"/>
			<point x="696" y="473.667"/>
			<point x="603" y="569.333"/>
			<point x="462" y="569.333" type="curve" smooth="yes"/>
			<point x="382.667" y="569.333"/>
			<point x="321" y="543.333"/>
			<point x="260.333" y="486.333" type="curve"/>
			<point x="307.333" y="739" type="line"/>
			<point x="194" y="739" type="line"/>
		</contour>
		<contour>
			<point x="211" y="238.667" type="curve" smooth="yes"/>
			<point x="211" y="354.667"/>
			<point x="307.667" y="465.333"/>
			<point x="427.333" y="465.333" type="curve" smooth="yes"/>
			<point x="521" y="465.333"/>
			<point x="579.333" y="406.667"/>
			<point x="579.333" y="318.667" type="curve" smooth="yes"/>
			<point x="579.333" y="198.333"/>
			<point x="486" y="91"/>
			<point x="361.667" y="91" type="curve" smooth="yes"/>
			<point x="270" y="91"/>
			<point x="211" y="152.333"/>
		</contour>
	</outline>
</glyph>
<glyph name="c" format="2">
	<unicode hex="0063"/>
	<advance width="632"/>
	<outline>
		<contour>
			<point x="506.667" y="175" type="line"/>
			<point x="455" y="115.667"/>
			<point x="407" y="91"/>
			<point x="344.333" y="91" type="curve" smooth="yes"/>
			<point x="254.667" y="91"/>
			<point x="194.667" y="152.667"/>
			<point x="194.667" y="239.333" type="curve" smooth="yes"/>
			<point x="194.667" y="355"/>
			<point x="292" y="460.667"/>
			<point x="409.667" y="460.667" type="curve" smooth="yes"/>
			<point x="476.667" y="460.667"/>
			<point x="522" y="431.667"/>
			<point x="543" y="373" type="curve"/>
			<point x="670.667" y="373" type="line"/>
			<point x="648.667" y="494.333"/>
			<point x="558.333" y="564.667"/>
			<point x="429.667" y="564.667" type="curve" smooth="yes"/>
			<point x="248" y="564.667"/>
			<point x="78.667" y="407"/>
			<point x="78.667" y="223" type="curve" smooth="yes"/>
			<point x="78.667" y="87"/>
			<point x="180.333" y="-13"/>
			<point x="327.333" y="-13" type="curve" smooth="yes"/>
			<point x="458.667" y="-13"/>
			<point x="563.667" y="57.667"/>
			<point x="634.667" y="175" type="curve"/>
		</contour>
	</outline>
</glyph>
<glyph name="d" format="2">
	<unicode hex="0064"/>
	<advance width="672"/>
	<outline>
		<contour>
			<point x="78.333" y="218.667" type="curve" smooth="yes"/>
			<point x="78.333" y="83.667"/>
			<point x="173.333" y="-13"/>
			<point x="315.333" y="-13" type="curve" smooth="yes"/>
			<point x="396" y="-13"/>
			<point x="456.333" y="14.667"/>
			<point x="523.333" y="81" type="curve"/>
			<point x="508.667" y="0" type="line"/>
			<point x="614.667" y="0" type="line"/>
			<point x="751.667" y="739" type="line"/>
			<point x="638.333" y="739" type="line"/>
			<point x="592.333" y="490" type="line"/>
			<point x="557.667" y="540.333"/>
			<point x="495" y="569.333"/>
			<point x="419.667" y="569.333" type="curve" smooth="yes"/>
			<point x="236.333" y="569.333"/>
			<point x="78.333" y="399.333"/>
		</contour>
		<contour>
			<point x="195.333" y="243" type="curve" smooth="yes"/>
			<point x="195.333" y="356.667"/>
			<point x="295" y="465.333"/>
			<point x="410.333" y="465.333" type="curve" smooth="yes"/>
			<point x="503.333" y="465.333"/>
			<point x="564" y="403.667"/>
			<point x="564" y="315.667" type="curve" smooth="yes"/>
			<point x="564" y="201.333"/>
			<point x="464.667" y="91"/>
			<point x="347.333" y="91" type="curve" smooth="yes"/>
			<point x="256.667" y="91"/>
			<point x="195.333" y="155.667"/>
		</contour>
	</outline>
</glyph>
<glyph name="e" format="2">
	<unicode hex="0065"/>
	<advance width="639"/>
	<outline>
		<contour>
			<point x="502.333" y="169.333" type="line"/>
			<point x="460" y="117.667"/>
			<point x="407.333" y="91"/>
			<point x="343" y="91" type="curve" smooth="yes"/>
			<point x="253.667" y="91"/>
			<point x="193.333" y="147"/>
			<point x="195.333" y="228.333" type="curve"/>
			<point x="646.333" y="228.333" type="line"/>
			<point x="658.333" y="263"/>
			<point x="663.667" y="299.667"/>
			<point x="663.667" y="333" type="curve" smooth="yes"/>
			<point x="663.667" y="470.333"/>
			<point x="566.667" y="564.667"/>
			<point x="426.333" y="564.667" type="curve" smooth="yes"/>
			<point x="245" y="564.667"/>
			<point x="78.667" y="403.667"/>
			<point x="78.667" y="221.667" type="curve" smooth="yes"/>
			<point x="78.667" y="86"/>
			<point x="179.333" y="-13"/>
			<point x="327" y="-13" type="curve" smooth="yes"/>
			<point x="445.333" y="-13"/>
			<point x="568.333" y="59.667"/>
			<point x="624.667" y="169.333" type="curve"/>
		</contour>
		<contour>
			<point x="212.333" y="328.667" type="line"/>
			<point x="248" y="411.667"/>
			<point x="320.667" y="460.667"/>
			<point x="408" y="460.667" type="curve" smooth="yes"/>
			<point x="498" y="460.667"/>
			<point x="552.333" y="412.333"/>
			<point x="556.667" y="328.667" type="curve"/>
		</contour>
	</outline>
</glyph>
<glyph name="f" format="2">
	<unicode hex="0066"/>
	<advance width="301"/>
	<outline>
		<contour>
			<point x="79" y="0" type="line"/>
			<point x="192.333" y="0" type="line"/>
			<point x="275.333" y="448.667" type="line"/>
			<point x="370.667" y="448.667" type="line"/>
			<point x="388.667" y="545" type="line"/>
			<point x="293.333" y="545" type="line"/>
			<point x="307" y="616.333"/>
			<point x="338" y="631.333"/>
			<point x="410" y="631.333" type="curve"/>
			<point x="430" y="737.667" type="line"/>
			<point x="277" y="737.667"/>
			<point x="216" y="687"/>
			<point x="180" y="545" type="curve"/>
			<point x="119.667" y="545" type="line"/>
			<point x="101.667" y="448.667" type="line"/>
			<point x="162" y="448.667" type="line"/>
		</contour>
	</outline>
</glyph>
<glyph name="g" format="2">
	<unicode hex="0067"/>
	<advance width="666"/>
	<outline>
		<contour>
			<point x="39" y="-35.667" type="line"/>
			<point x="60.333" y="-152.333"/>
			<point x="149.667" y="-219"/>
			<point x="286.333" y="-219" type="curve" smooth="yes"/>
			<point x="495" y="-219"/>
			<point x="592.667" y="-87"/>
			<point x="628" y="102.667" type="curve" smooth="yes"/>
			<point x="711.667" y="551.667" type="line"/>
			<point x="602.333" y="551.667" type="line"/>
			<point x="587.667" y="472.667" type="line"/>
			<point x="552.667" y="535.333"/>
			<point x="496.667" y="564.667"/>
			<point x="412.333" y="564.667" type="curve" smooth="yes"/>
			<point x="225.333" y="564.667"/>
			<point x="78.333" y="397.667"/>
			<point x="78.333" y="216" type="curve" smooth="yes"/>
			<point x="78.333" y="81"/>
			<point x="168.333" y="-13"/>
			<point x="307" y="-13" type="curve" smooth="yes"/>
			<point x="392" y="-13"/>
			<point x="454.667" y="17"/>
			<point x="516.333" y="85.667" type="curve"/>
			<point x="489.333" y="-42"/>
			<point x="430.333" y="-118.333"/>
			<point x="308" y="-118.333" type="curve" smooth="yes"/>
			<point x="229.333" y="-118.333"/>
			<point x="190.667" y="-96.333"/>
			<point x="163.667" y="-35.667" type="curve"/>
		</contour>
		<contour>
			<point x="337.667" y="91" type="curve" smooth="yes"/>
			<point x="248" y="91"/>
			<point x="194" y="147"/>
			<point x="194" y="232.667" type="curve" smooth="yes"/>
			<point x="194" y="348"/>
			<point x="278.667" y="460.667"/>
			<point x="401" y="460.667" type="curve" smooth="yes"/>
			<point x="493.333" y="460.667"/>
			<point x="551.333" y="403.667"/>
			<point x="551.333" y="317.333" type="curve" smooth="yes"/>
			<point x="551.333" y="199.333"/>
			<point x="460" y="91"/>
		</contour>
	</outline>
</glyph>
<glyph name="h" format="2">
	<unicode hex="0068"/>
	<advance width="601"/>
	<outline>
		<contour>
			<point x="57" y="0" type="line"/>
			<point x="170.333" y="0" type="line"/>
			<point x="223.667" y="287.333" type="line" smooth="yes"/>
			<point x="240.333" y="378.333"/>
			<point x="282.333" y="460.667"/>
			<point x="389" y="460.667" type="curve" smooth="yes"/>
			<point x="457" y="460.667"/>
			<point x="492.667" y="427.333"/>
			<point x="492.667" y="356.667" type="curve" smooth="yes"/>
			<point x="492.667" y="337"/>
			<point x="490" y="313.333"/>
			<point x="485" y="286.667" type="curve" smooth="yes"/>
			<point x="432.333" y="0" type="line"/>
			<point x="545.667" y="0" type="line"/>
			<point x="602.333" y="306.667" type="line" smooth="yes"/>
			<point x="609" y="341.333"/>
			<point x="612" y="369.667"/>
			<point x="612" y="394.667" type="curve" smooth="yes"/>
			<point x="612" y="505.667"/>
			<point x="538" y="565.333"/>
			<point x="426.667" y="565.333" type="curve" smooth="yes"/>
			<point x="363.333" y="565.333"/>
			<point x="310.667" y="544.667"/>
			<point x="263.667" y="502.667" type="curve"/>
			<point x="307.333" y="739" type="line"/>
			<point x="194" y="739" type="line"/>
		</contour>
	</outline>
</glyph>
<glyph name="i" format="2">
	<unicode hex="0069"/>
	<advance width="227"/>
	<outline>
		<contour>
			<point x="57" y="0" type="line"/>
			<point x="170.333" y="0" type="line"/>
			<point x="272.667" y="551.667" type="line"/>
			<point x="159.333" y="551.667" type="line"/>
		</contour>
		<contour>
			<point x="171" y="613.667" type="line"/>
			<point x="284.333" y="613.667" type="line"/>
			<point x="307.333" y="739" type="line"/>
			<point x="194" y="739" type="line"/>
		</contour>
	</outline>
</glyph>
<glyph name="j" format="2">
	<unicode hex="006A"/>
	<advance width="238"/>
	<outline>
		<contour>
			<point x="-41" y="-187.333" type="line"/>
			<point x="8.333" y="-186.667"/>
			<point x="52" y="-172"/>
			<point x="90" y="-144" type="curve" smooth="yes"/>
			<point x="143.333" y="-105.333"/>
			<point x="171" y="-54.667"/>
			<point x="187.667" y="37.333" type="curve" smooth="yes"/>
			<point x="283" y="551.667" type="line"/>
			<point x="169.667" y="551.667" type="line"/>
			<point x="74.333" y="39.333" type="line" smooth="yes"/>
			<point x="58" y="-50.667"/>
			<point x="42.333" y="-70"/>
			<point x="-20.333" y="-77.667" type="curve"/>
		</contour>
		<contour>
			<point x="181.333" y="613.667" type="line"/>
			<point x="294.667" y="613.667" type="line"/>
			<point x="317.667" y="739" type="line"/>
			<point x="204.333" y="739" type="line"/>
		</contour>
	</outline>
</glyph>
<glyph name="k" format="2">
	<unicode hex="006B"/>
	<advance width="539"/>
	<outline>
		<contour>
			<point x="57" y="0" type="line"/>
			<point x="170.333" y="0" type="line"/>
			<point x="189.333" y="101" type="line"/>
			<point x="274.667" y="191" type="line"/>
			<point x="385.667" y="0" type="line"/>
			<point x="535.667" y="0" type="line"/>
			<point x="358" y="279.333" type="line"/>
			<point x="612" y="551.667" type="line"/>
			<point x="475.667" y="551.667" type="line"/>
			<point x="219.667" y="267" type="line"/>
			<point x="307.333" y="739" type="line"/>
			<point x="194" y="739" type="line"/>
		</contour>
	</outline>
</glyph>
<glyph name="m" format="2">
	<unicode hex="006D"/>
	<advance width="937"/>
	<outline>
		<contour>
			<point x="57" y="0" type="line"/>
			<point x="170.333" y="0" type="line"/>
			<point x="224" y="288.333" type="line" smooth="yes"/>
			<point x="240.667" y="380"/>
			<point x="276.333" y="460.667"/>
			<point x="377" y="460.667" type="curve" smooth="yes"/>
			<point x="439.333" y="460.667"/>
			<point x="476.333" y="427.667"/>
			<point x="476.333" y="366.333" type="curve" smooth="yes"/>
			<point x="476.333" y="350.333"/>
			<point x="473.667" y="331.333"/>
			<point x="469.667" y="309" type="curve" smooth="yes"/>
			<point x="412.667" y="0" type="line"/>
			<point x="526" y="0" type="line"/>
			<point x="579.667" y="287.667" type="line" smooth="yes"/>
			<point x="595.667" y="374.667"/>
			<point x="631.333" y="460.667"/>
			<point x="735.667" y="460.667" type="curve" smooth="yes"/>
			<point x="798" y="460.667"/>
			<point x="832" y="427"/>
			<point x="832" y="366.333" type="curve" smooth="yes"/>
			<point x="832" y="350"/>
			<point x="829.333" y="331"/>
			<point x="825.333" y="308.333" type="curve" smooth="yes"/>
			<point x="768.333" y="0" type="line"/>
			<point x="881.667" y="0" type="line"/>
			<point x="941" y="321.667" type="line" smooth="yes"/>
			<point x="946" y="349"/>
			<point x="949" y="374"/>
			<point x="949" y="396.333" type="curve" smooth="yes"/>
			<point x="949" y="509"/>
			<point x="878" y="564.667"/>
			<point x="764.333" y="564.667" type="curve" smooth="yes"/>
			<point x="684.333" y="564.667"/>
			<point x="623.333" y="536.667"/>
			<point x="566" y="472.333" type="curve"/>
			<point x="538.333" y="537.667"/>
			<point x="494" y="564.667"/>
			<point x="415" y="564.667" type="curve" smooth="yes"/>
			<point x="348.667" y="564.667"/>
			<point x="304.667" y="545.667"/>
			<point x="255" y="496" type="curve"/>
			<point x="265.333" y="551.667" type="line"/>
			<point x="159.333" y="551.667" type="line"/>
		</contour>
	</outline>
</glyph>
<glyph name="n" format="2">
	<unicode hex="006E"/>
	<advance width="602"/>
	<outline>
		<contour>
			<point x="57" y="0" type="line"/>
			<point x="170.333" y="0" type="line"/>
			<point x="221" y="274.333" type="line" smooth="yes"/>
			<point x="238.333" y="370.333"/>
			<point x="276.667" y="460.667"/>
			<point x="391" y="460.667" type="curve" smooth="yes"/>
			<point x="458.667" y="460.667"/>
			<point x="493.333" y="423.667"/>
			<point x="493.333" y="359" type="curve" smooth="yes"/>
			<point x="493.333" y="337.333"/>
			<point x="490.333" y="310.667"/>
			<point x="484" y="276.333" type="curve" smooth="yes"/>
			<point x="433" y="0" type="line"/>
			<point x="546.333" y="0" type="line"/>
			<point x="600.667" y="293.667" type="line" smooth="yes"/>
			<point x="609" y="337.333"/>
			<point x="612.667" y="370.667"/>
			<point x="612.667" y="398" type="curve" smooth="yes"/>
			<point x="612.667" y="506.667"/>
			<point x="539" y="564.667"/>
			<point x="431" y="564.667" type="curve" smooth="yes"/>
			<point x="364.333" y="564.667"/>
			<point x="312.667" y="543.667"/>
			<point x="255" y="492.667" type="curve"/>
			<point x="266" y="551.667" type="line"/>
			<point x="159.333" y="551.667" type="line"/>
		</contour>
	</outline>
</glyph>
<glyph name="o" format="2">
	<unicode hex="006F"/>
	<advance width="648"/>
	<outline>
		<contour>
			<point x="78.333" y="221.667" type="curve" smooth="yes"/>
			<point x="78.333" y="86.667"/>
			<point x="179" y="-13"/>
			<point x="324.667" y="-13" type="curve" smooth="yes"/>
			<point x="506.667" y="-13"/>
			<point x="671.667" y="147.667"/>
			<point x="671.667" y="329.667" type="curve" smooth="yes"/>
			<point x="671.667" y="464.333"/>
			<point x="574.333" y="564.667"/>
			<point x="432" y="564.667" type="curve" smooth="yes"/>
			<point x="248.667" y="564.667"/>
			<point x="78.333" y="406.667"/>
		</contour>
		<contour>
			<point x="194.333" y="239.333" type="curve" smooth="yes"/>
			<point x="194.333" y="351"/>
			<point x="292" y="460.667"/>
			<point x="407" y="460.667" type="curve" smooth="yes"/>
			<point x="496.333" y="460.667"/>
			<point x="555.667" y="398.667"/>
			<point x="555.667" y="312.333" type="curve" smooth="yes"/>
			<point x="555.667" y="198.333"/>
			<point x="459" y="91"/>
			<point x="342" y="91" type="curve" smooth="yes"/>
			<point x="253.667" y="91"/>
			<point x="194.333" y="154"/>
		</contour>
	</outline>
</glyph>
<glyph name="p" format="2">
	<unicode hex="0070"/>
	<advance width="669"/>
	<outline>
		<contour>
			<point x="22.333" y="-187.333" type="line"/>
			<point x="135.667" y="-187.333" type="line"/>
			<point x="182.667" y="66" type="line"/>
			<point x="223" y="12.667"/>
			<point x="277" y="-13"/>
			<point x="352.667" y="-13" type="curve" smooth="yes"/>
			<point x="514" y="-13"/>
			<point x="657" y="111.333"/>
			<point x="687.667" y="277" type="curve" smooth="yes"/>
			<point x="691.667" y="297.333"/>
			<point x="693.333" y="317.667"/>
			<point x="693.333" y="337" type="curve" smooth="yes"/>
			<point x="693.333" y="471.333"/>
			<point x="602" y="564.667"/>
			<point x="460.667" y="564.667" type="curve" smooth="yes"/>
			<point x="379.333" y="564.667"/>
			<point x="306" y="534.333"/>
			<point x="251.667" y="477" type="curve"/>
			<point x="265.333" y="551.667" type="line"/>
			<point x="159.333" y="551.667" type="line"/>
		</contour>
		<contour>
			<point x="211" y="238.333" type="curve" smooth="yes"/>
			<point x="211" y="250.333"/>
			<point x="212" y="262"/>
			<point x="214.333" y="274.333" type="curve" smooth="yes"/>
			<point x="234" y="380"/>
			<point x="325.667" y="460.667"/>
			<point x="425.667" y="460.667" type="curve" smooth="yes"/>
			<point x="517.333" y="460.667"/>
			<point x="576.667" y="400.333"/>
			<point x="576.667" y="313.667" type="curve" smooth="yes"/>
			<point x="576.667" y="301.333"/>
			<point x="574.667" y="287.667"/>
			<point x="572.333" y="274.333" type="curve" smooth="yes"/>
			<point x="553.333" y="170.667"/>
			<point x="461.333" y="91"/>
			<point x="361" y="91" type="curve" smooth="yes"/>
			<point x="271" y="91"/>
			<point x="211" y="153"/>
		</contour>
	</outline>
</glyph>
<glyph name="q" format="2">
	<unicode hex="0071"/>
	<advance width="669"/>
	<outline>
		<contour>
			<point x="464.333" y="-187.333" type="line"/>
			<point x="577.667" y="-187.333" type="line"/>
			<point x="714.667" y="551.667" type="line"/>
			<point x="608.667" y="551.667" type="line"/>
			<point x="594.333" y="473" type="line"/>
			<point x="561.333" y="535"/>
			<point x="504.667" y="564.667"/>
			<point x="419.333" y="564.667" type="curve" smooth="yes"/>
			<point x="261" y="564.667"/>
			<point x="114.333" y="438.667"/>
			<point x="84.333" y="277" type="curve" smooth="yes"/>
			<point x="80.667" y="257.333"/>
			<point x="78.333" y="238.333"/>
			<point x="78.333" y="219.667" type="curve" smooth="yes"/>
			<point x="78.333" y="85"/>
			<point x="173" y="-13"/>
			<point x="314.667" y="-13" type="curve" smooth="yes"/>
			<point x="390.333" y="-13"/>
			<point x="456.333" y="14"/>
			<point x="511.333" y="66.667" type="curve"/>
		</contour>
		<contour>
			<point x="194.333" y="237" type="curve" smooth="yes"/>
			<point x="194.333" y="249"/>
			<point x="195.333" y="261.667"/>
			<point x="197.667" y="274.667" type="curve" smooth="yes"/>
			<point x="217.333" y="379.667"/>
			<point x="309.333" y="460.667"/>
			<point x="410" y="460.667" type="curve" smooth="yes"/>
			<point x="502" y="460.667"/>
			<point x="561" y="400.333"/>
			<point x="561" y="313.333" type="curve" smooth="yes"/>
			<point x="561" y="300.667"/>
			<point x="559.333" y="288"/>
			<point x="557" y="274.333" type="curve" smooth="yes"/>
			<point x="537.333" y="169.333"/>
			<point x="446" y="91"/>
			<point x="344.333" y="91" type="curve" smooth="yes"/>
			<point x="253.667" y="91"/>
			<point x="194.333" y="151"/>
		</contour>
	</outline>
</glyph>
<glyph name="r" format="2">
	<unicode hex="0072"/>
	<advance width="320"/>
	<outline>
		<contour>
			<point x="57" y="0" type="line"/>
			<point x="170.333" y="0" type="line"/>
			<point x="228" y="311.667" type="line" smooth="yes"/>
			<point x="245" y="403"/>
			<point x="297" y="451.667"/>
			<point x="385.333" y="455" type="curve"/>
			<point x="406" y="564.667" type="line"/>
			<point x="332.667" y="563.333"/>
			<point x="298" y="545"/>
			<point x="254" y="489.667" type="curve"/>
			<point x="265.333" y="551.667" type="line"/>
			<point x="159.333" y="551.667" type="line"/>
		</contour>
	</outline>
</glyph>
<glyph name="s" format="2">
	<unicode hex="0073"/>
	<advance width="421"/>
	<outline>
		<contour>
			<point x="48" y="171" type="line"/>
			<point x="46" y="158"/>
			<point x="44.667" y="145.667"/>
			<point x="44.667" y="134.333" type="curve" smooth="yes"/>
			<point x="44.667" y="50.333"/>
			<point x="114.333" y="-13"/>
			<point x="208" y="-13" type="curve" smooth="yes"/>
			<point x="340.333" y="-13"/>
			<point x="432.333" y="69.667"/>
			<point x="432.333" y="187.667" type="curve" smooth="yes"/>
			<point x="432.333" y="254.333"/>
			<point x="392" y="301.333"/>
			<point x="305.667" y="332" type="curve" smooth="yes"/>
			<point x="247" y="352.667"/>
			<point x="223.333" y="372"/>
			<point x="223.333" y="404" type="curve" smooth="yes"/>
			<point x="223.333" y="439"/>
			<point x="252" y="460.667"/>
			<point x="291.667" y="460.667" type="curve" smooth="yes"/>
			<point x="323.333" y="460.667"/>
			<point x="347.667" y="447"/>
			<point x="347.667" y="417.667" type="curve" smooth="yes"/>
			<point x="347.667" y="412.667"/>
			<point x="347" y="407.667"/>
			<point x="346" y="404.667" type="curve"/>
			<point x="457.667" y="404.667" type="line"/>
			<point x="459.333" y="415.667"/>
			<point x="460.333" y="426"/>
			<point x="460.333" y="435.667" type="curve" smooth="yes"/>
			<point x="460.333" y="516"/>
			<point x="394" y="564.667"/>
			<point x="315" y="564.667" type="curve" smooth="yes"/>
			<point x="188.667" y="564.667"/>
			<point x="107" y="492"/>
			<point x="107" y="387.333" type="curve" smooth="yes"/>
			<point x="107" y="315"/>
			<point x="143.667" y="271.333"/>
			<point x="230.333" y="241" type="curve" smooth="yes"/>
			<point x="288.667" y="220.333"/>
			<point x="314.667" y="191.333"/>
			<point x="314.667" y="159.333" type="curve" smooth="yes"/>
			<point x="314.667" y="113.667"/>
			<point x="281" y="91"/>
			<point x="234.667" y="91" type="curve" smooth="yes"/>
			<point x="193" y="91"/>
			<point x="159.667" y="108.333"/>
			<point x="159.667" y="153" type="curve" smooth="yes"/>
			<point x="159.667" y="158.667"/>
			<point x="160" y="165"/>
			<point x="161.667" y="171" type="curve"/>
		</contour>
	</outline>
</glyph>
<glyph name="u" format="2">
	<unicode hex="0075"/>
	<advance width="602"/>
	<outline>
		<contour>
			<point x="438.333" y="0" type="line"/>
			<point x="545" y="0" type="line"/>
			<point x="647.333" y="551.667" type="line"/>
			<point x="534" y="551.667" type="line"/>
			<point x="484" y="284" type="line" smooth="yes"/>
			<point x="466" y="183.333"/>
			<point x="430.333" y="91"/>
			<point x="310" y="91" type="curve" smooth="yes"/>
			<point x="243" y="91"/>
			<point x="210" y="127.333"/>
			<point x="210" y="191" type="curve" smooth="yes"/>
			<point x="210" y="212.667"/>
			<point x="213" y="239.333"/>
			<point x="219.333" y="272.667" type="curve" smooth="yes"/>
			<point x="271.333" y="551.667" type="line"/>
			<point x="158" y="551.667" type="line"/>
			<point x="103.333" y="255.333" type="line" smooth="yes"/>
			<point x="97.333" y="223.333"/>
			<point x="93.333" y="192.333"/>
			<point x="93.333" y="163.667" type="curve" smooth="yes"/>
			<point x="93.333" y="60.667"/>
			<point x="146" y="-13"/>
			<point x="271.667" y="-13" type="curve" smooth="yes"/>
			<point x="344.667" y="-13"/>
			<point x="393.667" y="8.333"/>
			<point x="450.333" y="63.667" type="curve"/>
		</contour>
	</outline>
</glyph>
<glyph name="v" format="2">
	<unicode hex="0076"/>
	<advance width="557"/>
	<outline>
		<contour>
			<point x="230" y="0" type="line"/>
			<point x="326.667" y="0" type="line"/>
			<point x="654.333" y="551.667" type="line"/>
			<point x="529.333" y="551.667" type="line"/>
			<point x="306.333" y="153.667" type="line"/>
			<point x="230.667" y="551.667" type="line"/>
			<point x="107" y="551.667" type="line"/>
		</contour>
	</outline>
</glyph>
<glyph name="w" format="2">
	<unicode hex="0077"/>
	<advance width="798"/>
	<outline>
		<contour>
			<point x="206" y="0" type="line"/>
			<point x="287.333" y="0" type="line"/>
			<point x="465" y="360.333" type="line"/>
			<point x="507.667" y="0" type="line"/>
			<point x="589.333" y="0" type="line"/>
			<point x="895.667" y="551.667" type="line"/>
			<point x="777" y="551.667" type="line"/>
			<point x="580" y="173.667" type="line"/>
			<point x="542.667" y="529.333" type="line"/>
			<point x="451.667" y="529.333" type="line"/>
			<point x="280.333" y="173.667" type="line"/>
			<point x="226.667" y="551.667" type="line"/>
			<point x="106.667" y="551.667" type="line"/>
		</contour>
	</outline>
</glyph>
<glyph name="x" format="2">
	<unicode hex="0078"/>
	<advance width="532"/>
	<outline>
		<contour>
			<point x="4.667" y="0" type="line"/>
			<point x="139.333" y="0" type="line"/>
			<point x="303" y="199.667" type="line"/>
			<point x="392.333" y="0" type="line"/>
			<point x="527.333" y="0" type="line"/>
			<point x="385" y="283.667" type="line"/>
			<point x="611" y="551.667" type="line"/>
			<point x="482.667" y="551.667" type="line"/>
			<point x="334.667" y="370" type="line"/>
			<point x="252.333" y="551.667" type="line"/>
			<point x="124.333" y="551.667" type="line"/>
			<point x="251.333" y="283.667" type="line"/>
		</contour>
	</outline>
</glyph>
<glyph name="y" format="2">
	<unicode hex="0079"/>
	<advance width="557"/>
	<outline>
		<contour>
			<point x="77.333" y="-187.333" type="line"/>
			<point x="199" y="-187.333" type="line"/>
			<point x="654.667" y="551.667" type="line"/>
			<point x="526.333" y="551.667" type="line"/>
			<point x="304" y="167" type="line"/>
			<point x="235.667" y="551.667" type="line"/>
			<point x="107.333" y="551.667" type="line"/>
			<point x="218.667" y="40.667" type="line"/>
		</contour>
	</outline>
</glyph>
<glyph name="z" format="2">
	<unicode hex="007A"/>
	<advance width="463"/>
	<outline>
		<contour>
			<point x="23.333" y="0" type="line"/>
			<point x="439.667" y="0" type="line"/>
			<point x="458.333" y="101.667" type="line"/>
			<point x="177" y="101.667" type="line"/>
			<point x="504.667" y="451.333" type="line"/>
			<point x="523" y="551.667" type="line"/>
			<point x="147.667" y="551.667" type="line"/>
			<point x="129" y="450" type="line"/>
			<point x="370.333" y="450" type="line"/>
			<point x="42" y="101.667" type="line"/>
		</contour>
	</outline>
</glyph>
<glyph name="braceleft" format="2">
	<unicode hex="007B"/>
	<advance width="340"/>
	<outline>
		<contour>
			<point x="291" y="-51.667" type="line"/>
			<point x="240" y="-47.333"/>
			<point x="223.667" y="-39.333"/>
			<point x="223.667" y="-6.333" type="curve" smooth="yes"/>
			<point x="223.667" y="5.667"/>
			<point x="226" y="20.333"/>
			<point x="229.333" y="40" type="curve" smooth="yes"/>
			<point x="255.333" y="178.667" type="line" smooth="yes"/>
			<point x="258.333" y="195.667"/>
			<point x="260.333" y="210.667"/>
			<point x="260.333" y="223.333" type="curve" smooth="yes"/>
			<point x="260.333" y="271.333"/>
			<point x="236.333" y="291.667"/>
			<point x="189.333" y="305.333" type="curve"/>
			<point x="260" y="323"/>
			<point x="287" y="351.333"/>
			<point x="302" y="433" type="curve" smooth="yes"/>
			<point x="327.667" y="571.667" type="line" smooth="yes"/>
			<point x="342.667" y="649.667"/>
			<point x="357" y="657.667"/>
			<point x="423.667" y="663.333" type="curve"/>
			<point x="437.667" y="739" type="line"/>
			<point x="306.333" y="739"/>
			<point x="257.667" y="710"/>
			<point x="237.333" y="600.667" type="curve" smooth="yes"/>
			<point x="207.667" y="439.333" type="line" smooth="yes"/>
			<point x="196.667" y="378.667"/>
			<point x="170" y="352.667"/>
			<point x="109.667" y="344.333" type="curve"/>
			<point x="95.333" y="267.333" type="line"/>
			<point x="141.667" y="260.333"/>
			<point x="161.667" y="242.667"/>
			<point x="161.667" y="204" type="curve" smooth="yes"/>
			<point x="161.667" y="194.667"/>
			<point x="160.667" y="184.333"/>
			<point x="158.333" y="172.333" type="curve" smooth="yes"/>
			<point x="128.333" y="11" type="line" smooth="yes"/>
			<point x="125.333" y="-5.333"/>
			<point x="123.667" y="-20.667"/>
			<point x="123.667" y="-34" type="curve" smooth="yes"/>
			<point x="123.667" y="-108.333"/>
			<point x="175.333" y="-127.333"/>
			<point x="277" y="-127.333" type="curve"/>
		</contour>
	</outline>
</glyph>
<glyph name="braceright" format="2">
	<unicode hex="007D"/>
	<advance width="339"/>
	<outline>
		<contour>
			<point x="16" y="-127.333" type="line"/>
			<point x="156.667" y="-127.333"/>
			<point x="195" y="-104.333"/>
			<point x="216" y="11" type="curve" smooth="yes"/>
			<point x="246" y="172.333" type="line" smooth="yes"/>
			<point x="257" y="233"/>
			<point x="283" y="259"/>
			<point x="342.667" y="267.333" type="curve"/>
			<point x="357.333" y="344.333" type="line"/>
			<point x="311.667" y="351"/>
			<point x="292" y="369"/>
			<point x="292" y="407.333" type="curve" smooth="yes"/>
			<point x="292" y="416.667"/>
			<point x="293" y="427.333"/>
			<point x="295.333" y="439.333" type="curve" smooth="yes"/>
			<point x="325" y="600.667" type="line" smooth="yes"/>
			<point x="328" y="617"/>
			<point x="330" y="632.333"/>
			<point x="330" y="645.667" type="curve" smooth="yes"/>
			<point x="330" y="719"/>
			<point x="279" y="739"/>
			<point x="176.667" y="739" type="curve"/>
			<point x="162.667" y="663.333" type="line"/>
			<point x="213" y="659.667"/>
			<point x="229.333" y="651.333"/>
			<point x="229.333" y="616.667" type="curve" smooth="yes"/>
			<point x="229.333" y="605.667"/>
			<point x="227" y="589.333"/>
			<point x="224" y="571.667" type="curve" smooth="yes"/>
			<point x="198.333" y="433" type="line" smooth="yes"/>
			<point x="195.333" y="416"/>
			<point x="194" y="401"/>
			<point x="194" y="388.333" type="curve" smooth="yes"/>
			<point x="194" y="339.667"/>
			<point x="218.333" y="320.333"/>
			<point x="265" y="306" type="curve"/>
			<point x="193.333" y="286"/>
			<point x="166" y="257.333"/>
			<point x="151.667" y="178.667" type="curve" smooth="yes"/>
			<point x="125.667" y="40" type="line" smooth="yes"/>
			<point x="111.333" y="-37.667"/>
			<point x="97.667" y="-46"/>
			<point x="30" y="-51.667" type="curve"/>
		</contour>
	</outline>
</glyph>
<glyph name="asciitilde" format="2">
	<unicode hex="007E"/>
	<advance width="602"/>
	<outline>
		<contour>
			<point x="144.667" y="212.667" type="line"/>
			<point x="180" y="261.333"/>
			<point x="210.333" y="296.667"/>
			<point x="252" y="296.667" type="curve" smooth="yes"/>
			<point x="268.667" y="296.667"/>
			<point x="279.667" y="293"/>
			<point x="315" y="277" type="curve" smooth="yes"/>
			<point x="365.333" y="254.667" type="line" smooth="yes"/>
			<point x="401" y="238.667"/>
			<point x="431" y="230.333"/>
			<point x="452.667" y="230.333" type="curve" smooth="yes"/>
			<point x="505.667" y="230.333"/>
			<point x="556" y="266.333"/>
			<point x="617" y="345.667" type="curve"/>
			<point x="571.667" y="410.667" type="line"/>
			<point x="534" y="360"/>
			<point x="500.333" y="334"/>
			<point x="480.333" y="334" type="curve" smooth="yes"/>
			<point x="462.333" y="334"/>
			<point x="441.333" y="341"/>
			<point x="404.333" y="357" type="curve" smooth="yes"/>
			<point x="343" y="383.333" type="line" smooth="yes"/>
			<point x="318.333" y="394.333"/>
			<point x="292.333" y="400.333"/>
			<point x="269.333" y="400.333" type="curve" smooth="yes"/>
			<point x="206.667" y="400.333"/>
			<point x="151" y="343.667"/>
			<point x="101" y="278.333" type="curve"/>
		</contour>
	</outline>
</glyph>
<glyph name="exclamdown" format="2">
	<unicode hex="00A1"/>
	<advance width="312"/>
	<outline>
		<contour>
			<point x="65" y="-187.333" type="line"/>
			<point x="178.333" y="-187.333" type="line"/>
			<point x="280" y="361.333" type="line"/>
			<point x="166.667" y="361.333" type="line"/>
		</contour>
		<contour>
			<point x="178.333" y="424.333" type="line"/>
			<point x="291.667" y="424.333" type="line"/>
			<point x="315.333" y="551.667" type="line"/>
			<point x="202" y="551.667" type="line"/>
		</contour>
	</outline>
</glyph>
<glyph name="cent" format="2">
	<unicode hex="00A2"/>
	<advance width="558"/>
	<outline>
		<contour>
			<point x="243.333" y="46.667" type="line"/>
			<point x="348.667" y="46.667" type="line"/>
			<point x="367.667" y="149" type="line"/>
			<point x="451" y="166.667"/>
			<point x="520.667" y="219.667"/>
			<point x="567.667" y="303.333" type="curve"/>
			<point x="443.333" y="303.333" type="line"/>
			<point x="405" y="267.333"/>
			<point x="371.667" y="252.333"/>
			<point x="330.667" y="252.333" type="curve" smooth="yes"/>
			<point x="268" y="252.333"/>
			<point x="225.667" y="295.333"/>
			<point x="225.667" y="355" type="curve" smooth="yes"/>
			<point x="225.667" y="435.667"/>
			<point x="294" y="508.333"/>
			<point x="376" y="508.333" type="curve" smooth="yes"/>
			<point x="421.667" y="508.333"/>
			<point x="457.667" y="486.667"/>
			<point x="474.667" y="449.667" type="curve"/>
			<point x="597" y="449.667" type="line"/>
			<point x="590.333" y="531.667"/>
			<point x="536.333" y="594"/>
			<point x="453.667" y="612" type="curve"/>
			<point x="472.667" y="712.333" type="line"/>
			<point x="367.333" y="712.333" type="line"/>
			<point x="348.333" y="612" type="line"/>
			<point x="216.333" y="586"/>
			<point x="110.667" y="473"/>
			<point x="110.667" y="334.667" type="curve" smooth="yes"/>
			<point x="110.667" y="239.333"/>
			<point x="165.667" y="166"/>
			<point x="262.333" y="149" type="curve"/>
		</contour>
	</outline>
</glyph>
<glyph name="sterling" format="2">
	<unicode hex="00A3"/>
	<advance width="558"/>
	<outline>
		<contour>
			<point x="47" y="0" type="line"/>
			<point x="315.333" y="0" type="line" smooth="yes"/>
			<point x="457.333" y="0"/>
			<point x="615.667" y="80.667"/>
			<point x="615.667" y="244.333" type="curve" smooth="yes"/>
			<point x="615.667" y="252.667"/>
			<point x="615" y="261"/>
			<point x="613.333" y="272" type="curve"/>
			<point x="501.333" y="272" type="line"/>
			<point x="503.333" y="261.667"/>
			<point x="503.667" y="252.333"/>
			<point x="503.667" y="244" type="curve" smooth="yes"/>
			<point x="503.667" y="153.333"/>
			<point x="439" y="105.667"/>
			<point x="351.333" y="105.667" type="curve" smooth="yes"/>
			<point x="327.667" y="105.667" type="line"/>
			<point x="348.667" y="143.667"/>
			<point x="366" y="185.667"/>
			<point x="366" y="229.333" type="curve" smooth="yes"/>
			<point x="366" y="258.667"/>
			<point x="357.333" y="288"/>
			<point x="340.667" y="322.333" type="curve"/>
			<point x="483.667" y="322.333" type="line"/>
			<point x="504" y="428" type="line"/>
			<point x="271.333" y="428" type="line"/>
			<point x="260.667" y="447.333"/>
			<point x="256" y="463.667"/>
			<point x="256" y="482.667" type="curve" smooth="yes"/>
			<point x="256" y="580.667"/>
			<point x="316" y="648.333"/>
			<point x="410" y="648.333" type="curve" smooth="yes"/>
			<point x="472.667" y="648.333"/>
			<point x="511.333" y="609.333"/>
			<point x="514.333" y="541" type="curve"/>
			<point x="627.333" y="541" type="line"/>
			<point x="628.333" y="548.333"/>
			<point x="628.667" y="559"/>
			<point x="628.667" y="567.333" type="curve" smooth="yes"/>
			<point x="628.667" y="676.667"/>
			<point x="549.333" y="752"/>
			<point x="427.667" y="752" type="curve" smooth="yes"/>
			<point x="257.333" y="752"/>
			<point x="142.667" y="642"/>
			<point x="142.667" y="476" type="curve" smooth="yes"/>
			<point x="142.667" y="460.333"/>
			<point x="145" y="446"/>
			<point x="149.333" y="428" type="curve"/>
			<point x="85.667" y="428" type="line"/>
			<point x="65.333" y="322.333" type="line"/>
			<point x="202" y="322.333" type="line"/>
			<point x="237" y="283"/>
			<point x="252" y="255.333"/>
			<point x="252" y="221.333" type="curve" smooth="yes"/>
			<point x="252" y="178.333"/>
			<point x="234" y="137"/>
			<point x="205.333" y="105.667" type="curve"/>
			<point x="66.333" y="105.667" type="line"/>
		</contour>
	</outline>
</glyph>
<glyph name="currency" format="2">
	<unicode hex="00A4"/>
	<advance width="558"/>
	<outline>
		<contour>
			<point x="120.333" y="118" type="line"/>
			<point x="171.667" y="160" type="line"/>
			<point x="211.333" y="131.667"/>
			<point x="252" y="118.667"/>
			<point x="301" y="118.667" type="curve" smooth="yes"/>
			<point x="350" y="118.667"/>
			<point x="395.333" y="131.333"/>
			<point x="447" y="160" type="curve"/>
			<point x="482" y="118" type="line"/>
			<point x="564.667" y="189" type="line"/>
			<point x="530.333" y="231.667" type="line"/>
			<point x="568.667" y="275"/>
			<point x="587" y="312"/>
			<point x="596.667" y="366" type="curve" smooth="yes"/>
			<point x="600" y="385"/>
			<point x="601.667" y="401"/>
			<point x="601.667" y="416.667" type="curve" smooth="yes"/>
			<point x="601.667" y="445.667"/>
			<point x="596" y="471.333"/>
			<point x="582" y="503.333" type="curve"/>
			<point x="631.667" y="546" type="line"/>
			<point x="575.667" y="618.333" type="line"/>
			<point x="523.333" y="575.667" type="line"/>
			<point x="485.333" y="602.667"/>
			<point x="443.333" y="615"/>
			<point x="392.667" y="615" type="curve" smooth="yes"/>
			<point x="342.667" y="615"/>
			<point x="301.333" y="603.333"/>
			<point x="250.333" y="575.333" type="curve"/>
			<point x="214" y="618.667" type="line"/>
			<point x="129" y="547.333" type="line"/>
			<point x="163.667" y="503.333" type="line"/>
			<point x="123.667" y="450.667"/>
			<point x="108.333" y="420.667"/>
			<point x="98.667" y="367.667" type="curve" smooth="yes"/>
			<point x="95.333" y="349.333"/>
			<point x="93.667" y="334"/>
			<point x="93.667" y="319" type="curve" smooth="yes"/>
			<point x="93.667" y="291.333"/>
			<point x="99.333" y="265.667"/>
			<point x="112.667" y="232.333" type="curve"/>
			<point x="63.333" y="190" type="line"/>
		</contour>
		<contour>
			<point x="200" y="340.667" type="curve" smooth="yes"/>
			<point x="200" y="349.667"/>
			<point x="201" y="358.667"/>
			<point x="202.333" y="368" type="curve"/>
			<point x="217.333" y="447.667"/>
			<point x="293.333" y="511.667"/>
			<point x="373.667" y="511.667" type="curve" smooth="yes"/>
			<point x="447" y="511.667"/>
			<point x="494.333" y="464.333"/>
			<point x="494.333" y="395.667" type="curve" smooth="yes"/>
			<point x="494.333" y="386.333"/>
			<point x="493.667" y="376.333"/>
			<point x="491.667" y="366" type="curve" smooth="yes"/>
			<point x="476.667" y="286"/>
			<point x="402.333" y="222.667"/>
			<point x="322" y="222.667" type="curve" smooth="yes"/>
			<point x="250" y="222.667"/>
			<point x="200" y="272.333"/>
		</contour>
	</outline>
</glyph>
<glyph name="yen" format="2">
	<unicode hex="00A5"/>
	<advance width="558"/>
	<outline>
		<contour>
			<point x="227.333" y="0" type="line"/>
			<point x="340.333" y="0" type="line"/>
			<point x="378.333" y="203.667" type="line"/>
			<point x="578.333" y="203.667" type="line"/>
			<point x="593" y="284.667" type="line"/>
			<point x="401.667" y="284.667" type="line"/>
			<point x="474" y="385.333" type="line"/>
			<point x="613.667" y="385.333" type="line"/>
			<point x="629.333" y="466.333" type="line"/>
			<point x="533.667" y="466.333" type="line"/>
			<point x="728" y="739" type="line"/>
			<point x="600" y="739" type="line"/>
			<point x="353.333" y="374.333" type="line"/>
			<point x="240.333" y="739" type="line"/>
			<point x="115.667" y="739" type="line"/>
			<point x="208.667" y="466.333" type="line"/>
			<point x="111" y="466.333" type="line"/>
			<point x="95.333" y="385.333" type="line"/>
			<point x="235.667" y="385.333" type="line"/>
			<point x="271" y="284.667" type="line"/>
			<point x="79.333" y="284.667" type="line"/>
			<point x="64.667" y="203.667" type="line"/>
			<point x="265.333" y="203.667" type="line"/>
		</contour>
	</outline>
</glyph>
<glyph name="brokenbar" format="2">
	<unicode hex="00A6"/>
	<advance width="624"/>
	<outline>
		<contour>
			<point x="342.667" y="439.333" type="line"/>
			<point x="443.333" y="439.333" type="line"/>
			<point x="499" y="739" type="line"/>
			<point x="398.333" y="739" type="line"/>
		</contour>
		<contour>
			<point x="261.333" y="0" type="line"/>
			<point x="362" y="0" type="line"/>
			<point x="417.667" y="299.667" type="line"/>
			<point x="317" y="299.667" type="line"/>
		</contour>
	</outline>
</glyph>
<glyph name="section" format="2">
	<unicode hex="00A7"/>
	<advance width="578"/>
	<outline>
		<contour>
			<point x="82.667" y="58" type="line"/>
			<point x="81.333" y="45"/>
			<point x="80.333" y="32.333"/>
			<point x="80.333" y="19.667" type="curve" smooth="yes"/>
			<point x="80.333" y="-88.333"/>
			<point x="158" y="-151.667"/>
			<point x="265.667" y="-151.667" type="curve" smooth="yes"/>
			<point x="388" y="-151.667"/>
			<point x="509" y="-63.667"/>
			<point x="509" y="65.667" type="curve" smooth="yes"/>
			<point x="509" y="96"/>
			<point x="499.667" y="121.667"/>
			<point x="478" y="148.667" type="curve"/>
			<point x="534.333" y="186"/>
			<point x="582.333" y="248"/>
			<point x="582.333" y="318.333" type="curve" smooth="yes"/>
			<point x="582.333" y="366.333"/>
			<point x="557" y="406.333"/>
			<point x="511.333" y="431" type="curve" smooth="yes"/>
			<point x="364" y="509.667" type="line" smooth="yes"/>
			<point x="333" y="526"/>
			<point x="316.333" y="547.667"/>
			<point x="316.333" y="572.667" type="curve" smooth="yes"/>
			<point x="316.333" y="622.333"/>
			<point x="364.667" y="648.333"/>
			<point x="409.333" y="648.333" type="curve" smooth="yes"/>
			<point x="463" y="648.333"/>
			<point x="487.667" y="626.333"/>
			<point x="488" y="577.333" type="curve"/>
			<point x="595.667" y="577.333" type="line"/>
			<point x="596.667" y="582"/>
			<point x="597.333" y="589.667"/>
			<point x="597.333" y="596" type="curve" smooth="yes"/>
			<point x="597.333" y="695.667"/>
			<point x="538.333" y="752"/>
			<point x="432" y="752" type="curve" smooth="yes"/>
			<point x="318.333" y="752"/>
			<point x="207" y="674.667"/>
			<point x="207" y="554" type="curve" smooth="yes"/>
			<point x="207" y="531.667"/>
			<point x="212" y="513"/>
			<point x="224" y="492.333" type="curve"/>
			<point x="156.333" y="449.333"/>
			<point x="113" y="391"/>
			<point x="113" y="310" type="curve" smooth="yes"/>
			<point x="113" y="259.667"/>
			<point x="138" y="223.667"/>
			<point x="192" y="193.667" type="curve" smooth="yes"/>
			<point x="333.333" y="114.333" type="line" smooth="yes"/>
			<point x="381.667" y="87.333"/>
			<point x="399.667" y="70.333"/>
			<point x="399.667" y="44.667" type="curve" smooth="yes"/>
			<point x="399.667" y="-14"/>
			<point x="337.667" y="-48"/>
			<point x="285.667" y="-48" type="curve" smooth="yes"/>
			<point x="238" y="-48"/>
			<point x="191.667" y="-20.667"/>
			<point x="191.667" y="31.667" type="curve" smooth="yes"/>
			<point x="191.667" y="40.667"/>
			<point x="192.333" y="49"/>
			<point x="194.667" y="58" type="curve"/>
		</contour>
		<contour>
			<point x="415.667" y="204" type="curve"/>
			<point x="264.333" y="286.667" type="line" smooth="yes"/>
			<point x="232.333" y="304.333"/>
			<point x="217.667" y="322"/>
			<point x="217.667" y="342.667" type="curve" smooth="yes"/>
			<point x="217.667" y="378.667"/>
			<point x="249.667" y="408"/>
			<point x="277.333" y="426.667" type="curve"/>
			<point x="424.667" y="347.667" type="line" smooth="yes"/>
			<point x="460" y="328.333"/>
			<point x="473.667" y="312.667"/>
			<point x="473.667" y="291" type="curve" smooth="yes"/>
			<point x="473.667" y="255"/>
			<point x="443.667" y="221.667"/>
		</contour>
	</outline>
</glyph>
<glyph name="dieresis" format="2">
	<unicode hex="00A8"/>
	<advance width="437"/>
	<outline>
		<contour>
			<point x="183.667" y="627.667" type="line"/>
			<point x="297" y="627.667" type="line"/>
			<point x="321" y="758.333" type="line"/>
			<point x="207.667" y="758.333" type="line"/>
		</contour>
		<contour>
			<point x="372.667" y="627.667" type="line"/>
			<point x="486" y="627.667" type="line"/>
			<point x="510" y="758.333" type="line"/>
			<point x="396.667" y="758.333" type="line"/>
		</contour>
	</outline>
</glyph>
<glyph name="copyright" format="2">
	<unicode hex="00A9"/>
	<advance width="776"/>
	<outline>
		<contour>
			<point x="555" y="300.333" type="line"/>
			<point x="521.333" y="257"/>
			<point x="481.667" y="234.667"/>
			<point x="437" y="234.667" type="curve" smooth="yes"/>
			<point x="375" y="234.667"/>
			<point x="333.333" y="282"/>
			<point x="333.333" y="345" type="curve" smooth="yes"/>
			<point x="333.333" y="353.667"/>
			<point x="333.667" y="363"/>
			<point x="335.667" y="372.667" type="curve" smooth="yes"/>
			<point x="350" y="449.333"/>
			<point x="417.333" y="508.667"/>
			<point x="488.667" y="508.667" type="curve" smooth="yes"/>
			<point x="534.667" y="508.667"/>
			<point x="568.333" y="483.333"/>
			<point x="582.333" y="440.333" type="curve"/>
			<point x="681" y="440.333" type="line"/>
			<point x="671.667" y="527.333"/>
			<point x="599.667" y="589.333"/>
			<point x="503.667" y="589.333" type="curve" smooth="yes"/>
			<point x="381.667" y="589.333"/>
			<point x="267.667" y="494"/>
			<point x="245.333" y="372" type="curve"/>
			<point x="242.333" y="358"/>
			<point x="241.333" y="344.667"/>
			<point x="241.333" y="331.667" type="curve" smooth="yes"/>
			<point x="241.333" y="230.333"/>
			<point x="315.667" y="154"/>
			<point x="423" y="154" type="curve" smooth="yes"/>
			<point x="517.667" y="154"/>
			<point x="608.333" y="211.333"/>
			<point x="654" y="300.333" type="curve"/>
		</contour>
		<contour>
			<point x="65.667" y="299.667" type="curve" smooth="yes"/>
			<point x="65.667" y="121.667"/>
			<point x="198" y="-13"/>
			<point x="386.333" y="-13" type="curve" smooth="yes"/>
			<point x="598" y="-13"/>
			<point x="801.333" y="158"/>
			<point x="840.333" y="369" type="curve" smooth="yes"/>
			<point x="844.333" y="393"/>
			<point x="847.333" y="415.333"/>
			<point x="847.333" y="438.333" type="curve" smooth="yes"/>
			<point x="847.333" y="615.333"/>
			<point x="716" y="752"/>
			<point x="531.667" y="752" type="curve" smooth="yes"/>
			<point x="314" y="752"/>
			<point x="111.667" y="583"/>
			<point x="71.667" y="369" type="curve" smooth="yes"/>
			<point x="67.667" y="345"/>
			<point x="65.667" y="322"/>
		</contour>
		<contour>
			<point x="138.667" y="312.667" type="curve" smooth="yes"/>
			<point x="138.667" y="331.333"/>
			<point x="141" y="350"/>
			<point x="144.333" y="369.667" type="curve" smooth="yes"/>
			<point x="176.333" y="541.333"/>
			<point x="342.333" y="683.333"/>
			<point x="511" y="683.333" type="curve" smooth="yes"/>
			<point x="667.333" y="683.333"/>
			<point x="774.333" y="574.667"/>
			<point x="774.333" y="428" type="curve" smooth="yes"/>
			<point x="774.333" y="408.667"/>
			<point x="772.333" y="389.667"/>
			<point x="768.333" y="369" type="curve" smooth="yes"/>
			<point x="736.333" y="197.667"/>
			<point x="570.667" y="57.667"/>
			<point x="398" y="57.667" type="curve" smooth="yes"/>
			<point x="245.667" y="57.667"/>
			<point x="138.667" y="167.667"/>
		</contour>
	</outline>
</glyph>
<glyph name="ordfeminine" format="2">
	<unicode hex="00AA"/>
	<advance width="378"/>
	<outline>
		<contour>
			<point x="360" y="443.333" type="line"/>
			<point x="420" y="443.333" type="line"/>
			<point x="474.667" y="739" type="line"/>
			<point x="414.667" y="739" type="line"/>
			<point x="407.333" y="698" type="line"/>
			<point x="389.667" y="730.667"/>
			<point x="357.333" y="748.333"/>
			<point x="317.667" y="748.333" type="curve" smooth="yes"/>
			<point x="235" y="748.333"/>
			<point x="156" y="679.667"/>
			<point x="140.333" y="592.667" type="curve" smooth="yes"/>
			<point x="138.333" y="581.667"/>
			<point x="137" y="570.667"/>
			<point x="137" y="560.333" type="curve" smooth="yes"/>
			<point x="137" y="488"/>
			<point x="185.667" y="434.333"/>
			<point x="256" y="434.333" type="curve" smooth="yes"/>
			<point x="297.667" y="434.333"/>
			<point x="334.333" y="451.333"/>
			<point x="367.333" y="485.667" type="curve"/>
		</contour>
		<contour>
			<point x="279" y="500" type="curve" smooth="yes"/>
			<point x="236.667" y="500"/>
			<point x="206.667" y="532.333"/>
			<point x="206.667" y="574" type="curve" smooth="yes"/>
			<point x="206.667" y="579.333"/>
			<point x="207" y="584.667"/>
			<point x="208" y="590.667" type="curve" smooth="yes"/>
			<point x="217.333" y="640.333"/>
			<point x="264.667" y="682.667"/>
			<point x="311.333" y="682.667" type="curve" smooth="yes"/>
			<point x="354.667" y="682.667"/>
			<point x="384" y="652.667"/>
			<point x="384" y="610" type="curve" smooth="yes"/>
			<point x="384" y="604"/>
			<point x="383.667" y="597.667"/>
			<point x="382.667" y="591.333" type="curve" smooth="yes"/>
			<point x="373.333" y="540.667"/>
			<point x="327" y="500"/>
		</contour>
		<contour>
			<point x="90" y="313" type="line"/>
			<point x="400" y="313" type="line"/>
			<point x="412" y="376.667" type="line"/>
			<point x="102" y="376.667" type="line"/>
		</contour>
	</outline>
</glyph>
<glyph name="guillemotleft" format="2">
	<unicode hex="00AB"/>
	<advance width="448"/>
	<outline>
		<contour>
			<point x="193" y="105" type="line"/>
			<point x="230" y="198" type="line"/>
			<point x="172" y="292.667" type="line"/>
			<point x="265" y="386.333" type="line"/>
			<point x="262.333" y="479" type="line"/>
			<point x="104" y="326.667" type="line"/>
			<point x="91.333" y="258.667" type="line"/>
		</contour>
		<contour>
			<point x="392.667" y="105" type="line"/>
			<point x="429.667" y="198" type="line"/>
			<point x="371.667" y="292.667" type="line"/>
			<point x="464.667" y="386.333" type="line"/>
			<point x="462" y="479" type="line"/>
			<point x="303" y="326.667" type="line"/>
			<point x="290.333" y="258.667" type="line"/>
		</contour>
	</outline>
</glyph>
<glyph name="logicalnot" format="2">
	<unicode hex="00AC"/>
	<advance width="602"/>
	<outline>
		<contour>
			<point x="113.333" y="360.333" type="line"/>
			<point x="517.333" y="360.333" type="line"/>
			<point x="482" y="170.667" type="line"/>
			<point x="582" y="170.667" type="line"/>
			<point x="636" y="460.667" type="line"/>
			<point x="132" y="460.667" type="line"/>
		</contour>
	</outline>
</glyph>
<glyph name="softhyphen" format="2">
	<unicode hex="00AD"/>
	<advance width="335"/>
	<outline>
		<contour>
			<point x="72.667" y="230.333" type="line"/>
			<point x="347.667" y="230.333" type="line"/>
			<point x="366.333" y="330" type="line"/>
			<point x="91.333" y="330" type="line"/>
		</contour>
	</outline>
</glyph>
<glyph name="registered" format="2">
	<unicode hex="00AE"/>
	<advance width="776"/>
	<outline>
		<contour>
			<point x="280.333" y="163" type="line"/>
			<point x="368" y="163" type="line"/>
			<point x="397.333" y="319.667" type="line"/>
			<point x="480.333" y="163" type="line"/>
			<point x="586.333" y="163" type="line"/>
			<point x="498.667" y="310.333" type="line"/>
			<point x="569.667" y="321.333"/>
			<point x="619" y="370"/>
			<point x="632.333" y="440.667" type="curve" smooth="yes"/>
			<point x="634.333" y="450.667"/>
			<point x="635.333" y="460"/>
			<point x="635.333" y="469" type="curve" smooth="yes"/>
			<point x="635.333" y="501.333"/>
			<point x="624.667" y="529.667"/>
			<point x="605.667" y="549" type="curve" smooth="yes"/>
			<point x="582.667" y="572.667"/>
			<point x="552.333" y="581"/>
			<point x="488.667" y="581" type="curve" smooth="yes"/>
			<point x="357.333" y="581" type="line"/>
		</contour>
		<contour>
			<point x="406.333" y="369.667" type="line"/>
			<point x="430.333" y="499.667" type="line"/>
			<point x="478" y="499.667" type="line" smooth="yes"/>
			<point x="521" y="499.667"/>
			<point x="544.667" y="481.667"/>
			<point x="544.667" y="450" type="curve" smooth="yes"/>
			<point x="544.667" y="445.667"/>
			<point x="544.333" y="440.333"/>
			<point x="543.333" y="436" type="curve"/>
			<point x="535.333" y="393.333"/>
			<point x="500.667" y="369.667"/>
			<point x="445.667" y="369.667" type="curve" smooth="yes"/>
		</contour>
		<contour>
			<point x="65.667" y="299.667" type="curve" smooth="yes"/>
			<point x="65.667" y="121.667"/>
			<point x="198" y="-13"/>
			<point x="386.333" y="-13" type="curve" smooth="yes"/>
			<point x="598" y="-13"/>
			<point x="801.333" y="158"/>
			<point x="840.333" y="369" type="curve" smooth="yes"/>
			<point x="844.333" y="393"/>
			<point x="847.333" y="415.333"/>
			<point x="847.333" y="438.333" type="curve" smooth="yes"/>
			<point x="847.333" y="615.333"/>
			<point x="716" y="752"/>
			<point x="531.667" y="752" type="curve" smooth="yes"/>
			<point x="314" y="752"/>
			<point x="111.667" y="583"/>
			<point x="71.667" y="369" type="curve" smooth="yes"/>
			<point x="67.667" y="345"/>
			<point x="65.667" y="322"/>
		</contour>
		<contour>
			<point x="138.667" y="312.667" type="curve" smooth="yes"/>
			<point x="138.667" y="331.333"/>
			<point x="141" y="350"/>
			<point x="144.333" y="369.667" type="curve" smooth="yes"/>
			<point x="176.333" y="541.333"/>
			<point x="342.333" y="683.333"/>
			<point x="511" y="683.333" type="curve" smooth="yes"/>
			<point x="667.333" y="683.333"/>
			<point x="774.333" y="574.667"/>
			<point x="774.333" y="428" type="curve" smooth="yes"/>
			<point x="774.333" y="408.667"/>
			<point x="772.333" y="389.667"/>
			<point x="768.333" y="369" type="curve" smooth="yes"/>
			<point x="736.333" y="197.667"/>
			<point x="570.667" y="57.667"/>
			<point x="398" y="57.667" type="curve" smooth="yes"/>
			<point x="245.667" y="57.667"/>
			<point x="138.667" y="167.667"/>
		</contour>
	</outline>
</glyph>
<glyph name="plusminus" format="2">
	<unicode hex="00B1"/>
	<advance width="602"/>
	<outline>
		<contour>
			<point x="216.667" y="215" type="line"/>
			<point x="368" y="215" type="line"/>
			<point x="378" y="268" type="line"/>
			<point x="531.667" y="268" type="line"/>
			<point x="557" y="403.667" type="line"/>
			<point x="500" y="403.667" type="line"/>
			<point x="528.333" y="558.333" type="line"/>
			<point x="377.333" y="558.333" type="line"/>
			<point x="366.667" y="500.333" type="line"/>
			<point x="213" y="500.333" type="line"/>
			<point x="185" y="349.667" type="line"/>
			<point x="241.667" y="349.667" type="line"/>
		</contour>
		<contour>
			<point x="49" y="0" type="line"/>
			<point x="553" y="0" type="line"/>
			<point x="572.333" y="103.333" type="line"/>
			<point x="68.333" y="103.333" type="line"/>
		</contour>
	</outline>
</glyph>
<glyph name="twosuperior" format="2">
	<unicode hex="00B2"/>
	<advance width="335"/>
	<outline>
		<contour>
			<point x="67" y="293.333" type="line"/>
			<point x="376.333" y="293.333" type="line"/>
			<point x="390" y="365" type="line"/>
			<point x="197" y="365" type="line"/>
			<point x="320.667" y="455.333" type="line" smooth="yes"/>
			<point x="378" y="496.333"/>
			<point x="438.333" y="554.333"/>
			<point x="438.333" y="629.667" type="curve" smooth="yes"/>
			<point x="438.333" y="698.333"/>
			<point x="385.667" y="747"/>
			<point x="307.667" y="747" type="curve" smooth="yes"/>
			<point x="205" y="747"/>
			<point x="138" y="679"/>
			<point x="120" y="582.333" type="curve"/>
			<point x="198" y="582.333" type="line"/>
			<point x="208.667" y="638.333"/>
			<point x="242.333" y="676"/>
			<point x="294.667" y="676" type="curve" smooth="yes"/>
			<point x="333" y="676"/>
			<point x="358.333" y="651"/>
			<point x="358.333" y="617.333" type="curve" smooth="yes"/>
			<point x="358.333" y="582.333"/>
			<point x="342" y="561"/>
			<point x="295.667" y="525.667" type="curve" smooth="yes"/>
			<point x="79.667" y="359.667" type="line"/>
		</contour>
	</outline>
</glyph>
<glyph name="threesuperior" format="2">
	<unicode hex="00B3"/>
	<advance width="335"/>
	<outline>
		<contour>
			<point x="87.333" y="436.333" type="line"/>
			<point x="86" y="426.333"/>
			<point x="85" y="417.333"/>
			<point x="85" y="408.667" type="curve" smooth="yes"/>
			<point x="85" y="335"/>
			<point x="140" y="285.333"/>
			<point x="220.667" y="285.333" type="curve" smooth="yes"/>
			<point x="316.333" y="285.333"/>
			<point x="409.667" y="363.667"/>
			<point x="409.667" y="462.667" type="curve" smooth="yes"/>
			<point x="409.667" y="500.667"/>
			<point x="392.667" y="530.667"/>
			<point x="360.667" y="549.333" type="curve"/>
			<point x="395" y="573.667"/>
			<point x="413.333" y="606.667"/>
			<point x="413.333" y="648.667" type="curve" smooth="yes"/>
			<point x="413.333" y="706"/>
			<point x="369.333" y="746.333"/>
			<point x="304.333" y="746.333" type="curve" smooth="yes"/>
			<point x="228" y="746.333"/>
			<point x="173" y="697.667"/>
			<point x="153.667" y="623.667" type="curve"/>
			<point x="233.333" y="623.667" type="line"/>
			<point x="243" y="656.333"/>
			<point x="259" y="676"/>
			<point x="292" y="676" type="curve" smooth="yes"/>
			<point x="317.333" y="676"/>
			<point x="333.667" y="660.667"/>
			<point x="333.667" y="639" type="curve" smooth="yes"/>
			<point x="333.667" y="593.667"/>
			<point x="288" y="582.333"/>
			<point x="250" y="582.333" type="curve" smooth="yes"/>
			<point x="235.333" y="582.333" type="line"/>
			<point x="222" y="509.667" type="line"/>
			<point x="241.667" y="509.667" type="line" smooth="yes"/>
			<point x="292.667" y="509.667"/>
			<point x="329.333" y="490.333"/>
			<point x="329.333" y="446.333" type="curve" smooth="yes"/>
			<point x="329.333" y="395.667"/>
			<point x="282.667" y="356.333"/>
			<point x="233.667" y="356.333" type="curve" smooth="yes"/>
			<point x="195" y="356.333"/>
			<point x="165" y="381.667"/>
			<point x="165" y="415.667" type="curve" smooth="yes"/>
			<point x="165" y="421.667"/>
			<point x="165" y="428"/>
			<point x="166.333" y="436.333" type="curve"/>
		</contour>
	</outline>
</glyph>
<glyph name="acute" format="2">
	<unicode hex="00B4"/>
	<advance width="396"/>
	<outline>
		<contour>
			<point x="226.333" y="612" type="line"/>
			<point x="463.667" y="730" type="line"/>
			<point x="431.333" y="810.667" type="line"/>
			<point x="193.667" y="682.667" type="line"/>
		</contour>
	</outline>
</glyph>
<glyph name="mu" format="2">
	<unicode hex="00B5"/>
	<advance width="603"/>
	<outline>
		<contour>
			<point x="22.333" y="-187.333" type="line"/>
			<point x="135.667" y="-187.333" type="line"/>
			<point x="182.333" y="63" type="line"/>
			<point x="207" y="11.333"/>
			<point x="245" y="-13"/>
			<point x="300.333" y="-13" type="curve" smooth="yes"/>
			<point x="360" y="-13"/>
			<point x="403.667" y="9.333"/>
			<point x="451.667" y="63.667" type="curve"/>
			<point x="439.667" y="0" type="line"/>
			<point x="546.333" y="0" type="line"/>
			<point x="648.667" y="551.667" type="line"/>
			<point x="535.333" y="551.667" type="line"/>
			<point x="485.333" y="284" type="line" smooth="yes"/>
			<point x="472.667" y="214.333"/>
			<point x="459.667" y="177"/>
			<point x="439" y="149" type="curve" smooth="yes"/>
			<point x="411.333" y="112.667"/>
			<point x="367" y="90.667"/>
			<point x="322.667" y="90.667" type="curve" smooth="yes"/>
			<point x="283.667" y="90.667"/>
			<point x="250.333" y="109"/>
			<point x="230.333" y="141.667" type="curve"/>
			<point x="217.667" y="160"/>
			<point x="212.333" y="175.333"/>
			<point x="212.333" y="199.667" type="curve" smooth="yes"/>
			<point x="212.333" y="219.333"/>
			<point x="215.333" y="244.667"/>
			<point x="222.667" y="284" type="curve" smooth="yes"/>
			<point x="272.667" y="551.667" type="line"/>
			<point x="159.333" y="551.667" type="line"/>
		</contour>
	</outline>
</glyph>
<glyph name="paragraph" format="2">
	<unicode hex="00B6"/>
	<advance width="588"/>
	<outline>
		<contour>
			<point x="212" y="-129.667" type="line"/>
			<point x="304.333" y="-129.667" type="line"/>
			<point x="448.333" y="645.333" type="line"/>
			<point x="542.333" y="645.333" type="line"/>
			<point x="398.333" y="-129.667" type="line"/>
			<point x="490.667" y="-129.667" type="line"/>
			<point x="652" y="739" type="line"/>
			<point x="429.667" y="739" type="line" smooth="yes"/>
			<point x="359" y="739"/>
			<point x="305.333" y="729.333"/>
			<point x="266" y="710" type="curve" smooth="yes"/>
			<point x="198.333" y="677"/>
			<point x="151" y="613.333"/>
			<point x="137" y="538.333" type="curve" smooth="yes"/>
			<point x="134" y="523.667"/>
			<point x="133" y="509.333"/>
			<point x="133" y="495.667" type="curve" smooth="yes"/>
			<point x="133" y="403.667"/>
			<point x="194.667" y="343"/>
			<point x="299" y="338.333" type="curve"/>
		</contour>
	</outline>
</glyph>
<glyph name="periodcentered" format="2">
	<unicode hex="00B7"/>
	<advance width="280"/>
	<outline>
		<contour>
			<point x="134.333" y="276.333" type="line"/>
			<point x="247.667" y="276.333" type="line"/>
			<point x="272.333" y="407" type="line"/>
			<point x="158.333" y="407" type="line"/>
		</contour>
	</outline>
</glyph>
<glyph name="cedilla" format="2">
	<unicode hex="00B8"/>
	<advance width="324"/>
	<outline>
		<contour>
			<point x="38" y="-157.333" type="line"/>
			<point x="38.667" y="-206.333"/>
			<point x="69.667" y="-238.333"/>
			<point x="119" y="-238.333" type="curve" smooth="yes"/>
			<point x="174.333" y="-238.333"/>
			<point x="220" y="-198.667"/>
			<point x="230.667" y="-141" type="curve"/>
			<point x="231.667" y="-134.333"/>
			<point x="232.667" y="-127.667"/>
			<point x="232.667" y="-121.667" type="curve" smooth="yes"/>
			<point x="232.667" y="-78.667"/>
			<point x="204.667" y="-47"/>
			<point x="162.333" y="-47" type="curve" smooth="yes"/>
			<point x="152.667" y="-47"/>
			<point x="144.667" y="-49"/>
			<point x="130" y="-54.333" type="curve"/>
			<point x="160.667" y="0" type="line"/>
			<point x="114" y="0" type="line"/>
			<point x="60" y="-97.667" type="line"/>
			<point x="100" y="-120.667" type="line"/>
			<point x="117.667" y="-101.667"/>
			<point x="129.333" y="-94.667"/>
			<point x="145.333" y="-94.667" type="curve" smooth="yes"/>
			<point x="165" y="-94.667"/>
			<point x="178.333" y="-109.667"/>
			<point x="178.333" y="-131" type="curve" smooth="yes"/>
			<point x="178.333" y="-134.333"/>
			<point x="178.333" y="-138"/>
			<point x="177.333" y="-141.333" type="curve"/>
			<point x="172.333" y="-167"/>
			<point x="151.667" y="-187.333"/>
			<point x="128.333" y="-187.333" type="curve" smooth="yes"/>
			<point x="109.333" y="-187.333"/>
			<point x="97.667" y="-176.333"/>
			<point x="93.667" y="-155.667" type="curve"/>
		</contour>
	</outline>
</glyph>
<glyph name="onesuperior" format="2">
	<unicode hex="00B9"/>
	<advance width="335"/>
	<outline>
		<contour>
			<point x="205.333" y="293.333" type="line"/>
			<point x="284" y="293.333" type="line"/>
			<point x="366.667" y="739" type="line"/>
			<point x="223.667" y="739" type="line"/>
			<point x="210.333" y="667.333" type="line"/>
			<point x="274.667" y="667.333" type="line"/>
		</contour>
	</outline>
</glyph>
<glyph name="ordmasculine" format="2">
	<unicode hex="00BA"/>
	<advance width="368"/>
	<outline>
		<contour>
			<point x="138.333" y="568" type="curve" smooth="yes"/>
			<point x="138.333" y="496.667"/>
			<point x="191.333" y="442"/>
			<point x="266" y="442" type="curve" smooth="yes"/>
			<point x="350.667" y="442"/>
			<point x="432" y="511"/>
			<point x="447.667" y="596" type="curve" smooth="yes"/>
			<point x="449.667" y="605.667"/>
			<point x="450" y="614.333"/>
			<point x="450" y="623.333" type="curve" smooth="yes"/>
			<point x="450" y="693.667"/>
			<point x="398.333" y="748.333"/>
			<point x="324.667" y="748.333" type="curve" smooth="yes"/>
			<point x="238.333" y="748.333"/>
			<point x="157.333" y="681"/>
			<point x="141.333" y="596.333" type="curve" smooth="yes"/>
			<point x="139.333" y="586.667"/>
			<point x="138.333" y="577"/>
		</contour>
		<contour>
			<point x="233.333" y="551" type="curve"/>
			<point x="217" y="554.333"/>
			<point x="206.333" y="570"/>
			<point x="207" y="590" type="curve"/>
			<point x="212.333" y="622.333"/>
			<point x="241.333" y="649"/>
			<point x="270.333" y="651.333" type="curve"/>
			<point x="300.333" y="670"/>
			<point x="336.667" y="666"/>
			<point x="354.667" y="640.667" type="curve"/>
			<point x="371.333" y="637.333"/>
			<point x="382.667" y="622.333"/>
			<point x="382" y="603" type="curve"/>
			<point x="376" y="569.333"/>
			<point x="349" y="544"/>
			<point x="318" y="541.667" type="curve"/>
			<point x="287" y="522.667"/>
			<point x="251.667" y="525.667"/>
		</contour>
		<contour>
			<point x="89" y="313.667" type="line"/>
			<point x="395.333" y="313.667" type="line"/>
			<point x="407.333" y="377.333" type="line"/>
			<point x="101" y="377.333" type="line"/>
		</contour>
	</outline>
</glyph>
<glyph name="guillemotright" format="2">
	<unicode hex="00BB"/>
	<advance width="448"/>
	<outline>
		<contour>
			<point x="92" y="198" type="line"/>
			<point x="94.333" y="105" type="line"/>
			<point x="254" y="258.667" type="line"/>
			<point x="266.667" y="326.667" type="line"/>
			<point x="163.667" y="479" type="line"/>
			<point x="127" y="386.333" type="line"/>
			<point x="186" y="292.667" type="line"/>
		</contour>
		<contour>
			<point x="291.667" y="198" type="line"/>
			<point x="294" y="105" type="line"/>
			<point x="453" y="258.667" type="line"/>
			<point x="465.667" y="326.667" type="line"/>
			<point x="363.333" y="479" type="line"/>
			<point x="326.667" y="386.333" type="line"/>
			<point x="385.667" y="292.667" type="line"/>
		</contour>
	</outline>
</glyph>
<glyph name="onequarter" format="2">
	<unicode hex="00BC"/>
	<advance width="837"/>
	<outline>
		<contour>
			<point x="186.333" y="293.333" type="line"/>
			<point x="265" y="293.333" type="line"/>
			<point x="347.667" y="739" type="line"/>
			<point x="204.667" y="739" type="line"/>
			<point x="191.333" y="667.333" type="line"/>
			<point x="255.667" y="667.333" type="line"/>
		</contour>
		<contour>
			<point x="188.333" y="0" type="line"/>
			<point x="269.667" y="0" type="line"/>
			<point x="724.667" y="739" type="line"/>
			<point x="643" y="739" type="line"/>
		</contour>
		<contour>
			<point x="478.333" y="70.333" type="line"/>
			<point x="684.667" y="70.333" type="line"/>
			<point x="671.667" y="0" type="line"/>
			<point x="750.333" y="0" type="line"/>
			<point x="763.333" y="70.333" type="line"/>
			<point x="809.333" y="70.333" type="line"/>
			<point x="822" y="139.333" type="line"/>
			<point x="776" y="139.333" type="line"/>
			<point x="833" y="445.667" type="line"/>
			<point x="762" y="445.667" type="line"/>
			<point x="490" y="131.667" type="line"/>
		</contour>
		<contour>
			<point x="577.333" y="139.333" type="line"/>
			<point x="730.667" y="317" type="line"/>
			<point x="697.333" y="139.333" type="line"/>
		</contour>
	</outline>
</glyph>
<glyph name="onehalf" format="2">
	<unicode hex="00BD"/>
	<advance width="837"/>
	<outline>
		<contour>
			<point x="170" y="0" type="line"/>
			<point x="251.333" y="0" type="line"/>
			<point x="706.333" y="739" type="line"/>
			<point x="624.667" y="739" type="line"/>
		</contour>
		<contour>
			<point x="182" y="293.333" type="line"/>
			<point x="260.667" y="293.333" type="line"/>
			<point x="343.333" y="739" type="line"/>
			<point x="200.333" y="739" type="line"/>
			<point x="187" y="667.333" type="line"/>
			<point x="251.333" y="667.333" type="line"/>
		</contour>
		<contour>
			<point x="482" y="0" type="line"/>
			<point x="791.333" y="0" type="line"/>
			<point x="804.667" y="71.667" type="line"/>
			<point x="611.667" y="71.667" type="line"/>
			<point x="735.667" y="162" type="line" smooth="yes"/>
			<point x="794.333" y="204"/>
			<point x="853" y="259.333"/>
			<point x="853" y="336.333" type="curve" smooth="yes"/>
			<point x="853" y="405"/>
			<point x="801.333" y="453.667"/>
			<point x="723.333" y="453.667" type="curve" smooth="yes"/>
			<point x="620.667" y="453.667"/>
			<point x="552.333" y="385.667"/>
			<point x="535" y="289" type="curve"/>
			<point x="613" y="289" type="line"/>
			<point x="623.667" y="345.333"/>
			<point x="657" y="382.667"/>
			<point x="709.667" y="382.667" type="curve" smooth="yes"/>
			<point x="748" y="382.667"/>
			<point x="773.333" y="357.667"/>
			<point x="773.333" y="324" type="curve" smooth="yes"/>
			<point x="773.333" y="289.667"/>
			<point x="738.333" y="254.667"/>
			<point x="710.667" y="232.333" type="curve"/>
			<point x="494.333" y="66.333" type="line"/>
		</contour>
	</outline>
</glyph>
<glyph name="threequarters" format="2">
	<unicode hex="00BE"/>
	<advance width="837"/>
	<outline>
		<contour>
			<point x="89.333" y="436.333" type="line"/>
			<point x="87.667" y="426.333"/>
			<point x="86.667" y="417.333"/>
			<point x="86.667" y="409" type="curve" smooth="yes"/>
			<point x="86.667" y="335.333"/>
			<point x="142" y="285.333"/>
			<point x="222.667" y="285.333" type="curve" smooth="yes"/>
			<point x="318.333" y="285.333"/>
			<point x="411.667" y="363.667"/>
			<point x="411.667" y="462.667" type="curve" smooth="yes"/>
			<point x="411.667" y="500.667"/>
			<point x="394.667" y="530.667"/>
			<point x="362.667" y="549.333" type="curve"/>
			<point x="397" y="573.667"/>
			<point x="415.333" y="606.667"/>
			<point x="415.333" y="648.667" type="curve" smooth="yes"/>
			<point x="415.333" y="706"/>
			<point x="371.333" y="746.333"/>
			<point x="306.333" y="746.333" type="curve" smooth="yes"/>
			<point x="230" y="746.333"/>
			<point x="175" y="697.667"/>
			<point x="155.667" y="623.667" type="curve"/>
			<point x="235.333" y="623.667" type="line"/>
			<point x="245" y="656.333"/>
			<point x="261" y="676"/>
			<point x="294" y="676" type="curve" smooth="yes"/>
			<point x="319.333" y="676"/>
			<point x="335.667" y="660.667"/>
			<point x="335.667" y="639" type="curve" smooth="yes"/>
			<point x="335.667" y="591.667"/>
			<point x="286.667" y="582.333"/>
			<point x="248.667" y="582.333" type="curve" smooth="yes"/>
			<point x="237.333" y="582.333" type="line"/>
			<point x="224" y="509.667" type="line"/>
			<point x="243.667" y="509.667" type="line" smooth="yes"/>
			<point x="294.667" y="509.667"/>
			<point x="331.333" y="490.333"/>
			<point x="331.333" y="446.333" type="curve" smooth="yes"/>
			<point x="331.333" y="395.667"/>
			<point x="284.667" y="356.333"/>
			<point x="235.667" y="356.333" type="curve" smooth="yes"/>
			<point x="196.333" y="356.333"/>
			<point x="167" y="378.333"/>
			<point x="167" y="417.667" type="curve" smooth="yes"/>
			<point x="167" y="423"/>
			<point x="167" y="429.333"/>
			<point x="168.333" y="436.333" type="curve"/>
		</contour>
		<contour>
			<point x="247.667" y="0" type="line"/>
			<point x="329" y="0" type="line"/>
			<point x="784" y="739" type="line"/>
			<point x="702.333" y="739" type="line"/>
		</contour>
		<contour>
			<point x="508.333" y="70.333" type="line"/>
			<point x="714.667" y="70.333" type="line"/>
			<point x="701.667" y="0" type="line"/>
			<point x="780.333" y="0" type="line"/>
			<point x="793.333" y="70.333" type="line"/>
			<point x="839.333" y="70.333" type="line"/>
			<point x="852" y="139.333" type="line"/>
			<point x="806" y="139.333" type="line"/>
			<point x="863" y="445.667" type="line"/>
			<point x="792" y="445.667" type="line"/>
			<point x="520" y="131.667" type="line"/>
		</contour>
		<contour>
			<point x="607.333" y="139.333" type="line"/>
			<point x="760.667" y="317" type="line"/>
			<point x="727.333" y="139.333" type="line"/>
		</contour>
	</outline>
</glyph>
<glyph name="questiondown" format="2">
	<unicode hex="00BF"/>
	<advance width="543"/>
	<outline>
		<contour>
			<point x="395" y="35.667" type="line"/>
			<point x="373" y="-41.667"/>
			<point x="330" y="-90"/>
			<point x="256.333" y="-90" type="curve" smooth="yes"/>
			<point x="198.333" y="-90"/>
			<point x="160.333" y="-54"/>
			<point x="160.333" y="-1.333" type="curve" smooth="yes"/>
			<point x="160.333" y="50.333"/>
			<point x="198" y="92"/>
			<point x="240" y="124.667" type="curve" smooth="yes"/>
			<point x="323" y="188.333"/>
			<point x="375.333" y="239"/>
			<point x="397.333" y="347.667" type="curve" smooth="yes"/>
			<point x="400.333" y="362.667" type="line"/>
			<point x="288.333" y="362.667" type="line"/>
			<point x="286.333" y="350.667" type="line" smooth="yes"/>
			<point x="275" y="284"/>
			<point x="250" y="252.667"/>
			<point x="180.667" y="200.667" type="curve" smooth="yes"/>
			<point x="101" y="141"/>
			<point x="45.333" y="82.333"/>
			<point x="45.333" y="-21" type="curve" smooth="yes"/>
			<point x="45.333" y="-126.667"/>
			<point x="119.667" y="-200.333"/>
			<point x="233.333" y="-200.333" type="curve" smooth="yes"/>
			<point x="380" y="-200.333"/>
			<point x="473.667" y="-97.667"/>
			<point x="507" y="35.667" type="curve"/>
		</contour>
		<contour>
			<point x="298.667" y="424.333" type="line"/>
			<point x="412" y="424.333" type="line"/>
			<point x="435.667" y="551.667" type="line"/>
			<point x="322.333" y="551.667" type="line"/>
		</contour>
	</outline>
</glyph>
<glyph name="Agrave" format="2">
	<unicode hex="00C0"/>
	<advance width="740"/>
	<outline>
		<contour>
			<point x="8.333" y="0" type="line"/>
			<point x="135" y="0" type="line"/>
			<point x="264.333" y="210.333" type="line"/>
			<point x="554.333" y="210.333" type="line"/>
			<point x="604" y="0" type="line"/>
			<point x="731.667" y="0" type="line"/>
			<point x="556" y="739" type="line"/>
			<point x="456.333" y="739" type="line"/>
		</contour>
		<contour>
			<point x="328" y="320" type="line"/>
			<point x="477" y="582.333" type="line"/>
			<point x="529" y="320" type="line"/>
		</contour>
		<contour>
			<point x="373.667" y="908" type="line"/>
			<point x="568" y="789.333" type="line"/>
			<point x="627.667" y="860.667" type="line"/>
			<point x="436.667" y="986" type="line"/>
		</contour>
	</outline>
</glyph>
<glyph name="Aacute" format="2">
	<unicode hex="00C1"/>
	<advance width="740"/>
	<outline>
		<component base="A"/>
		<contour>
			<point x="464.333" y="789.333" type="line"/>
			<point x="701.667" y="907.333" type="line"/>
			<point x="669.333" y="988" type="line"/>
			<point x="432.333" y="860" type="line"/>
		</contour>
	</outline>
</glyph>
<glyph name="Acircumflex" format="2">
	<unicode hex="00C2"/>
	<advance width="740"/>
	<outline>
		<component base="A"/>
		<contour>
			<point x="327.333" y="805" type="line"/>
			<point x="455.667" y="805" type="line"/>
			<point x="533.667" y="872.333" type="line"/>
			<point x="585" y="805" type="line"/>
			<point x="711.333" y="805" type="line"/>
			<point x="592.333" y="939" type="line"/>
			<point x="499" y="939" type="line"/>
		</contour>
	</outline>
</glyph>
<glyph name="Atilde" format="2">
	<unicode hex="00C3"/>
	<advance width="740"/>
	<outline>
		<component base="A"/>
		<contour>
			<point x="410" y="812.333" type="line"/>
			<point x="433.667" y="833.667"/>
			<point x="455.667" y="841"/>
			<point x="482" y="841" type="curve" smooth="yes"/>
			<point x="497" y="841"/>
			<point x="510" y="839"/>
			<point x="526" y="829.667" type="curve" smooth="yes"/>
			<point x="548.667" y="816.667"/>
			<point x="567.667" y="812.333"/>
			<point x="587.333" y="812.333" type="curve" smooth="yes"/>
			<point x="621.667" y="812.333"/>
			<point x="657.667" y="830.667"/>
			<point x="690.667" y="865.333" type="curve"/>
			<point x="656.667" y="934.667" type="line"/>
			<point x="631.667" y="911.333"/>
			<point x="610" y="901.667"/>
			<point x="586.333" y="901.667" type="curve" smooth="yes"/>
			<point x="574" y="901.667"/>
			<point x="559.333" y="905"/>
			<point x="541.333" y="913.667" type="curve" smooth="yes"/>
			<point x="514" y="927"/>
			<point x="505.333" y="930"/>
			<point x="484.667" y="930" type="curve" smooth="yes"/>
			<point x="444.667" y="930"/>
			<point x="413" y="914.667"/>
			<point x="376" y="881" type="curve"/>
		</contour>
	</outline>
</glyph>
<glyph name="Adieresis" format="2">
	<unicode hex="00C4"/>
	<advance width="740"/>
	<outline>
		<component base="A"/>
		<contour>
			<point x="368.333" y="805" type="line"/>
			<point x="481.667" y="805" type="line"/>
			<point x="506.333" y="935.667" type="line"/>
			<point x="393" y="935.667" type="line"/>
		</contour>
		<contour>
			<point x="557.333" y="805" type="line"/>
			<point x="670.667" y="805" type="line"/>
			<point x="695.333" y="935.667" type="line"/>
			<point x="582" y="935.667" type="line"/>
		</contour>
	</outline>
</glyph>
<glyph name="Aring" format="2">
	<unicode hex="00C5"/>
	<advance width="740"/>
	<outline>
		<component base="A"/>
		<contour>
			<point x="433.333" y="868.333" type="curve" smooth="yes"/>
			<point x="433.333" y="821.667"/>
			<point x="467.333" y="787.333"/>
			<point x="515.667" y="787.333" type="curve" smooth="yes"/>
			<point x="582.333" y="787.333"/>
			<point x="635" y="839.667"/>
			<point x="635" y="905" type="curve" smooth="yes"/>
			<point x="635" y="951.667"/>
			<point x="601.333" y="986"/>
			<point x="554" y="986" type="curve" smooth="yes"/>
			<point x="487.333" y="986"/>
			<point x="433.333" y="934"/>
		</contour>
		<contour>
			<point x="492.667" y="878.667" type="curve" smooth="yes"/>
			<point x="492.667" y="905"/>
			<point x="515" y="927.667"/>
			<point x="540.667" y="927.667" type="curve" smooth="yes"/>
			<point x="563.333" y="927.667"/>
			<point x="576" y="913.667"/>
			<point x="576" y="894.333" type="curve" smooth="yes"/>
			<point x="576" y="867"/>
			<point x="554.333" y="845.667"/>
			<point x="526.667" y="845.667" type="curve" smooth="yes"/>
			<point x="506.333" y="845.667"/>
			<point x="492.667" y="859.333"/>
		</contour>
	</outline>
</glyph>
<glyph name="AE" format="2">
	<unicode hex="00C6"/>
	<advance width="920"/>
	<outline>
		<contour>
			<point x="5" y="0" type="line"/>
			<point x="144.333" y="0" type="line"/>
			<point x="315.333" y="210.667" type="line"/>
			<point x="535" y="210.667" type="line"/>
			<point x="496.333" y="0" type="line"/>
			<point x="864" y="0" type="line"/>
			<point x="884" y="109.667" type="line"/>
			<point x="632.333" y="109.667" type="line"/>
			<point x="670.667" y="315.333" type="line"/>
			<point x="911.333" y="315.333" type="line"/>
			<point x="931.333" y="425" type="line"/>
			<point x="690.667" y="425" type="line"/>
			<point x="729.333" y="629.333" type="line"/>
			<point x="981" y="629.333" type="line"/>
			<point x="1001" y="739" type="line"/>
			<point x="637" y="739" type="line"/>
		</contour>
		<contour>
			<point x="404.667" y="320.333" type="line"/>
			<point x="599.333" y="556.667" type="line"/>
			<point x="556" y="320.333" type="line"/>
		</contour>
	</outline>
</glyph>
<glyph name="Ccedilla" format="2">
	<unicode hex="00C7"/>
	<advance width="806"/>
	<outline>
		<component base="C"/>
		<contour>
			<point x="288" y="-166" type="line"/>
			<point x="289.667" y="-215.333"/>
			<point x="321" y="-247.333"/>
			<point x="370.667" y="-247.333" type="curve" smooth="yes"/>
			<point x="435" y="-247.333"/>
			<point x="485.667" y="-192.667"/>
			<point x="485.667" y="-129.667" type="curve" smooth="yes"/>
			<point x="485.667" y="-86"/>
			<point x="458" y="-54.333"/>
			<point x="415.333" y="-54.333" type="curve" smooth="yes"/>
			<point x="405.333" y="-54.333"/>
			<point x="397" y="-56.333"/>
			<point x="382.667" y="-61.333" type="curve"/>
			<point x="418.333" y="0" type="line"/>
			<point x="372.667" y="4.333" type="line"/>
			<point x="311" y="-105.667" type="line"/>
			<point x="352" y="-129" type="line"/>
			<point x="369.333" y="-110.333"/>
			<point x="380.667" y="-103.667"/>
			<point x="396.667" y="-103.667" type="curve" smooth="yes"/>
			<point x="416.333" y="-103.667"/>
			<point x="430" y="-118.667"/>
			<point x="430" y="-139.333" type="curve" smooth="yes"/>
			<point x="430" y="-142.333"/>
			<point x="430" y="-145.667"/>
			<point x="429" y="-149" type="curve"/>
			<point x="424" y="-175.667"/>
			<point x="403.667" y="-195"/>
			<point x="379.667" y="-195" type="curve" smooth="yes"/>
			<point x="360.667" y="-195"/>
			<point x="349.667" y="-185"/>
			<point x="345.667" y="-163.667" type="curve"/>
		</contour>
	</outline>
</glyph>
<glyph name="Eacute" format="2">
	<unicode hex="00C9"/>
	<advance width="528"/>
	<outline>
		<contour>
			<point x="72.667" y="0" type="line"/>
			<point x="472" y="0" type="line"/>
			<point x="492" y="109.667" type="line"/>
			<point x="208.667" y="109.667" type="line"/>
			<point x="247" y="315.333" type="line"/>
			<point x="519.333" y="315.333" type="line"/>
			<point x="539.333" y="425" type="line"/>
			<point x="267" y="425" type="line"/>
			<point x="305.667" y="629.333" type="line"/>
			<point x="589" y="629.333" type="line"/>
			<point x="609" y="739" type="line"/>
			<point x="209.667" y="739" type="line"/>
		</contour>
		<contour>
			<point x="375.667" y="789.333" type="line"/>
			<point x="613" y="907.333" type="line"/>
			<point x="580.667" y="988" type="line"/>
			<point x="343.667" y="860" type="line"/>
		</contour>
	</outline>
</glyph>
<glyph name="Ecircumflex" format="2">
	<unicode hex="00CA"/>
	<advance width="528"/>
	<outline>
		<contour>
			<point x="72.667" y="0" type="line"/>
			<point x="472" y="0" type="line"/>
			<point x="492" y="109.667" type="line"/>
			<point x="208.667" y="109.667" type="line"/>
			<point x="247" y="315.333" type="line"/>
			<point x="519.333" y="315.333" type="line"/>
			<point x="539.333" y="425" type="line"/>
			<point x="267" y="425" type="line"/>
			<point x="305.667" y="629.333" type="line"/>
			<point x="589" y="629.333" type="line"/>
			<point x="609" y="739" type="line"/>
			<point x="209.667" y="739" type="line"/>
		</contour>
		<contour>
			<point x="227.333" y="805" type="line"/>
			<point x="355.667" y="805" type="line"/>
			<point x="433.667" y="872.333" type="line"/>
			<point x="485" y="805" type="line"/>
			<point x="611.333" y="805" type="line"/>
			<point x="492.333" y="939" type="line"/>
			<point x="399" y="939" type="line"/>
		</contour>
	</outline>
</glyph>
<glyph name="Igrave" format="2">
	<unicode hex="00CC"/>
	<advance width="261"/>
	<outline>
		<contour>
			<point x="72.667" y="0" type="line"/>
			<point x="188.667" y="0" type="line"/>
			<point x="325.667" y="739" type="line"/>
			<point x="209.667" y="739" type="line"/>
		</contour>
		<contour>
			<point x="172.333" y="908" type="line"/>
			<point x="366.667" y="789.333" type="line"/>
			<point x="426.333" y="860.667" type="line"/>
			<point x="235.333" y="986" type="line"/>
		</contour>
	</outline>
</glyph>
<glyph name="Iacute" format="2">
	<unicode hex="00CD"/>
	<advance width="261"/>
	<outline>
		<contour>
			<point x="72.667" y="0" type="line"/>
			<point x="188.667" y="0" type="line"/>
			<point x="325.667" y="739" type="line"/>
			<point x="209.667" y="739" type="line"/>
		</contour>
		<contour>
			<point x="196" y="789.333" type="line"/>
			<point x="433.333" y="907.333" type="line"/>
			<point x="401" y="988" type="line"/>
			<point x="164" y="860" type="line"/>
		</contour>
	</outline>
</glyph>
<glyph name="Icircumflex" format="2">
	<unicode hex="00CE"/>
	<advance width="261"/>
	<outline>
		<contour>
			<point x="72.667" y="0" type="line"/>
			<point x="188.667" y="0" type="line"/>
			<point x="325.667" y="739" type="line"/>
			<point x="209.667" y="739" type="line"/>
		</contour>
		<contour>
			<point x="87.667" y="805" type="line"/>
			<point x="216" y="805" type="line"/>
			<point x="294" y="872.333" type="line"/>
			<point x="345.333" y="805" type="line"/>
			<point x="471.667" y="805" type="line"/>
			<point x="352.667" y="939" type="line"/>
			<point x="259.333" y="939" type="line"/>
		</contour>
	</outline>
</glyph>
<glyph name="Idieresis" format="2">
	<unicode hex="00CF"/>
	<advance width="261"/>
	<outline>
		<contour>
			<point x="73" y="0" type="line"/>
			<point x="189" y="0" type="line"/>
			<point x="326" y="739" type="line"/>
			<point x="210" y="739" type="line"/>
		</contour>
		<contour>
			<point x="128.667" y="805" type="line"/>
			<point x="242" y="805" type="line"/>
			<point x="266.667" y="935.667" type="line"/>
			<point x="153.333" y="935.667" type="line"/>
		</contour>
		<contour>
			<point x="317.667" y="805" type="line"/>
			<point x="431" y="805" type="line"/>
			<point x="455.667" y="935.667" type="line"/>
			<point x="342.333" y="935.667" type="line"/>
		</contour>
	</outline>
</glyph>
<glyph name="Eth" format="2">
	<unicode hex="00D0"/>
	<advance width="759"/>
	<outline>
		<contour>
			<point x="118" y="0" type="line"/>
			<point x="299" y="0" type="line" smooth="yes"/>
			<point x="407.333" y="0"/>
			<point x="478.333" y="12.667"/>
			<point x="544.333" y="42.333" type="curve" smooth="yes"/>
			<point x="672.333" y="100.333"/>
			<point x="761.333" y="218.667"/>
			<point x="788.667" y="367.667" type="curve" smooth="yes"/>
			<point x="793.667" y="397.333"/>
			<point x="796.667" y="425"/>
			<point x="796.667" y="451.667" type="curve" smooth="yes"/>
			<point x="796.667" y="549.333"/>
			<point x="760.667" y="629.333"/>
			<point x="691" y="679.333" type="curve" smooth="yes"/>
			<point x="634.667" y="720.667"/>
			<point x="552.333" y="739"/>
			<point x="425.667" y="739" type="curve" smooth="yes"/>
			<point x="255" y="739" type="line"/>
			<point x="195.667" y="419.333" type="line"/>
			<point x="99.667" y="419.333" type="line"/>
			<point x="82" y="325.667" type="line"/>
			<point x="178" y="325.667" type="line"/>
		</contour>
		<contour>
			<point x="254" y="109.667" type="line"/>
			<point x="294" y="325.667" type="line"/>
			<point x="465" y="325.667" type="line"/>
			<point x="482.667" y="419.333" type="line"/>
			<point x="311.667" y="419.333" type="line"/>
			<point x="351" y="629.333" type="line"/>
			<point x="403.333" y="629.333" type="line" smooth="yes"/>
			<point x="496" y="629.333"/>
			<point x="547.333" y="620.333"/>
			<point x="588.667" y="596.667" type="curve" smooth="yes"/>
			<point x="646" y="564"/>
			<point x="677.333" y="502"/>
			<point x="677.333" y="425.667" type="curve" smooth="yes"/>
			<point x="677.333" y="407.667"/>
			<point x="675.333" y="388.667"/>
			<point x="672" y="368.667" type="curve" smooth="yes"/>
			<point x="655.667" y="278"/>
			<point x="601" y="197.667"/>
			<point x="528.333" y="155.333" type="curve" smooth="yes"/>
			<point x="474.667" y="123"/>
			<point x="408" y="109.667"/>
			<point x="308.333" y="109.667" type="curve" smooth="yes"/>
		</contour>
	</outline>
</glyph>
<glyph name="Ntilde" format="2">
	<unicode hex="00D1"/>
	<advance width="741"/>
	<outline>
		<component base="N"/>
		<contour>
			<point x="416" y="812.333" type="line"/>
			<point x="450.333" y="834.333"/>
			<point x="461.667" y="839.667"/>
			<point x="488" y="839.667" type="curve" smooth="yes"/>
			<point x="503" y="839.667"/>
			<point x="514" y="838"/>
			<point x="535.333" y="828.333" type="curve" smooth="yes"/>
			<point x="561" y="816.667"/>
			<point x="578.333" y="812.333"/>
			<point x="593.333" y="812.333" type="curve" smooth="yes"/>
			<point x="627.667" y="812.333"/>
			<point x="663.667" y="830.667"/>
			<point x="696.667" y="865.333" type="curve"/>
			<point x="662.667" y="934.667" type="line"/>
			<point x="637.667" y="911.333"/>
			<point x="616" y="901.667"/>
			<point x="592.333" y="901.667" type="curve" smooth="yes"/>
			<point x="580" y="901.667"/>
			<point x="565.333" y="905.667"/>
			<point x="547.333" y="913.667" type="curve" smooth="yes"/>
			<point x="520" y="926"/>
			<point x="511.333" y="928.667"/>
			<point x="490.667" y="928.667" type="curve" smooth="yes"/>
			<point x="450.667" y="928.667"/>
			<point x="419" y="914.667"/>
			<point x="382" y="881" type="curve"/>
		</contour>
	</outline>
</glyph>
<glyph name="Ograve" format="2">
	<unicode hex="00D2"/>
	<advance width="851"/>
	<outline>
		<component base="O"/>
		<contour>
			<point x="451.667" y="908" type="line"/>
			<point x="646" y="789.333" type="line"/>
			<point x="705.667" y="860.667" type="line"/>
			<point x="514.667" y="986" type="line"/>
		</contour>
	</outline>
</glyph>
<glyph name="Ocircumflex" format="2">
	<unicode hex="00D4"/>
	<advance width="851"/>
	<outline>
		<component base="O"/>
		<contour>
			<point x="382.667" y="805" type="line"/>
			<point x="511" y="805" type="line"/>
			<point x="589" y="872.333" type="line"/>
			<point x="640.333" y="805" type="line"/>
			<point x="766.667" y="805" type="line"/>
			<point x="647.667" y="939" type="line"/>
			<point x="554.333" y="939" type="line"/>
		</contour>
	</outline>
</glyph>
<glyph name="Otilde" format="2">
	<unicode hex="00D5"/>
	<advance width="851"/>
	<outline>
		<component base="O"/>
		<contour>
			<point x="468" y="812.333" type="line"/>
			<point x="503.667" y="834.667"/>
			<point x="513.667" y="839.667"/>
			<point x="540" y="839.667" type="curve" smooth="yes"/>
			<point x="555" y="839.667"/>
			<point x="565" y="836.667"/>
			<point x="587.333" y="828.333" type="curve" smooth="yes"/>
			<point x="613.333" y="818.667"/>
			<point x="633" y="812.333"/>
			<point x="648" y="812.333" type="curve" smooth="yes"/>
			<point x="682.333" y="812.333"/>
			<point x="715.667" y="830.667"/>
			<point x="748.667" y="865.333" type="curve"/>
			<point x="714.667" y="934.667" type="line"/>
			<point x="689.667" y="911.333"/>
			<point x="668" y="901.667"/>
			<point x="644.333" y="901.667" type="curve" smooth="yes"/>
			<point x="632" y="901.667"/>
			<point x="617.333" y="905.667"/>
			<point x="599.333" y="913.667" type="curve" smooth="yes"/>
			<point x="572" y="926"/>
			<point x="563.333" y="928.667"/>
			<point x="542.667" y="928.667" type="curve" smooth="yes"/>
			<point x="502.667" y="928.667"/>
			<point x="471" y="914.667"/>
			<point x="434" y="881" type="curve"/>
		</contour>
	</outline>
</glyph>
<glyph name="Odieresis" format="2">
	<unicode hex="00D6"/>
	<advance width="851"/>
	<outline>
		<component base="O"/>
		<contour>
			<point x="423.667" y="805" type="line"/>
			<point x="537" y="805" type="line"/>
			<point x="561.667" y="935.667" type="line"/>
			<point x="448.333" y="935.667" type="line"/>
		</contour>
		<contour>
			<point x="612.667" y="805" type="line"/>
			<point x="726" y="805" type="line"/>
			<point x="750.667" y="935.667" type="line"/>
			<point x="637.333" y="935.667" type="line"/>
		</contour>
	</outline>
</glyph>
<glyph name="multiply" format="2">
	<unicode hex="00D7"/>
	<advance width="602"/>
	<outline>
		<contour>
			<point x="138" y="92" type="line"/>
			<point x="351.667" y="272" type="line"/>
			<point x="498" y="92" type="line"/>
			<point x="583" y="163.667" type="line"/>
			<point x="436.667" y="343.667" type="line"/>
			<point x="650" y="524" type="line"/>
			<point x="591.667" y="595.667" type="line"/>
			<point x="378" y="415.667" type="line"/>
			<point x="231.667" y="595.667" type="line"/>
			<point x="146" y="524" type="line"/>
			<point x="292.667" y="343.667" type="line"/>
			<point x="79" y="163.667" type="line"/>
		</contour>
	</outline>
</glyph>
<glyph name="Oslash" format="2">
	<unicode hex="00D8"/>
	<advance width="853"/>
	<outline>
		<contour>
			<point x="93.667" y="-14" type="line"/>
			<point x="166" y="-71" type="line"/>
			<point x="255.667" y="29.333" type="line"/>
			<point x="306" y="1.333"/>
			<point x="364.333" y="-13"/>
			<point x="428.667" y="-13" type="curve" smooth="yes"/>
			<point x="644.333" y="-13"/>
			<point x="843" y="155"/>
			<point x="883" y="370.667" type="curve" smooth="yes"/>
			<point x="888" y="396"/>
			<point x="889.333" y="420"/>
			<point x="889.333" y="443.333" type="curve" smooth="yes"/>
			<point x="889.333" y="524"/>
			<point x="862.667" y="596.333"/>
			<point x="807.333" y="654" type="curve"/>
			<point x="897.333" y="755" type="line"/>
			<point x="826.667" y="813" type="line"/>
			<point x="735" y="710" type="line"/>
			<point x="685.667" y="737.667"/>
			<point x="628" y="752"/>
			<point x="564" y="752" type="curve" smooth="yes"/>
			<point x="348.333" y="752"/>
			<point x="147" y="582.667"/>
			<point x="107.667" y="370" type="curve" smooth="yes"/>
			<point x="103.333" y="346.333"/>
			<point x="100.667" y="323"/>
			<point x="100.667" y="299.667" type="curve" smooth="yes"/>
			<point x="100.667" y="216.667"/>
			<point x="129" y="141"/>
			<point x="182.333" y="85.333" type="curve"/>
		</contour>
		<contour>
			<point x="553" y="406" type="line"/>
			<point x="555" y="398"/>
			<point x="556.333" y="388.667"/>
			<point x="556.333" y="380" type="curve" smooth="yes"/>
			<point x="556.333" y="375.667"/>
			<point x="555.667" y="371.667"/>
			<point x="555" y="367.333" type="curve"/>
			<point x="548.667" y="332.333"/>
			<point x="519.333" y="307.333"/>
			<point x="484.333" y="307.333" type="curve"/>
			<point x="483.333" y="307.333"/>
			<point x="484.333" y="305.667"/>
			<point x="478" y="303.667" type="curve"/>
		</contour>
		<contour>
			<point x="437.667" y="334" type="line"/>
			<point x="435" y="341.333"/>
			<point x="433.333" y="352"/>
			<point x="433.333" y="361" type="curve" smooth="yes"/>
			<point x="433.333" y="364.333"/>
			<point x="433.667" y="367"/>
			<point x="434.333" y="369.667" type="curve"/>
			<point x="440.667" y="404.333"/>
			<point x="472.333" y="431.667"/>
			<point x="506.667" y="431.667" type="curve" smooth="yes"/>
			<point x="508.333" y="431.667"/>
			<point x="511.667" y="432.333"/>
			<point x="512.667" y="435.667" type="curve"/>
		</contour>
	</outline>
</glyph>
<glyph name="Uacute" format="2">
	<unicode hex="00DA"/>
	<advance width="646"/>
	<outline>
		<contour>
			<point x="209.667" y="739" type="line"/>
			<point x="123.333" y="273.333" type="line" smooth="yes"/>
			<point x="117" y="239"/>
			<point x="113.667" y="209"/>
			<point x="113.667" y="183.333" type="curve" smooth="yes"/>
			<point x="113.667" y="148"/>
			<point x="119.667" y="120.667"/>
			<point x="132" y="94" type="curve" smooth="yes"/>
			<point x="162.333" y="27.333"/>
			<point x="233.667" y="-13"/>
			<point x="320.333" y="-13" type="curve" smooth="yes"/>
			<point x="400" y="-13"/>
			<point x="478.667" y="20.667"/>
			<point x="534.333" y="78" type="curve" smooth="yes"/>
			<point x="580.333" y="126.333"/>
			<point x="607" y="182.333"/>
			<point x="623.667" y="273.333" type="curve" smooth="yes"/>
			<point x="710" y="739" type="line"/>
			<point x="594" y="739" type="line"/>
			<point x="507.667" y="273.333" type="line" smooth="yes"/>
			<point x="497" y="214.333"/>
			<point x="483.667" y="182"/>
			<point x="462" y="154.333" type="curve" smooth="yes"/>
			<point x="433.333" y="119.333"/>
			<point x="388" y="97.667"/>
			<point x="340.333" y="97.667" type="curve" smooth="yes"/>
			<point x="293.667" y="97.667"/>
			<point x="255.667" y="119.333"/>
			<point x="240.333" y="154.333" type="curve" smooth="yes"/>
			<point x="234" y="169"/>
			<point x="231" y="184.333"/>
			<point x="231" y="204.333" type="curve" smooth="yes"/>
			<point x="231" y="222.667"/>
			<point x="234.333" y="245"/>
			<point x="239.333" y="273.333" type="curve" smooth="yes"/>
			<point x="325.667" y="739" type="line"/>
		</contour>
		<contour>
			<point x="422" y="789.333" type="line"/>
			<point x="659.333" y="907.333" type="line"/>
			<point x="627" y="988" type="line"/>
			<point x="390" y="860" type="line"/>
		</contour>
	</outline>
</glyph>
<glyph name="Yacute" format="2">
	<unicode hex="00DD"/>
	<advance width="622"/>
	<outline>
		<contour>
			<point x="252.667" y="0" type="line"/>
			<point x="368.667" y="0" type="line"/>
			<point x="418" y="264.333" type="line"/>
			<point x="753.667" y="739" type="line"/>
			<point x="628" y="739" type="line"/>
			<point x="380" y="374.333" type="line"/>
			<point x="268.333" y="739" type="line"/>
			<point x="142.333" y="739" type="line"/>
			<point x="302" y="264.333" type="line"/>
		</contour>
		<contour>
			<point x="410.333" y="789.333" type="line"/>
			<point x="647.667" y="907.333" type="line"/>
			<point x="615.333" y="988" type="line"/>
			<point x="378.333" y="860" type="line"/>
		</contour>
	</outline>
</glyph>
<glyph name="Thorn" format="2">
	<unicode hex="00DE"/>
	<advance width="581"/>
	<outline>
		<contour>
			<point x="72.667" y="0" type="line"/>
			<point x="188.667" y="0" type="line"/>
			<point x="217.667" y="154.667" type="line"/>
			<point x="294.333" y="154.667" type="line" smooth="yes"/>
			<point x="395" y="154.667"/>
			<point x="445.667" y="164.333"/>
			<point x="492" y="190" type="curve" smooth="yes"/>
			<point x="557.333" y="225.667"/>
			<point x="605.333" y="296.667"/>
			<point x="620.667" y="380.667" type="curve" smooth="yes"/>
			<point x="624" y="399"/>
			<point x="625.667" y="416.667"/>
			<point x="625.667" y="433" type="curve" smooth="yes"/>
			<point x="625.667" y="492.667"/>
			<point x="605" y="539.667"/>
			<point x="564" y="569" type="curve" smooth="yes"/>
			<point x="524.333" y="597"/>
			<point x="474.333" y="607.333"/>
			<point x="375.333" y="607.333" type="curve" smooth="yes"/>
			<point x="299" y="607.333" type="line"/>
			<point x="323.333" y="739" type="line"/>
			<point x="209.667" y="739" type="line"/>
		</contour>
		<contour>
			<point x="237.667" y="264.333" type="line"/>
			<point x="280.667" y="497.667" type="line"/>
			<point x="346.333" y="497.667" type="line" smooth="yes"/>
			<point x="400.667" y="497.667"/>
			<point x="429.667" y="494.667"/>
			<point x="453.333" y="487.667" type="curve" smooth="yes"/>
			<point x="488" y="477"/>
			<point x="506.333" y="448"/>
			<point x="506.333" y="407.667" type="curve" smooth="yes"/>
			<point x="506.333" y="398.667"/>
			<point x="505.333" y="389"/>
			<point x="503.667" y="379" type="curve" smooth="yes"/>
			<point x="494.667" y="331"/>
			<point x="464.667" y="293.667"/>
			<point x="423" y="279.333" type="curve"/>
			<point x="396.333" y="268.667"/>
			<point x="359.333" y="264.333"/>
			<point x="310" y="264.333" type="curve" smooth="yes"/>
		</contour>
	</outline>
</glyph>
<glyph name="germandbls" format="2">
	<unicode hex="00DF"/>
	<advance width="595"/>
	<outline>
		<contour>
			<point x="55.667" y="0" type="line"/>
			<point x="161.667" y="0" type="line"/>
			<point x="178.333" y="89" type="line"/>
			<point x="203" y="20.667"/>
			<point x="256.333" y="-13"/>
			<point x="339.667" y="-13" type="curve" smooth="yes"/>
			<point x="484" y="-13"/>
			<point x="609" y="107.333"/>
			<point x="609" y="252.333" type="curve" smooth="yes"/>
			<point x="609" y="334"/>
			<point x="558" y="381.333"/>
			<point x="483" y="401.667" type="curve"/>
			<point x="553.667" y="438.667"/>
			<point x="591.667" y="505.667"/>
			<point x="591.667" y="584.333" type="curve" smooth="yes"/>
			<point x="591.667" y="682.333"/>
			<point x="519" y="752"/>
			<point x="410" y="752" type="curve" smooth="yes"/>
			<point x="250.333" y="752"/>
			<point x="171.333" y="625.333"/>
			<point x="145.333" y="485" type="curve" smooth="yes"/>
		</contour>
		<contour>
			<point x="205" y="193.667" type="line"/>
			<point x="260.667" y="495.667" type="line" smooth="yes"/>
			<point x="277" y="583.667"/>
			<point x="313.667" y="648"/>
			<point x="391" y="648" type="curve" smooth="yes"/>
			<point x="443" y="648"/>
			<point x="475" y="615.333"/>
			<point x="475" y="565.333" type="curve" smooth="yes"/>
			<point x="475" y="489"/>
			<point x="414" y="424.667"/>
			<point x="337" y="424.667" type="curve" smooth="yes"/>
			<point x="325.333" y="424.667" type="line"/>
			<point x="306.333" y="323.667" type="line"/>
			<point x="367.667" y="323.667" type="line" smooth="yes"/>
			<point x="444.333" y="323.667"/>
			<point x="491.333" y="297"/>
			<point x="491.333" y="226.667" type="curve" smooth="yes"/>
			<point x="491.333" y="157.667"/>
			<point x="436.333" y="91"/>
			<point x="364.333" y="91" type="curve" smooth="yes"/>
			<point x="315.667" y="91"/>
			<point x="274.333" y="118"/>
			<point x="274.333" y="170.667" type="curve" smooth="yes"/>
			<point x="274.333" y="178"/>
			<point x="275.333" y="185.333"/>
			<point x="276.667" y="193.667" type="curve"/>
		</contour>
	</outline>
</glyph>
<glyph name="agrave" format="2">
	<unicode hex="00E0"/>
	<advance width="672"/>
	<outline>
		<component base="a"/>
		<contour>
			<point x="315.333" y="730.667" type="line"/>
			<point x="509.667" y="612" type="line"/>
			<point x="568.667" y="683.333" type="line"/>
			<point x="378.333" y="808.667" type="line"/>
		</contour>
	</outline>
</glyph>
<glyph name="acircumflex" format="2">
	<unicode hex="00E2"/>
	<advance width="672"/>
	<outline>
		<component base="a"/>
		<contour>
			<point x="270.333" y="627.667" type="line"/>
			<point x="398.667" y="627.667" type="line"/>
			<point x="476.667" y="695" type="line"/>
			<point x="528" y="627.667" type="line"/>
			<point x="654.333" y="627.667" type="line"/>
			<point x="534.667" y="761.667" type="line"/>
			<point x="441.333" y="761.667" type="line"/>
		</contour>
	</outline>
</glyph>
<glyph name="atilde" format="2">
	<unicode hex="00E3"/>
	<advance width="672"/>
	<outline>
		<component base="a"/>
		<contour>
			<point x="352" y="635" type="line"/>
			<point x="387" y="656.667"/>
			<point x="399" y="662.333"/>
			<point x="424" y="662.333" type="curve" smooth="yes"/>
			<point x="439" y="662.333"/>
			<point x="449.333" y="660"/>
			<point x="470.667" y="651" type="curve" smooth="yes"/>
			<point x="497" y="640"/>
			<point x="514.333" y="635"/>
			<point x="529.333" y="635" type="curve" smooth="yes"/>
			<point x="563.667" y="635"/>
			<point x="599" y="653.333"/>
			<point x="632" y="688" type="curve"/>
			<point x="598" y="757.333" type="line"/>
			<point x="573" y="734"/>
			<point x="552" y="724.333"/>
			<point x="528.333" y="724.333" type="curve" smooth="yes"/>
			<point x="516" y="724.333"/>
			<point x="501.333" y="728.333"/>
			<point x="483.333" y="736.333" type="curve" smooth="yes"/>
			<point x="456" y="748.667"/>
			<point x="446.667" y="751.333"/>
			<point x="426" y="751.333" type="curve" smooth="yes"/>
			<point x="386" y="751.333"/>
			<point x="355" y="737.333"/>
			<point x="318" y="703.667" type="curve"/>
		</contour>
	</outline>
</glyph>
<glyph name="adieresis" format="2">
	<unicode hex="00E4"/>
	<advance width="672"/>
	<outline>
		<component base="a"/>
		<contour>
			<point x="311.333" y="627.667" type="line"/>
			<point x="424.667" y="627.667" type="line"/>
			<point x="448.667" y="758.333" type="line"/>
			<point x="335.333" y="758.333" type="line"/>
		</contour>
		<contour>
			<point x="500.333" y="627.667" type="line"/>
			<point x="613.667" y="627.667" type="line"/>
			<point x="637.667" y="758.333" type="line"/>
			<point x="524.333" y="758.333" type="line"/>
		</contour>
	</outline>
</glyph>
<glyph name="aring" format="2">
	<unicode hex="00E5"/>
	<advance width="672"/>
	<outline>
		<component base="a"/>
		<contour>
			<point x="376.333" y="691" type="curve" smooth="yes"/>
			<point x="376.333" y="645"/>
			<point x="410.333" y="610"/>
			<point x="459.333" y="610" type="curve" smooth="yes"/>
			<point x="520.333" y="610"/>
			<point x="579" y="666"/>
			<point x="579" y="727.667" type="curve" smooth="yes"/>
			<point x="579" y="773"/>
			<point x="545" y="808.667"/>
			<point x="497" y="808.667" type="curve" smooth="yes"/>
			<point x="435.667" y="808.667"/>
			<point x="376.333" y="753.333"/>
		</contour>
		<contour>
			<point x="436.333" y="701.333" type="curve" smooth="yes"/>
			<point x="436.333" y="725.667"/>
			<point x="457.667" y="750.333"/>
			<point x="484.667" y="750.333" type="curve" smooth="yes"/>
			<point x="507.333" y="750.333"/>
			<point x="519.667" y="735.667"/>
			<point x="519.667" y="715" type="curve" smooth="yes"/>
			<point x="519.667" y="690.333"/>
			<point x="495.667" y="668.333"/>
			<point x="472" y="668.333" type="curve" smooth="yes"/>
			<point x="448.333" y="668.333"/>
			<point x="436.333" y="683.333"/>
		</contour>
	</outline>
</glyph>
<glyph name="ae" format="2">
	<unicode hex="00E6"/>
	<advance width="1104"/>
	<outline>
		<contour>
			<point x="78.333" y="217.667" type="curve" smooth="yes"/>
			<point x="78.333" y="83"/>
			<point x="174.667" y="-13"/>
			<point x="320.333" y="-13" type="curve" smooth="yes"/>
			<point x="401.333" y="-13"/>
			<point x="455.667" y="10"/>
			<point x="517.667" y="70.667" type="curve"/>
			<point x="504.667" y="0" type="line"/>
			<point x="609.667" y="0" type="line"/>
			<point x="622.667" y="70.667" type="line"/>
			<point x="661.667" y="13.333"/>
			<point x="715.333" y="-13"/>
			<point x="793.667" y="-13" type="curve" smooth="yes"/>
			<point x="910" y="-13"/>
			<point x="1031.67" y="63.333"/>
			<point x="1086" y="168.667" type="curve"/>
			<point x="963.667" y="168.667" type="line"/>
			<point x="922.667" y="117.667"/>
			<point x="869.667" y="91"/>
			<point x="808.333" y="91" type="curve" smooth="yes"/>
			<point x="723" y="91"/>
			<point x="659.667" y="145.667"/>
			<point x="658.333" y="228.333" type="curve"/>
			<point x="1108.67" y="228.333" type="line"/>
			<point x="1122.33" y="266.333"/>
			<point x="1129.33" y="304"/>
			<point x="1129.33" y="340.667" type="curve" smooth="yes"/>
			<point x="1129.33" y="471"/>
			<point x="1032.33" y="564.667"/>
			<point x="897.333" y="564.667" type="curve" smooth="yes"/>
			<point x="820.333" y="564.667"/>
			<point x="760.667" y="540"/>
			<point x="699" y="483.333" type="curve"/>
			<point x="712" y="551.667" type="line"/>
			<point x="607" y="551.667" type="line"/>
			<point x="594" y="483.333" type="line"/>
			<point x="556" y="540"/>
			<point x="505.333" y="564.667"/>
			<point x="425.333" y="564.667" type="curve" smooth="yes"/>
			<point x="239.667" y="564.667"/>
			<point x="78.333" y="402"/>
		</contour>
		<contour>
			<point x="195" y="238.333" type="curve" smooth="yes"/>
			<point x="195" y="352"/>
			<point x="291" y="460.667"/>
			<point x="408" y="460.667" type="curve" smooth="yes"/>
			<point x="498.667" y="460.667"/>
			<point x="558" y="401"/>
			<point x="558" y="315" type="curve" smooth="yes"/>
			<point x="558" y="200"/>
			<point x="460" y="91"/>
			<point x="342.333" y="91" type="curve" smooth="yes"/>
			<point x="253.333" y="91"/>
			<point x="195" y="152.333"/>
		</contour>
		<contour>
			<point x="672.667" y="329.333" type="line"/>
			<point x="711" y="413"/>
			<point x="782" y="460.667"/>
			<point x="869.667" y="460.667" type="curve" smooth="yes"/>
			<point x="959.333" y="460.667"/>
			<point x="1011.33" y="413.333"/>
			<point x="1015.33" y="329.333" type="curve"/>
		</contour>
	</outline>
</glyph>
<glyph name="ccedilla" format="2">
	<unicode hex="00E7"/>
	<advance width="632"/>
	<outline>
		<component base="c"/>
		<contour>
			<point x="204.333" y="-161" type="line"/>
			<point x="204.667" y="-210"/>
			<point x="235" y="-242"/>
			<point x="284" y="-242" type="curve" smooth="yes"/>
			<point x="350.333" y="-242"/>
			<point x="397.333" y="-187.333"/>
			<point x="397.333" y="-123.667" type="curve" smooth="yes"/>
			<point x="397.333" y="-80.333"/>
			<point x="371" y="-51"/>
			<point x="329" y="-51" type="curve" smooth="yes"/>
			<point x="318" y="-51"/>
			<point x="310" y="-52"/>
			<point x="295.667" y="-58" type="curve"/>
			<point x="331.667" y="0" type="line"/>
			<point x="290" y="3.333" type="line"/>
			<point x="225.333" y="-101.333" type="line"/>
			<point x="265.667" y="-124.667" type="line"/>
			<point x="282" y="-106.667"/>
			<point x="294.667" y="-100.667"/>
			<point x="309.667" y="-100.667" type="curve" smooth="yes"/>
			<point x="330.333" y="-100.667"/>
			<point x="343.333" y="-114.333"/>
			<point x="343.333" y="-135.667" type="curve" smooth="yes"/>
			<point x="343.333" y="-163.333"/>
			<point x="323.333" y="-191"/>
			<point x="293.667" y="-191" type="curve" smooth="yes"/>
			<point x="274.333" y="-191"/>
			<point x="262.667" y="-180.333"/>
			<point x="259.333" y="-159.333" type="curve"/>
		</contour>
	</outline>
</glyph>
<glyph name="egrave" format="2">
	<unicode hex="00E8"/>
	<advance width="639"/>
	<outline>
		<component base="e"/>
		<contour>
			<point x="290.333" y="730.667" type="line"/>
			<point x="484.667" y="612" type="line"/>
			<point x="543.667" y="683.333" type="line"/>
			<point x="353.333" y="808.667" type="line"/>
		</contour>
	</outline>
</glyph>
<glyph name="eacute" format="2">
	<unicode hex="00E9"/>
	<advance width="639"/>
	<outline>
		<component base="e"/>
		<contour>
			<point x="391" y="612" type="line"/>
			<point x="628.333" y="730" type="line"/>
			<point x="596" y="810.667" type="line"/>
			<point x="358.333" y="682.667" type="line"/>
		</contour>
	</outline>
</glyph>
<glyph name="ecircumflex" format="2">
	<unicode hex="00EA"/>
	<advance width="639"/>
	<outline>
		<component base="e"/>
		<contour>
			<point x="250" y="627.667" type="line"/>
			<point x="378.333" y="627.667" type="line"/>
			<point x="456.333" y="695" type="line"/>
			<point x="507.667" y="627.667" type="line"/>
			<point x="634" y="627.667" type="line"/>
			<point x="514.333" y="761.667" type="line"/>
			<point x="421" y="761.667" type="line"/>
		</contour>
	</outline>
</glyph>
<glyph name="edieresis" format="2">
	<unicode hex="00EB"/>
	<advance width="639"/>
	<outline>
		<component base="e"/>
		<contour>
			<point x="291.333" y="627.667" type="line"/>
			<point x="404.667" y="627.667" type="line"/>
			<point x="428.667" y="758.333" type="line"/>
			<point x="315.333" y="758.333" type="line"/>
		</contour>
		<contour>
			<point x="480.333" y="627.667" type="line"/>
			<point x="593.667" y="627.667" type="line"/>
			<point x="617.667" y="758.333" type="line"/>
			<point x="504.333" y="758.333" type="line"/>
		</contour>
	</outline>
</glyph>
<glyph name="igrave" format="2">
	<unicode hex="00EC"/>
	<advance width="227"/>
	<outline>
		<contour>
			<point x="57" y="0" type="line"/>
			<point x="170.333" y="0" type="line"/>
			<point x="272.667" y="551.667" type="line"/>
			<point x="159.333" y="551.667" type="line"/>
		</contour>
		<contour>
			<point x="120" y="730.667" type="line"/>
			<point x="314.333" y="612" type="line"/>
			<point x="373.333" y="683.333" type="line"/>
			<point x="183" y="808.667" type="line"/>
		</contour>
	</outline>
</glyph>
<glyph name="iacute" format="2">
	<unicode hex="00ED"/>
	<advance width="227"/>
	<outline>
		<contour>
			<point x="57" y="0" type="line"/>
			<point x="170.333" y="0" type="line"/>
			<point x="272.667" y="551.667" type="line"/>
			<point x="159.333" y="551.667" type="line"/>
		</contour>
		<contour>
			<point x="144" y="612" type="line"/>
			<point x="381.333" y="730" type="line"/>
			<point x="349" y="810.667" type="line"/>
			<point x="111.333" y="682.667" type="line"/>
		</contour>
	</outline>
</glyph>
<glyph name="icircumflex" format="2">
	<unicode hex="00EE"/>
	<advance width="227"/>
	<outline>
		<contour>
			<point x="57" y="0" type="line"/>
			<point x="170.333" y="0" type="line"/>
			<point x="272.667" y="551.667" type="line"/>
			<point x="159.333" y="551.667" type="line"/>
		</contour>
		<contour>
			<point x="38" y="627.667" type="line"/>
			<point x="166.333" y="627.667" type="line"/>
			<point x="244.333" y="695" type="line"/>
			<point x="295.667" y="627.667" type="line"/>
			<point x="422" y="627.667" type="line"/>
			<point x="302.333" y="761.667" type="line"/>
			<point x="209" y="761.667" type="line"/>
		</contour>
	</outline>
</glyph>
<glyph name="eth" format="2">
	<unicode hex="00F0"/>
	<advance width="648"/>
	<outline>
		<contour>
			<point x="79" y="223" type="curve" smooth="yes"/>
			<point x="79" y="88"/>
			<point x="178.667" y="-13"/>
			<point x="324.667" y="-13" type="curve" smooth="yes"/>
			<point x="517.333" y="-13"/>
			<point x="674" y="156"/>
			<point x="674" y="344.667" type="curve" smooth="yes"/>
			<point x="674" y="475"/>
			<point x="591.333" y="575.333"/>
			<point x="505.667" y="663.333" type="curve"/>
			<point x="594.667" y="699.667" type="line"/>
			<point x="563" y="747" type="line"/>
			<point x="465.333" y="706.333" type="line"/>
			<point x="447" y="725.333"/>
			<point x="426" y="742.333"/>
			<point x="408.667" y="756" type="curve"/>
			<point x="316.667" y="723" type="line"/>
			<point x="335.667" y="705.667"/>
			<point x="343" y="697.667"/>
			<point x="372.667" y="666.667" type="curve"/>
			<point x="287.333" y="630.333" type="line"/>
			<point x="318" y="584.333" type="line"/>
			<point x="412" y="624" type="line"/>
			<point x="436.667" y="599"/>
			<point x="458.667" y="574.667"/>
			<point x="480" y="544" type="curve"/>
			<point x="448.667" y="552.667"/>
			<point x="427.667" y="556"/>
			<point x="405" y="556" type="curve" smooth="yes"/>
			<point x="232.667" y="556"/>
			<point x="79" y="393.333"/>
		</contour>
		<contour>
			<point x="194.333" y="239.333" type="curve" smooth="yes"/>
			<point x="194.333" y="351"/>
			<point x="292.333" y="460.667"/>
			<point x="407" y="460.667" type="curve" smooth="yes"/>
			<point x="496.333" y="460.667"/>
			<point x="555.667" y="398.667"/>
			<point x="555.667" y="312.333" type="curve" smooth="yes"/>
			<point x="555.667" y="198.333"/>
			<point x="459" y="91"/>
			<point x="342.333" y="91" type="curve" smooth="yes"/>
			<point x="253.667" y="91"/>
			<point x="194.333" y="154"/>
		</contour>
	</outline>
</glyph>
<glyph name="ntilde" format="2">
	<unicode hex="00F1"/>
	<advance width="602"/>
	<outline>
		<component base="n"/>
		<contour>
			<point x="299" y="635" type="line"/>
			<point x="333.667" y="657"/>
			<point x="344.667" y="662.333"/>
			<point x="371" y="662.333" type="curve" smooth="yes"/>
			<point x="388" y="662.333"/>
			<point x="409" y="656.333"/>
			<point x="421.333" y="649.667" type="curve" smooth="yes"/>
			<point x="438.333" y="640.667"/>
			<point x="462" y="635"/>
			<point x="476.333" y="635" type="curve" smooth="yes"/>
			<point x="510.667" y="635"/>
			<point x="546" y="653.333"/>
			<point x="579" y="688" type="curve"/>
			<point x="545" y="757.333" type="line"/>
			<point x="520" y="734"/>
			<point x="499" y="724.333"/>
			<point x="475.333" y="724.333" type="curve" smooth="yes"/>
			<point x="463" y="724.333"/>
			<point x="448.333" y="728.333"/>
			<point x="430.333" y="736.333" type="curve" smooth="yes"/>
			<point x="403" y="748.667"/>
			<point x="393.667" y="751.333"/>
			<point x="373" y="751.333" type="curve" smooth="yes"/>
			<point x="333" y="751.333"/>
			<point x="302" y="737.333"/>
			<point x="265" y="703.667" type="curve"/>
		</contour>
	</outline>
</glyph>
<glyph name="ograve" format="2">
	<unicode hex="00F2"/>
	<advance width="648"/>
	<outline>
		<component base="o"/>
		<contour>
			<point x="295.333" y="730.667" type="line"/>
			<point x="489.667" y="612" type="line"/>
			<point x="548.667" y="683.333" type="line"/>
			<point x="358.333" y="808.667" type="line"/>
		</contour>
	</outline>
</glyph>
<glyph name="oacute" format="2">
	<unicode hex="00F3"/>
	<advance width="648"/>
	<outline>
		<component base="o"/>
		<contour>
			<point x="386" y="612" type="line"/>
			<point x="623.333" y="730" type="line"/>
			<point x="591" y="810.667" type="line"/>
			<point x="353.333" y="682.667" type="line"/>
		</contour>
	</outline>
</glyph>
<glyph name="ocircumflex" format="2">
	<unicode hex="00F4"/>
	<advance width="648"/>
	<outline>
		<component base="o"/>
		<contour>
			<point x="248.333" y="627.667" type="line"/>
			<point x="376.667" y="627.667" type="line"/>
			<point x="454.667" y="695" type="line"/>
			<point x="506" y="627.667" type="line"/>
			<point x="632.333" y="627.667" type="line"/>
			<point x="512.667" y="761.667" type="line"/>
			<point x="419.333" y="761.667" type="line"/>
		</contour>
	</outline>
</glyph>
<glyph name="otilde" format="2">
	<unicode hex="00F5"/>
	<advance width="648"/>
	<outline>
		<component base="o"/>
		<contour>
			<point x="334.333" y="635" type="line"/>
			<point x="370" y="657.667"/>
			<point x="380" y="662.333"/>
			<point x="403.333" y="662.333" type="curve" smooth="yes"/>
			<point x="419.667" y="662.333"/>
			<point x="440.333" y="656.667"/>
			<point x="456" y="649.333" type="curve" smooth="yes"/>
			<point x="471.667" y="642"/>
			<point x="497.333" y="635"/>
			<point x="515" y="635" type="curve" smooth="yes"/>
			<point x="548.333" y="635"/>
			<point x="581.333" y="653.333"/>
			<point x="614.333" y="688" type="curve"/>
			<point x="580.333" y="757.333" type="line"/>
			<point x="555.333" y="734"/>
			<point x="534.333" y="724.333"/>
			<point x="510.667" y="724.333" type="curve" smooth="yes"/>
			<point x="498.333" y="724.333"/>
			<point x="483.667" y="728.333"/>
			<point x="465.667" y="736.333" type="curve" smooth="yes"/>
			<point x="438.333" y="748.667"/>
			<point x="429" y="751.333"/>
			<point x="407" y="751.333" type="curve" smooth="yes"/>
			<point x="368.333" y="751.333"/>
			<point x="337.333" y="737.333"/>
			<point x="300.333" y="703.667" type="curve"/>
		</contour>
	</outline>
</glyph>
<glyph name="odieresis" format="2">
	<unicode hex="00F6"/>
	<advance width="648"/>
	<outline>
		<component base="o"/>
		<contour>
			<point x="289.333" y="627.667" type="line"/>
			<point x="402.667" y="627.667" type="line"/>
			<point x="426.667" y="758.333" type="line"/>
			<point x="313.333" y="758.333" type="line"/>
		</contour>
		<contour>
			<point x="478.333" y="627.667" type="line"/>
			<point x="591.667" y="627.667" type="line"/>
			<point x="615.667" y="758.333" type="line"/>
			<point x="502.333" y="758.333" type="line"/>
		</contour>
	</outline>
</glyph>
<glyph name="divide" format="2">
	<unicode hex="00F7"/>
	<advance width="602"/>
	<outline>
		<contour>
			<point x="333" y="495" type="line"/>
			<point x="452" y="495" type="line"/>
			<point x="473.333" y="611.333" type="line"/>
			<point x="354.333" y="611.333" type="line"/>
		</contour>
		<contour>
			<point x="257.333" y="86" type="line"/>
			<point x="376.333" y="86" type="line"/>
			<point x="397.667" y="202.333" type="line"/>
			<point x="278.667" y="202.333" type="line"/>
		</contour>
		<contour>
			<point x="104" y="297" type="line"/>
			<point x="608" y="297" type="line"/>
			<point x="627.333" y="400.333" type="line"/>
			<point x="123.333" y="400.333" type="line"/>
		</contour>
	</outline>
</glyph>
<glyph name="oslash" format="2">
	<unicode hex="00F8"/>
	<advance width="648"/>
	<outline>
		<contour>
			<point x="61" y="-6.333" type="line"/>
			<point x="126.333" y="-57.667" type="line"/>
			<point x="195" y="19.333" type="line"/>
			<point x="236.333" y="-3.333"/>
			<point x="275.667" y="-13"/>
			<point x="323.667" y="-13" type="curve" smooth="yes"/>
			<point x="486.333" y="-13"/>
			<point x="636.333" y="114.667"/>
			<point x="667" y="278.333" type="curve" smooth="yes"/>
			<point x="670.333" y="297"/>
			<point x="672.333" y="316.333"/>
			<point x="672.333" y="333.667" type="curve" smooth="yes"/>
			<point x="672.333" y="392.667"/>
			<point x="652.667" y="443.667"/>
			<point x="613.667" y="487.333" type="curve"/>
			<point x="679.333" y="560.667" type="line"/>
			<point x="613.667" y="613.333" type="line"/>
			<point x="546" y="537" type="line"/>
			<point x="510.667" y="555.667"/>
			<point x="474" y="564.667"/>
			<point x="430" y="564.667" type="curve" smooth="yes"/>
			<point x="267.333" y="564.667"/>
			<point x="113.333" y="435.333"/>
			<point x="83.333" y="275.333" type="curve" smooth="yes"/>
			<point x="80" y="256.333"/>
			<point x="78.333" y="238.333"/>
			<point x="78.333" y="221" type="curve" smooth="yes"/>
			<point x="78.333" y="166"/>
			<point x="96" y="116.333"/>
			<point x="131" y="72" type="curve"/>
		</contour>
		<contour>
			<point x="211.333" y="163.667" type="line"/>
			<point x="200" y="188.667"/>
			<point x="194.667" y="212.667"/>
			<point x="194.667" y="238" type="curve" smooth="yes"/>
			<point x="194.667" y="249.333"/>
			<point x="195.667" y="261.333"/>
			<point x="198" y="274" type="curve" smooth="yes"/>
			<point x="217.333" y="378"/>
			<point x="310.667" y="460.667"/>
			<point x="410" y="460.667" type="curve" smooth="yes"/>
			<point x="432" y="460.667"/>
			<point x="450" y="457.333"/>
			<point x="469" y="449.333" type="curve"/>
		</contour>
		<contour>
			<point x="534.667" y="397.333" type="line"/>
			<point x="549.333" y="372"/>
			<point x="556.333" y="346"/>
			<point x="556.333" y="316" type="curve" smooth="yes"/>
			<point x="556.333" y="303.333"/>
			<point x="555" y="291.333"/>
			<point x="552.667" y="277.333" type="curve" smooth="yes"/>
			<point x="533" y="171.667"/>
			<point x="441" y="91"/>
			<point x="339.667" y="91" type="curve" smooth="yes"/>
			<point x="314" y="91"/>
			<point x="296" y="95"/>
			<point x="271.667" y="105.667" type="curve"/>
		</contour>
	</outline>
</glyph>
<glyph name="ugrave" format="2">
	<unicode hex="00F9"/>
	<advance width="602"/>
	<outline>
		<contour>
			<point x="438.333" y="0" type="line"/>
			<point x="545" y="0" type="line"/>
			<point x="647.333" y="551.667" type="line"/>
			<point x="534" y="551.667" type="line"/>
			<point x="484" y="284" type="line" smooth="yes"/>
			<point x="471.333" y="214.333"/>
			<point x="458" y="177"/>
			<point x="435.667" y="149" type="curve" smooth="yes"/>
			<point x="406" y="111.667"/>
			<point x="360" y="91"/>
			<point x="310" y="91" type="curve" smooth="yes"/>
			<point x="267.667" y="91"/>
			<point x="237.667" y="106.333"/>
			<point x="221.667" y="134.667" type="curve" smooth="yes"/>
			<point x="214" y="148.667"/>
			<point x="210" y="166.667"/>
			<point x="210" y="191" type="curve" smooth="yes"/>
			<point x="210" y="212.667"/>
			<point x="213" y="239.333"/>
			<point x="219.333" y="272.667" type="curve" smooth="yes"/>
			<point x="271.333" y="551.667" type="line"/>
			<point x="158" y="551.667" type="line"/>
			<point x="103.333" y="255.333" type="line" smooth="yes"/>
			<point x="96" y="216"/>
			<point x="92" y="185"/>
			<point x="92" y="158.333" type="curve" smooth="yes"/>
			<point x="92" y="125.667"/>
			<point x="98" y="99.333"/>
			<point x="109.333" y="75.667" type="curve" smooth="yes"/>
			<point x="136.333" y="18.333"/>
			<point x="193.333" y="-13"/>
			<point x="271.667" y="-13" type="curve" smooth="yes"/>
			<point x="344.667" y="-13"/>
			<point x="393.667" y="8.333"/>
			<point x="450.333" y="63.667" type="curve"/>
		</contour>
		<contour>
			<point x="267" y="730.667" type="line"/>
			<point x="461.333" y="612" type="line"/>
			<point x="520.333" y="683.333" type="line"/>
			<point x="330" y="808.667" type="line"/>
		</contour>
	</outline>
</glyph>
<glyph name="udieresis" format="2">
	<unicode hex="00FC"/>
	<advance width="602"/>
	<outline>
		<contour>
			<point x="438.333" y="0" type="line"/>
			<point x="545" y="0" type="line"/>
			<point x="647.333" y="551.667" type="line"/>
			<point x="534" y="551.667" type="line"/>
			<point x="484" y="284" type="line" smooth="yes"/>
			<point x="471.333" y="214.333"/>
			<point x="458" y="177"/>
			<point x="435.667" y="149" type="curve" smooth="yes"/>
			<point x="406" y="111.667"/>
			<point x="360" y="91"/>
			<point x="310" y="91" type="curve" smooth="yes"/>
			<point x="267.667" y="91"/>
			<point x="237.667" y="106.333"/>
			<point x="221.667" y="134.667" type="curve" smooth="yes"/>
			<point x="214" y="148.667"/>
			<point x="210" y="166.667"/>
			<point x="210" y="191" type="curve" smooth="yes"/>
			<point x="210" y="212.667"/>
			<point x="213" y="239.333"/>
			<point x="219.333" y="272.667" type="curve" smooth="yes"/>
			<point x="271.333" y="551.667" type="line"/>
			<point x="158" y="551.667" type="line"/>
			<point x="103.333" y="255.333" type="line" smooth="yes"/>
			<point x="96" y="216"/>
			<point x="92" y="185"/>
			<point x="92" y="158.333" type="curve" smooth="yes"/>
			<point x="92" y="125.667"/>
			<point x="98" y="99.333"/>
			<point x="109.333" y="75.667" type="curve" smooth="yes"/>
			<point x="136.333" y="18.333"/>
			<point x="193.333" y="-13"/>
			<point x="271.667" y="-13" type="curve" smooth="yes"/>
			<point x="344.667" y="-13"/>
			<point x="393.667" y="8.333"/>
			<point x="450.333" y="63.667" type="curve"/>
		</contour>
		<contour>
			<point x="265.667" y="627.667" type="line"/>
			<point x="379" y="627.667" type="line"/>
			<point x="403" y="758.333" type="line"/>
			<point x="289.667" y="758.333" type="line"/>
		</contour>
		<contour>
			<point x="454.667" y="627.667" type="line"/>
			<point x="568" y="627.667" type="line"/>
			<point x="592" y="758.333" type="line"/>
			<point x="478.667" y="758.333" type="line"/>
		</contour>
	</outline>
</glyph>
<glyph name="yacute" format="2">
	<unicode hex="00FD"/>
	<advance width="557"/>
	<outline>
		<contour>
			<point x="77.333" y="-187.333" type="line"/>
			<point x="199" y="-187.333" type="line"/>
			<point x="654.667" y="551.667" type="line"/>
			<point x="526.333" y="551.667" type="line"/>
			<point x="304" y="167" type="line"/>
			<point x="235.667" y="551.667" type="line"/>
			<point x="107.333" y="551.667" type="line"/>
			<point x="218.667" y="40.667" type="line"/>
		</contour>
		<contour>
			<point x="324.667" y="612" type="line"/>
			<point x="562" y="730" type="line"/>
			<point x="529.667" y="810.667" type="line"/>
			<point x="292" y="682.667" type="line"/>
		</contour>
	</outline>
</glyph>
<glyph name="thorn" format="2">
	<unicode hex="00FE"/>
	<advance width="669"/>
	<outline>
		<contour>
			<point x="22.333" y="-187.333" type="line"/>
			<point x="135.667" y="-187.333" type="line"/>
			<point x="183.333" y="70.667" type="line"/>
			<point x="217.667" y="15.333"/>
			<point x="277" y="-13"/>
			<point x="354" y="-13" type="curve" smooth="yes"/>
			<point x="515.333" y="-13"/>
			<point x="656.333" y="109.333"/>
			<point x="687" y="275.667" type="curve" smooth="yes"/>
			<point x="691" y="296.667"/>
			<point x="692.667" y="317"/>
			<point x="692.667" y="336.333" type="curve" smooth="yes"/>
			<point x="692.667" y="471.333"/>
			<point x="602" y="564.667"/>
			<point x="461.333" y="564.667" type="curve" smooth="yes"/>
			<point x="383.333" y="564.667"/>
			<point x="314" y="536.333"/>
			<point x="259.667" y="481" type="curve"/>
			<point x="307.333" y="739" type="line"/>
			<point x="194" y="739" type="line"/>
		</contour>
		<contour>
			<point x="211" y="238.333" type="curve" smooth="yes"/>
			<point x="211" y="250.333"/>
			<point x="212" y="262.667"/>
			<point x="214.333" y="275.667" type="curve" smooth="yes"/>
			<point x="234" y="380"/>
			<point x="325.667" y="460.667"/>
			<point x="425.667" y="460.667" type="curve" smooth="yes"/>
			<point x="516.667" y="460.667"/>
			<point x="576.667" y="400.333"/>
			<point x="576.667" y="313.667" type="curve" smooth="yes"/>
			<point x="576.667" y="301.333"/>
			<point x="574.667" y="288.333"/>
			<point x="572.333" y="275" type="curve" smooth="yes"/>
			<point x="552.667" y="170.667"/>
			<point x="461.333" y="91"/>
			<point x="360.333" y="91" type="curve" smooth="yes"/>
			<point x="270.333" y="91"/>
			<point x="211" y="152.333"/>
		</contour>
	</outline>
</glyph>
<glyph name="ydieresis" format="2">
	<unicode hex="00FF"/>
	<advance width="557"/>
	<outline>
		<contour>
			<point x="77.333" y="-187.333" type="line"/>
			<point x="199" y="-187.333" type="line"/>
			<point x="654.667" y="551.667" type="line"/>
			<point x="526.333" y="551.667" type="line"/>
			<point x="304" y="167" type="line"/>
			<point x="235.667" y="551.667" type="line"/>
			<point x="107.333" y="551.667" type="line"/>
			<point x="218.667" y="40.667" type="line"/>
		</contour>
		<contour>
			<point x="243.333" y="627.667" type="line"/>
			<point x="356.667" y="627.667" type="line"/>
			<point x="380.667" y="758.333" type="line"/>
			<point x="267.333" y="758.333" type="line"/>
		</contour>
		<contour>
			<point x="432.333" y="627.667" type="line"/>
			<point x="545.667" y="627.667" type="line"/>
			<point x="569.667" y="758.333" type="line"/>
			<point x="456.333" y="758.333" type="line"/>
		</contour>
	</outline>
</glyph>
<glyph name="dotlessi" format="2">
	<unicode hex="0131"/>
	<advance width="227"/>
	<outline>
		<contour>
			<point x="57" y="0" type="line"/>
			<point x="170.333" y="0" type="line"/>
			<point x="272.667" y="551.667" type="line"/>
			<point x="159.333" y="551.667" type="line"/>
		</contour>
	</outline>
</glyph>
<glyph name="Ldot" format="2">
	<unicode hex="013F"/>
	<advance width="457"/>
	<outline>
		<contour>
			<point x="72.667" y="0" type="line"/>
			<point x="441.333" y="0" type="line"/>
			<point x="461.333" y="109.667" type="line"/>
			<point x="208.667" y="109.667" type="line"/>
			<point x="325.667" y="739" type="line"/>
			<point x="209.667" y="739" type="line"/>
		</contour>
		<contour>
			<point x="346.667" y="310.333" type="line"/>
			<point x="460" y="310.333" type="line"/>
			<point x="484.667" y="441" type="line"/>
			<point x="370.667" y="441" type="line"/>
		</contour>
	</outline>
</glyph>
<glyph name="ldot" format="2">
	<unicode hex="0140"/>
	<advance width="467"/>
	<outline>
		<contour>
			<point x="57.667" y="0" type="line"/>
			<point x="171" y="0" type="line"/>
			<point x="308" y="739" type="line"/>
			<point x="194.667" y="739" type="line"/>
		</contour>
		<contour>
			<point x="325.667" y="276.333" type="line"/>
			<point x="439" y="276.333" type="line"/>
			<point x="463.667" y="407" type="line"/>
			<point x="349.667" y="407" type="line"/>
		</contour>
	</outline>
</glyph>
<glyph name="Lslash" format="2">
	<unicode hex="0141"/>
	<advance width="495"/>
	<outline>
		<contour>
			<point x="116" y="0" type="line"/>
			<point x="484.667" y="0" type="line"/>
			<point x="504.667" y="107.667" type="line"/>
			<point x="252" y="107.667" type="line"/>
			<point x="297" y="351" type="line"/>
			<point x="466.667" y="469" type="line"/>
			<point x="487" y="579" type="line"/>
			<point x="317.667" y="461.333" type="line"/>
			<point x="369" y="739" type="line"/>
			<point x="253" y="739" type="line"/>
			<point x="189.333" y="393.667" type="line"/>
			<point x="78.333" y="314.333" type="line"/>
			<point x="58" y="204" type="line"/>
			<point x="168.667" y="283" type="line"/>
		</contour>
	</outline>
</glyph>
<glyph name="lslash" format="2">
	<unicode hex="0142"/>
	<advance width="329"/>
	<outline>
		<contour>
			<point x="110.667" y="0" type="line"/>
			<point x="224" y="0" type="line"/>
			<point x="294.667" y="381.667" type="line"/>
			<point x="387.333" y="441.667" type="line"/>
			<point x="404" y="532" type="line"/>
			<point x="311.333" y="471.667" type="line"/>
			<point x="361" y="739" type="line"/>
			<point x="247.667" y="739" type="line"/>
			<point x="187.667" y="417.333" type="line"/>
			<point x="97.333" y="357.667" type="line"/>
			<point x="80" y="267.667" type="line"/>
			<point x="171.333" y="326.667" type="line"/>
		</contour>
	</outline>
</glyph>
<glyph name="OE" format="2">
	<unicode hex="0152"/>
	<advance width="1103"/>
	<outline>
		<contour>
			<point x="678.333" y="0" type="line"/>
			<point x="1047.33" y="0" type="line"/>
			<point x="1067.33" y="109.667" type="line"/>
			<point x="815.667" y="109.667" type="line"/>
			<point x="854" y="315.333" type="line"/>
			<point x="1094.67" y="315.333" type="line"/>
			<point x="1114.67" y="425" type="line"/>
			<point x="874" y="425" type="line"/>
			<point x="912.667" y="629.333" type="line"/>
			<point x="1164.33" y="629.333" type="line"/>
			<point x="1184.33" y="739" type="line"/>
			<point x="815.333" y="739" type="line"/>
			<point x="796.333" y="635.333" type="line"/>
			<point x="752.667" y="712.333"/>
			<point x="670.667" y="752"/>
			<point x="557" y="752" type="curve" smooth="yes"/>
			<point x="339.667" y="752"/>
			<point x="147.667" y="588.333"/>
			<point x="107" y="369" type="curve" smooth="yes"/>
			<point x="102" y="343"/>
			<point x="100" y="317.333"/>
			<point x="100" y="293.333" type="curve" smooth="yes"/>
			<point x="100" y="114"/>
			<point x="228.333" y="-13"/>
			<point x="423.667" y="-13" type="curve" smooth="yes"/>
			<point x="530.667" y="-13"/>
			<point x="626.667" y="28"/>
			<point x="697.667" y="104.333" type="curve"/>
		</contour>
		<contour>
			<point x="218.667" y="314" type="curve" smooth="yes"/>
			<point x="218.667" y="331.333"/>
			<point x="220.667" y="349.333"/>
			<point x="224" y="367.667" type="curve" smooth="yes"/>
			<point x="253" y="522.667"/>
			<point x="386.667" y="641.333"/>
			<point x="532.667" y="641.333" type="curve" smooth="yes"/>
			<point x="670.333" y="641.333"/>
			<point x="756.333" y="556.333"/>
			<point x="756.333" y="428.333" type="curve" smooth="yes"/>
			<point x="756.333" y="409.333"/>
			<point x="754.333" y="389.333"/>
			<point x="750.333" y="369" type="curve" smooth="yes"/>
			<point x="721" y="212"/>
			<point x="590.667" y="97.667"/>
			<point x="440" y="97.667" type="curve" smooth="yes"/>
			<point x="307.333" y="97.667"/>
			<point x="218.667" y="188"/>
		</contour>
	</outline>
</glyph>
<glyph name="oe" format="2">
	<unicode hex="0153"/>
	<advance width="1095"/>
	<outline>
		<contour>
			<point x="78.667" y="219.667" type="curve" smooth="yes"/>
			<point x="78.667" y="83.667"/>
			<point x="176" y="-13"/>
			<point x="323" y="-13" type="curve" smooth="yes"/>
			<point x="422.333" y="-13"/>
			<point x="500.667" y="26.333"/>
			<point x="572.333" y="112.667" type="curve"/>
			<point x="606.333" y="32.333"/>
			<point x="683.667" y="-13"/>
			<point x="784.667" y="-13" type="curve" smooth="yes"/>
			<point x="905.667" y="-13"/>
			<point x="1022" y="60"/>
			<point x="1078.33" y="168.333" type="curve"/>
			<point x="959" y="168.333" type="line"/>
			<point x="919.333" y="119.333"/>
			<point x="861.333" y="91"/>
			<point x="801.333" y="91" type="curve" smooth="yes"/>
			<point x="714.667" y="91"/>
			<point x="655.667" y="145.667"/>
			<point x="652.667" y="228" type="curve"/>
			<point x="1101.33" y="228" type="line"/>
			<point x="1113.33" y="264.667"/>
			<point x="1122" y="303.333"/>
			<point x="1122" y="343.333" type="curve" smooth="yes"/>
			<point x="1122" y="479"/>
			<point x="1018.67" y="564.667"/>
			<point x="883.333" y="564.667" type="curve" smooth="yes"/>
			<point x="787.333" y="564.667"/>
			<point x="710.333" y="526.667"/>
			<point x="633.333" y="442" type="curve"/>
			<point x="586" y="525.667"/>
			<point x="524" y="564.667"/>
			<point x="424.667" y="564.667" type="curve" smooth="yes"/>
			<point x="241.667" y="564.667"/>
			<point x="78.667" y="402.333"/>
		</contour>
		<contour>
			<point x="194.667" y="239.333" type="curve" smooth="yes"/>
			<point x="194.667" y="351.333"/>
			<point x="291.667" y="460.667"/>
			<point x="406" y="460.667" type="curve" smooth="yes"/>
			<point x="497.333" y="460.667"/>
			<point x="556.333" y="400.333"/>
			<point x="556.333" y="314" type="curve" smooth="yes"/>
			<point x="556.333" y="201"/>
			<point x="461.333" y="91"/>
			<point x="345" y="91" type="curve" smooth="yes"/>
			<point x="254.333" y="91"/>
			<point x="194.667" y="153"/>
		</contour>
		<contour>
			<point x="667.333" y="328.333" type="line"/>
			<point x="709" y="413.667"/>
			<point x="777.333" y="460.667"/>
			<point x="862" y="460.667" type="curve" smooth="yes"/>
			<point x="951" y="460.667"/>
			<point x="1003.67" y="412.333"/>
			<point x="1008.33" y="328.333" type="curve"/>
		</contour>
	</outline>
</glyph>
